STARTFONT 2.1
COMMENT Sources:
COMMENT -Misc-Fixed-Medium-R-Normal--13-120-75-75-C-70-ISO10646-1 $ucs-fonts: 7x13.bdf,v 1.52 2008-04-19 22:55:01+01 mgk25 Rel $
COMMENT -windows-proggyclean-medium-r-normal--13-80-96-96-c-70-iso8859-1
FONT -dylex-terminal-Medium-R-Normal--26-240-75-75-C-140-ISO10646-1
SIZE 26 75 75
FONTBOUNDINGBOX 14 26 0 -6
STARTPROPERTIES 23
FONTNAME_REGISTRY ""
FOUNDRY "dylex"
FAMILY_NAME "terminal"
WEIGHT_NAME "Medium"
SLANT "R"
SETWIDTH_NAME "Normal"
ADD_STYLE_NAME ""
PIXEL_SIZE 26
POINT_SIZE 240
RESOLUTION_X 75
RESOLUTION_Y 75
SPACING "C"
AVERAGE_WIDTH 140
CHARSET_REGISTRY "ISO10646"
CHARSET_ENCODING "1"
COPYRIGHT "Public domain font.  Share and enjoy."
DESTINATION 1
DEFAULT_CHAR 0
FONT_DESCENT 6
FONT_ASCENT 20
CAP_HEIGHT 16
X_HEIGHT 12
_GBDFED_INFO "Edited with gbdfed 1.6."
ENDPROPERTIES
CHARS 3298
STARTCHAR char0
ENCODING 0
SWIDTH 994 0
DWIDTH 14 0
BBX 14 26 0 -6
BITMAP
0000
0000
3330
3330
0000
0000
3030
3030
0000
0000
3030
3030
0000
0000
3030
3030
0000
0000
3030
3030
0000
0000
3330
3330
0000
0000
ENDCHAR
STARTCHAR char1
ENCODING 1
SWIDTH 994 0
DWIDTH 14 0
BBX 14 26 0 -6
BITMAP
0000
0000
0000
0000
0000
0000
0000
0000
0300
0300
0FC0
0FC0
3FF0
3FF0
0FC0
0FC0
0300
0300
0000
0000
0000
0000
0000
0000
0000
0000
ENDCHAR
STARTCHAR char2
ENCODING 2
SWIDTH 994 0
DWIDTH 14 0
BBX 14 26 0 -6
BITMAP
CCCC
CCCC
3330
3330
CCCC
CCCC
3330
3330
CCCC
CCCC
3330
3330
CCCC
CCCC
3330
3330
CCCC
CCCC
3330
3330
CCCC
CCCC
3330
3330
CCCC
CCCC
ENDCHAR
STARTCHAR char3
ENCODING 3
SWIDTH 994 0
DWIDTH 14 0
BBX 14 26 0 -6
BITMAP
0000
0000
3300
3300
3300
3300
3F00
3F00
3300
3300
33FC
33FC
0030
0030
0030
0030
0030
0030
0030
0030
0000
0000
0000
0000
0000
0000
ENDCHAR
STARTCHAR char4
ENCODING 4
SWIDTH 994 0
DWIDTH 14 0
BBX 14 26 0 -6
BITMAP
0000
0000
3F00
3F00
3000
3000
3C00
3C00
3000
3000
30FC
30FC
00C0
00C0
00F0
00F0
00C0
00C0
00C0
00C0
0000
0000
0000
0000
0000
0000
ENDCHAR
STARTCHAR char5
ENCODING 5
SWIDTH 994 0
DWIDTH 14 0
BBX 14 26 0 -6
BITMAP
0000
0000
0F00
0F00
3000
3000
3000
3000
3000
3000
0FFC
0FFC
00CC
00CC
00F0
00F0
00CC
00CC
00CC
00CC
0000
0000
0000
0000
0000
0000
ENDCHAR
STARTCHAR char6
ENCODING 6
SWIDTH 994 0
DWIDTH 14 0
BBX 14 26 0 -6
BITMAP
0000
0000
3000
3000
3000
3000
3000
3000
3000
3000
3FFC
3FFC
00C0
00C0
00F0
00F0
00C0
00C0
00C0
00C0
0000
0000
0000
0000
0000
0000
ENDCHAR
STARTCHAR char7
ENCODING 7
SWIDTH 994 0
DWIDTH 14 0
BBX 14 26 0 -6
BITMAP
0000
0000
0000
0000
0300
0300
0CC0
0CC0
0CC0
0CC0
0300
0300
0000
0000
0000
0000
0000
0000
0000
0000
0000
0000
0000
0000
0000
0000
ENDCHAR
STARTCHAR char8
ENCODING 8
SWIDTH 994 0
DWIDTH 14 0
BBX 14 26 0 -6
BITMAP
0000
0000
0000
0000
0000
0000
0300
0300
0300
0300
3FF0
3FF0
0300
0300
0300
0300
0000
0000
3FF0
3FF0
0000
0000
0000
0000
0000
0000
ENDCHAR
STARTCHAR char9
ENCODING 9
SWIDTH 994 0
DWIDTH 14 0
BBX 14 26 0 -6
BITMAP
0000
0000
3C00
3C00
3300
3300
3300
3300
3300
3300
33C0
33C0
00C0
00C0
00C0
00C0
00C0
00C0
00FC
00FC
0000
0000
0000
0000
0000
0000
ENDCHAR
STARTCHAR char10
ENCODING 10
SWIDTH 994 0
DWIDTH 14 0
BBX 14 26 0 -6
BITMAP
0000
0000
3300
3300
3300
3300
3300
3300
0C00
0C00
0CFC
0CFC
0030
0030
0030
0030
0030
0030
0030
0030
0000
0000
0000
0000
0000
0000
ENDCHAR
STARTCHAR char11
ENCODING 11
SWIDTH 994 0
DWIDTH 14 0
BBX 14 26 0 -6
BITMAP
0300
0300
0300
0300
0300
0300
0300
0300
0300
0300
0300
0300
FF00
FF00
0000
0000
0000
0000
0000
0000
0000
0000
0000
0000
0000
0000
ENDCHAR
STARTCHAR char12
ENCODING 12
SWIDTH 994 0
DWIDTH 14 0
BBX 14 26 0 -6
BITMAP
0000
0000
0000
0000
0000
0000
0000
0000
0000
0000
0000
0000
FF00
FF00
0300
0300
0300
0300
0300
0300
0300
0300
0300
0300
0300
0300
ENDCHAR
STARTCHAR char13
ENCODING 13
SWIDTH 994 0
DWIDTH 14 0
BBX 14 26 0 -6
BITMAP
0000
0000
0000
0000
0000
0000
0000
0000
0000
0000
0000
0000
03FC
03FC
0300
0300
0300
0300
0300
0300
0300
0300
0300
0300
0300
0300
ENDCHAR
STARTCHAR char14
ENCODING 14
SWIDTH 994 0
DWIDTH 14 0
BBX 14 26 0 -6
BITMAP
0300
0300
0300
0300
0300
0300
0300
0300
0300
0300
0300
0300
03FC
03FC
0000
0000
0000
0000
0000
0000
0000
0000
0000
0000
0000
0000
ENDCHAR
STARTCHAR char15
ENCODING 15
SWIDTH 994 0
DWIDTH 14 0
BBX 14 26 0 -6
BITMAP
0300
0300
0300
0300
0300
0300
0300
0300
0300
0300
0300
0300
FFFC
FFFC
0300
0300
0300
0300
0300
0300
0300
0300
0300
0300
0300
0300
ENDCHAR
STARTCHAR char16
ENCODING 16
SWIDTH 994 0
DWIDTH 14 0
BBX 14 26 0 -6
BITMAP
FFFC
FFFC
0000
0000
0000
0000
0000
0000
0000
0000
0000
0000
0000
0000
0000
0000
0000
0000
0000
0000
0000
0000
0000
0000
0000
0000
ENDCHAR
STARTCHAR char17
ENCODING 17
SWIDTH 994 0
DWIDTH 14 0
BBX 14 26 0 -6
BITMAP
0000
0000
0000
0000
0000
0000
FFFC
FFFC
0000
0000
0000
0000
0000
0000
0000
0000
0000
0000
0000
0000
0000
0000
0000
0000
0000
0000
ENDCHAR
STARTCHAR char18
ENCODING 18
SWIDTH 994 0
DWIDTH 14 0
BBX 14 26 0 -6
BITMAP
0000
0000
0000
0000
0000
0000
0000
0000
0000
0000
0000
0000
FFFC
FFFC
0000
0000
0000
0000
0000
0000
0000
0000
0000
0000
0000
0000
ENDCHAR
STARTCHAR char19
ENCODING 19
SWIDTH 994 0
DWIDTH 14 0
BBX 14 26 0 -6
BITMAP
0000
0000
0000
0000
0000
0000
0000
0000
0000
0000
0000
0000
0000
0000
0000
0000
0000
0000
FFFC
FFFC
0000
0000
0000
0000
0000
0000
ENDCHAR
STARTCHAR char20
ENCODING 20
SWIDTH 994 0
DWIDTH 14 0
BBX 14 26 0 -6
BITMAP
0000
0000
0000
0000
0000
0000
0000
0000
0000
0000
0000
0000
0000
0000
0000
0000
0000
0000
0000
0000
0000
0000
0000
0000
FFFC
FFFC
ENDCHAR
STARTCHAR char21
ENCODING 21
SWIDTH 994 0
DWIDTH 14 0
BBX 14 26 0 -6
BITMAP
0300
0300
0300
0300
0300
0300
0300
0300
0300
0300
0300
0300
03FC
03FC
0300
0300
0300
0300
0300
0300
0300
0300
0300
0300
0300
0300
ENDCHAR
STARTCHAR char22
ENCODING 22
SWIDTH 994 0
DWIDTH 14 0
BBX 14 26 0 -6
BITMAP
0300
0300
0300
0300
0300
0300
0300
0300
0300
0300
0300
0300
FF00
FF00
0300
0300
0300
0300
0300
0300
0300
0300
0300
0300
0300
0300
ENDCHAR
STARTCHAR char23
ENCODING 23
SWIDTH 994 0
DWIDTH 14 0
BBX 14 26 0 -6
BITMAP
0300
0300
0300
0300
0300
0300
0300
0300
0300
0300
0300
0300
FFFC
FFFC
0000
0000
0000
0000
0000
0000
0000
0000
0000
0000
0000
0000
ENDCHAR
STARTCHAR char24
ENCODING 24
SWIDTH 994 0
DWIDTH 14 0
BBX 14 26 0 -6
BITMAP
0000
0000
0000
0000
0000
0000
0000
0000
0000
0000
0000
0000
FFFC
FFFC
0300
0300
0300
0300
0300
0300
0300
0300
0300
0300
0300
0300
ENDCHAR
STARTCHAR char25
ENCODING 25
SWIDTH 994 0
DWIDTH 14 0
BBX 14 26 0 -6
BITMAP
0300
0300
0300
0300
0300
0300
0300
0300
0300
0300
0300
0300
0300
0300
0300
0300
0300
0300
0300
0300
0300
0300
0300
0300
0300
0300
ENDCHAR
STARTCHAR char26
ENCODING 26
SWIDTH 994 0
DWIDTH 14 0
BBX 14 26 0 -6
BITMAP
0000
0000
0000
0000
0000
0000
00F0
00F0
0F00
0F00
F000
F000
0F00
0F00
00F0
00F0
0000
0000
FFF0
FFF0
0000
0000
0000
0000
0000
0000
ENDCHAR
STARTCHAR char27
ENCODING 27
SWIDTH 994 0
DWIDTH 14 0
BBX 14 26 0 -6
BITMAP
0000
0000
0000
0000
0000
0000
F000
F000
0F00
0F00
00F0
00F0
0F00
0F00
F000
F000
0000
0000
FFF0
FFF0
0000
0000
0000
0000
0000
0000
ENDCHAR
STARTCHAR char28
ENCODING 28
SWIDTH 994 0
DWIDTH 14 0
BBX 14 26 0 -6
BITMAP
0000
0000
0000
0000
0000
0000
0000
0000
FFF0
FFF0
30C0
30C0
30C0
30C0
30C0
30C0
30C0
30C0
30C0
30C0
0000
0000
0000
0000
0000
0000
ENDCHAR
STARTCHAR char29
ENCODING 29
SWIDTH 994 0
DWIDTH 14 0
BBX 14 26 0 -6
BITMAP
0000
0000
0000
0000
0000
0000
0000
0000
00C0
00C0
3FF0
3FF0
0300
0300
3FF0
3FF0
0C00
0C00
0000
0000
0000
0000
0000
0000
0000
0000
ENDCHAR
STARTCHAR char30
ENCODING 30
SWIDTH 994 0
DWIDTH 14 0
BBX 14 26 0 -6
BITMAP
0000
0000
0000
0000
03C0
03C0
0C00
0C00
0C00
0C00
3FC0
3FC0
0C00
0C00
0C00
0C00
3000
3000
3FF0
3FF0
0000
0000
0000
0000
0000
0000
ENDCHAR
STARTCHAR char31
ENCODING 31
SWIDTH 994 0
DWIDTH 14 0
BBX 14 26 0 -6
BITMAP
0000
0000
0000
0000
0000
0000
0000
0000
0000
0000
0000
0000
0FC0
0FC0
0000
0000
0000
0000
0000
0000
0000
0000
0000
0000
0000
0000
ENDCHAR
STARTCHAR char32
ENCODING 32
SWIDTH 994 0
DWIDTH 14 0
BBX 14 26 0 -6
BITMAP
0000
0000
0000
0000
0000
0000
0000
0000
0000
0000
0000
0000
0000
0000
0000
0000
0000
0000
0000
0000
0000
0000
0000
0000
0000
0000
ENDCHAR
STARTCHAR char33
ENCODING 33
SWIDTH 994 0
DWIDTH 14 0
BBX 14 26 0 -6
BITMAP
0000
0000
0000
0000
0300
0300
0300
0300
0300
0300
0300
0300
0300
0300
0300
0300
0000
0000
0300
0300
0000
0000
0000
0000
0000
0000
ENDCHAR
STARTCHAR char34
ENCODING 34
SWIDTH 994 0
DWIDTH 14 0
BBX 14 26 0 -6
BITMAP
0000
0000
0CC0
0CC0
0CC0
0CC0
0CC0
0CC0
0000
0000
0000
0000
0000
0000
0000
0000
0000
0000
0000
0000
0000
0000
0000
0000
0000
0000
ENDCHAR
STARTCHAR char35
ENCODING 35
SWIDTH 994 0
DWIDTH 14 0
BBX 14 26 0 -6
BITMAP
0000
0000
0000
0000
0CC0
0CC0
0CC0
0CC0
3FF0
3FF0
0CC0
0CC0
0CC0
0CC0
3FF0
3FF0
0CC0
0CC0
0CC0
0CC0
0000
0000
0000
0000
0000
0000
ENDCHAR
STARTCHAR char36
ENCODING 36
SWIDTH 994 0
DWIDTH 14 0
BBX 14 26 0 -6
BITMAP
0000
0000
0000
0000
0300
0300
0FF0
0FF0
3300
3300
3300
3300
0FC0
0FC0
0330
0330
0330
0330
3FC0
3FC0
0300
0300
0000
0000
0000
0000
ENDCHAR
STARTCHAR char37
ENCODING 37
SWIDTH 994 0
DWIDTH 14 0
BBX 14 26 0 -6
BITMAP
0000
0000
0000
0000
3030
3030
CCC0
CCC0
30C0
30C0
0300
0300
0300
0300
0C30
0C30
0CCC
0CCC
3030
3030
0000
0000
0000
0000
0000
0000
ENDCHAR
STARTCHAR char38
ENCODING 38
SWIDTH 994 0
DWIDTH 14 0
BBX 14 26 0 -6
BITMAP
0000
0000
0000
0000
3C00
3C00
C300
C300
C300
C300
3C30
3C30
C330
C330
C0C0
C0C0
C0C0
C0C0
3F30
3F30
0000
0000
0000
0000
0000
0000
ENDCHAR
STARTCHAR char39
ENCODING 39
SWIDTH 994 0
DWIDTH 14 0
BBX 14 26 0 -6
BITMAP
0000
0000
0300
0300
0300
0300
0300
0300
0000
0000
0000
0000
0000
0000
0000
0000
0000
0000
0000
0000
0000
0000
0000
0000
0000
0000
ENDCHAR
STARTCHAR char40
ENCODING 40
SWIDTH 994 0
DWIDTH 14 0
BBX 14 26 0 -6
BITMAP
0000
0000
00C0
00C0
0300
0300
0300
0300
0C00
0C00
0C00
0C00
0C00
0C00
0C00
0C00
0C00
0C00
0300
0300
0300
0300
00C0
00C0
0000
0000
ENDCHAR
STARTCHAR char41
ENCODING 41
SWIDTH 994 0
DWIDTH 14 0
BBX 14 26 0 -6
BITMAP
0000
0000
0C00
0C00
0300
0300
0300
0300
00C0
00C0
00C0
00C0
00C0
00C0
00C0
00C0
00C0
00C0
0300
0300
0300
0300
0C00
0C00
0000
0000
ENDCHAR
STARTCHAR char42
ENCODING 42
SWIDTH 994 0
DWIDTH 14 0
BBX 14 26 0 -6
BITMAP
0000
0000
0000
0000
0000
0000
0000
0000
0300
0300
3330
3330
0FC0
0FC0
3330
3330
0300
0300
0000
0000
0000
0000
0000
0000
0000
0000
ENDCHAR
STARTCHAR char43
ENCODING 43
SWIDTH 994 0
DWIDTH 14 0
BBX 14 26 0 -6
BITMAP
0000
0000
0000
0000
0000
0000
0000
0000
0300
0300
0300
0300
3FF0
3FF0
0300
0300
0300
0300
0000
0000
0000
0000
0000
0000
0000
0000
ENDCHAR
STARTCHAR char44
ENCODING 44
SWIDTH 994 0
DWIDTH 14 0
BBX 14 26 0 -6
BITMAP
0000
0000
0000
0000
0000
0000
0000
0000
0000
0000
0000
0000
0000
0000
0000
0000
0C00
0C00
0C00
0C00
0C00
0C00
3000
3000
0000
0000
ENDCHAR
STARTCHAR char45
ENCODING 45
SWIDTH 994 0
DWIDTH 14 0
BBX 14 26 0 -6
BITMAP
0000
0000
0000
0000
0000
0000
0000
0000
0000
0000
0000
0000
3FF0
3FF0
0000
0000
0000
0000
0000
0000
0000
0000
0000
0000
0000
0000
ENDCHAR
STARTCHAR char46
ENCODING 46
SWIDTH 994 0
DWIDTH 14 0
BBX 14 26 0 -6
BITMAP
0000
0000
0000
0000
0000
0000
0000
0000
0000
0000
0000
0000
0000
0000
0000
0000
0C00
0C00
0C00
0C00
0000
0000
0000
0000
0000
0000
ENDCHAR
STARTCHAR char47
ENCODING 47
SWIDTH 994 0
DWIDTH 14 0
BBX 14 26 0 -6
BITMAP
0000
0000
0030
0030
0030
0030
00C0
00C0
00C0
00C0
0300
0300
0300
0300
0C00
0C00
0C00
0C00
3000
3000
3000
3000
0000
0000
0000
0000
ENDCHAR
STARTCHAR char48
ENCODING 48
SWIDTH 994 0
DWIDTH 14 0
BBX 14 26 0 -6
BITMAP
0000
0000
0000
0000
0FC0
0FC0
3030
3030
3030
3030
3330
3330
3330
3330
3030
3030
3030
3030
0FC0
0FC0
0000
0000
0000
0000
0000
0000
ENDCHAR
STARTCHAR char49
ENCODING 49
SWIDTH 994 0
DWIDTH 14 0
BBX 14 26 0 -6
BITMAP
0000
0000
0000
0000
0300
0300
0F00
0F00
3300
3300
0300
0300
0300
0300
0300
0300
0300
0300
3FF0
3FF0
0000
0000
0000
0000
0000
0000
ENDCHAR
STARTCHAR char50
ENCODING 50
SWIDTH 994 0
DWIDTH 14 0
BBX 14 26 0 -6
BITMAP
0000
0000
0000
0000
0FC0
0FC0
3030
3030
0030
0030
00C0
00C0
0300
0300
0C00
0C00
3000
3000
3FF0
3FF0
0000
0000
0000
0000
0000
0000
ENDCHAR
STARTCHAR char51
ENCODING 51
SWIDTH 994 0
DWIDTH 14 0
BBX 14 26 0 -6
BITMAP
0000
0000
0000
0000
0FC0
0FC0
3030
3030
0030
0030
03C0
03C0
0030
0030
0030
0030
3030
3030
0FC0
0FC0
0000
0000
0000
0000
0000
0000
ENDCHAR
STARTCHAR char52
ENCODING 52
SWIDTH 994 0
DWIDTH 14 0
BBX 14 26 0 -6
BITMAP
0000
0000
0000
0000
00C0
00C0
03C0
03C0
0CC0
0CC0
30C0
30C0
C0C0
C0C0
FFF0
FFF0
00C0
00C0
00C0
00C0
0000
0000
0000
0000
0000
0000
ENDCHAR
STARTCHAR char53
ENCODING 53
SWIDTH 994 0
DWIDTH 14 0
BBX 14 26 0 -6
BITMAP
0000
0000
0000
0000
3FF0
3FF0
3000
3000
3000
3000
3FC0
3FC0
0030
0030
0030
0030
3030
3030
0FC0
0FC0
0000
0000
0000
0000
0000
0000
ENDCHAR
STARTCHAR char54
ENCODING 54
SWIDTH 994 0
DWIDTH 14 0
BBX 14 26 0 -6
BITMAP
0000
0000
0000
0000
03C0
03C0
0C00
0C00
3000
3000
3FC0
3FC0
3030
3030
3030
3030
3030
3030
0FC0
0FC0
0000
0000
0000
0000
0000
0000
ENDCHAR
STARTCHAR char55
ENCODING 55
SWIDTH 994 0
DWIDTH 14 0
BBX 14 26 0 -6
BITMAP
0000
0000
0000
0000
3FF0
3FF0
0030
0030
00C0
00C0
00C0
00C0
0300
0300
0300
0300
0C00
0C00
0C00
0C00
0000
0000
0000
0000
0000
0000
ENDCHAR
STARTCHAR char56
ENCODING 56
SWIDTH 994 0
DWIDTH 14 0
BBX 14 26 0 -6
BITMAP
0000
0000
0000
0000
0FC0
0FC0
3030
3030
3030
3030
0FC0
0FC0
3030
3030
3030
3030
3030
3030
0FC0
0FC0
0000
0000
0000
0000
0000
0000
ENDCHAR
STARTCHAR char57
ENCODING 57
SWIDTH 994 0
DWIDTH 14 0
BBX 14 26 0 -6
BITMAP
0000
0000
0000
0000
0FC0
0FC0
3030
3030
3030
3030
3030
3030
0FF0
0FF0
0030
0030
00C0
00C0
0F00
0F00
0000
0000
0000
0000
0000
0000
ENDCHAR
STARTCHAR char58
ENCODING 58
SWIDTH 994 0
DWIDTH 14 0
BBX 14 26 0 -6
BITMAP
0000
0000
0000
0000
0000
0000
0000
0000
0300
0300
0300
0300
0000
0000
0000
0000
0300
0300
0300
0300
0000
0000
0000
0000
0000
0000
ENDCHAR
STARTCHAR char59
ENCODING 59
SWIDTH 994 0
DWIDTH 14 0
BBX 14 26 0 -6
BITMAP
0000
0000
0000
0000
0000
0000
0000
0000
0C00
0C00
0C00
0C00
0000
0000
0000
0000
0C00
0C00
0C00
0C00
0C00
0C00
3000
3000
0000
0000
ENDCHAR
STARTCHAR char60
ENCODING 60
SWIDTH 994 0
DWIDTH 14 0
BBX 14 26 0 -6
BITMAP
0000
0000
0000
0000
0000
0000
0030
0030
00C0
00C0
0300
0300
0C00
0C00
0300
0300
00C0
00C0
0030
0030
0000
0000
0000
0000
0000
0000
ENDCHAR
STARTCHAR char61
ENCODING 61
SWIDTH 994 0
DWIDTH 14 0
BBX 14 26 0 -6
BITMAP
0000
0000
0000
0000
0000
0000
0000
0000
0000
0000
3FF0
3FF0
0000
0000
3FF0
3FF0
0000
0000
0000
0000
0000
0000
0000
0000
0000
0000
ENDCHAR
STARTCHAR char62
ENCODING 62
SWIDTH 994 0
DWIDTH 14 0
BBX 14 26 0 -6
BITMAP
0000
0000
0000
0000
0000
0000
3000
3000
0C00
0C00
0300
0300
00C0
00C0
0300
0300
0C00
0C00
3000
3000
0000
0000
0000
0000
0000
0000
ENDCHAR
STARTCHAR char63
ENCODING 63
SWIDTH 994 0
DWIDTH 14 0
BBX 14 26 0 -6
BITMAP
0000
0000
0000
0000
0FC0
0FC0
3030
3030
0030
0030
00C0
00C0
0300
0300
0300
0300
0000
0000
0300
0300
0000
0000
0000
0000
0000
0000
ENDCHAR
STARTCHAR char64
ENCODING 64
SWIDTH 994 0
DWIDTH 14 0
BBX 14 26 0 -6
BITMAP
0000
0000
0000
0000
0FC0
0FC0
3030
3030
C3CC
C3CC
CCCC
CCCC
CCCC
CCCC
C3F0
C3F0
3000
3000
0FF0
0FF0
0000
0000
0000
0000
0000
0000
ENDCHAR
STARTCHAR char65
ENCODING 65
SWIDTH 994 0
DWIDTH 14 0
BBX 14 26 0 -6
BITMAP
0000
0000
0000
0000
03C0
03C0
03C0
03C0
0C30
0C30
0C30
0C30
0FF0
0FF0
300C
300C
300C
300C
300C
300C
0000
0000
0000
0000
0000
0000
ENDCHAR
STARTCHAR char66
ENCODING 66
SWIDTH 994 0
DWIDTH 14 0
BBX 14 26 0 -6
BITMAP
0000
0000
0000
0000
3FC0
3FC0
3030
3030
3030
3030
3FF0
3FF0
300C
300C
300C
300C
300C
300C
3FF0
3FF0
0000
0000
0000
0000
0000
0000
ENDCHAR
STARTCHAR char67
ENCODING 67
SWIDTH 994 0
DWIDTH 14 0
BBX 14 26 0 -6
BITMAP
0000
0000
0000
0000
03F0
03F0
0C0C
0C0C
3000
3000
3000
3000
3000
3000
3000
3000
0C0C
0C0C
03F0
03F0
0000
0000
0000
0000
0000
0000
ENDCHAR
STARTCHAR char68
ENCODING 68
SWIDTH 994 0
DWIDTH 14 0
BBX 14 26 0 -6
BITMAP
0000
0000
0000
0000
3FC0
3FC0
3030
3030
300C
300C
300C
300C
300C
300C
300C
300C
3030
3030
3FC0
3FC0
0000
0000
0000
0000
0000
0000
ENDCHAR
STARTCHAR char69
ENCODING 69
SWIDTH 994 0
DWIDTH 14 0
BBX 14 26 0 -6
BITMAP
0000
0000
0000
0000
3FFC
3FFC
3000
3000
3000
3000
3FF0
3FF0
3000
3000
3000
3000
3000
3000
3FFC
3FFC
0000
0000
0000
0000
0000
0000
ENDCHAR
STARTCHAR char70
ENCODING 70
SWIDTH 994 0
DWIDTH 14 0
BBX 14 26 0 -6
BITMAP
0000
0000
0000
0000
3FF0
3FF0
3000
3000
3000
3000
3FC0
3FC0
3000
3000
3000
3000
3000
3000
3000
3000
0000
0000
0000
0000
0000
0000
ENDCHAR
STARTCHAR char71
ENCODING 71
SWIDTH 994 0
DWIDTH 14 0
BBX 14 26 0 -6
BITMAP
0000
0000
0000
0000
03F0
03F0
0C0C
0C0C
3000
3000
3000
3000
30FC
30FC
300C
300C
0C0C
0C0C
03F0
03F0
0000
0000
0000
0000
0000
0000
ENDCHAR
STARTCHAR char72
ENCODING 72
SWIDTH 994 0
DWIDTH 14 0
BBX 14 26 0 -6
BITMAP
0000
0000
0000
0000
300C
300C
300C
300C
300C
300C
3FFC
3FFC
300C
300C
300C
300C
300C
300C
300C
300C
0000
0000
0000
0000
0000
0000
ENDCHAR
STARTCHAR char73
ENCODING 73
SWIDTH 994 0
DWIDTH 14 0
BBX 14 26 0 -6
BITMAP
0000
0000
0000
0000
0FC0
0FC0
0300
0300
0300
0300
0300
0300
0300
0300
0300
0300
0300
0300
0FC0
0FC0
0000
0000
0000
0000
0000
0000
ENDCHAR
STARTCHAR char74
ENCODING 74
SWIDTH 994 0
DWIDTH 14 0
BBX 14 26 0 -6
BITMAP
0000
0000
0000
0000
03F0
03F0
0030
0030
0030
0030
0030
0030
0030
0030
0030
0030
3030
3030
0FC0
0FC0
0000
0000
0000
0000
0000
0000
ENDCHAR
STARTCHAR char75
ENCODING 75
SWIDTH 994 0
DWIDTH 14 0
BBX 14 26 0 -6
BITMAP
0000
0000
0000
0000
300C
300C
3030
3030
30C0
30C0
3F00
3F00
3300
3300
30C0
30C0
3030
3030
300C
300C
0000
0000
0000
0000
0000
0000
ENDCHAR
STARTCHAR char76
ENCODING 76
SWIDTH 994 0
DWIDTH 14 0
BBX 14 26 0 -6
BITMAP
0000
0000
0000
0000
3000
3000
3000
3000
3000
3000
3000
3000
3000
3000
3000
3000
3000
3000
3FF0
3FF0
0000
0000
0000
0000
0000
0000
ENDCHAR
STARTCHAR char77
ENCODING 77
SWIDTH 994 0
DWIDTH 14 0
BBX 14 26 0 -6
BITMAP
0000
0000
0000
0000
300C
300C
3C3C
3C3C
3C3C
3C3C
33CC
33CC
33CC
33CC
300C
300C
300C
300C
300C
300C
0000
0000
0000
0000
0000
0000
ENDCHAR
STARTCHAR char78
ENCODING 78
SWIDTH 994 0
DWIDTH 14 0
BBX 14 26 0 -6
BITMAP
0000
0000
0000
0000
3C0C
3C0C
3C0C
3C0C
330C
330C
330C
330C
30CC
30CC
30CC
30CC
303C
303C
303C
303C
0000
0000
0000
0000
0000
0000
ENDCHAR
STARTCHAR char79
ENCODING 79
SWIDTH 994 0
DWIDTH 14 0
BBX 14 26 0 -6
BITMAP
0000
0000
0000
0000
03C0
03C0
0C30
0C30
300C
300C
300C
300C
300C
300C
300C
300C
0C30
0C30
03C0
03C0
0000
0000
0000
0000
0000
0000
ENDCHAR
STARTCHAR char80
ENCODING 80
SWIDTH 994 0
DWIDTH 14 0
BBX 14 26 0 -6
BITMAP
0000
0000
0000
0000
3FC0
3FC0
3030
3030
3030
3030
3030
3030
3FC0
3FC0
3000
3000
3000
3000
3000
3000
0000
0000
0000
0000
0000
0000
ENDCHAR
STARTCHAR char81
ENCODING 81
SWIDTH 994 0
DWIDTH 14 0
BBX 14 26 0 -6
BITMAP
0000
0000
0000
0000
03C0
03C0
0C30
0C30
300C
300C
300C
300C
300C
300C
300C
300C
0C30
0C30
03CC
03CC
000C
000C
0000
0000
0000
0000
ENDCHAR
STARTCHAR char82
ENCODING 82
SWIDTH 994 0
DWIDTH 14 0
BBX 14 26 0 -6
BITMAP
0000
0000
0000
0000
3FC0
3FC0
3030
3030
3030
3030
3030
3030
3FC0
3FC0
30C0
30C0
3030
3030
300C
300C
0000
0000
0000
0000
0000
0000
ENDCHAR
STARTCHAR char83
ENCODING 83
SWIDTH 994 0
DWIDTH 14 0
BBX 14 26 0 -6
BITMAP
0000
0000
0000
0000
0FF0
0FF0
300C
300C
3000
3000
0F00
0F00
00F0
00F0
000C
000C
300C
300C
0FF0
0FF0
0000
0000
0000
0000
0000
0000
ENDCHAR
STARTCHAR char84
ENCODING 84
SWIDTH 994 0
DWIDTH 14 0
BBX 14 26 0 -6
BITMAP
0000
0000
0000
0000
FFFC
FFFC
0300
0300
0300
0300
0300
0300
0300
0300
0300
0300
0300
0300
0300
0300
0000
0000
0000
0000
0000
0000
ENDCHAR
STARTCHAR char85
ENCODING 85
SWIDTH 994 0
DWIDTH 14 0
BBX 14 26 0 -6
BITMAP
0000
0000
0000
0000
300C
300C
300C
300C
300C
300C
300C
300C
300C
300C
300C
300C
300C
300C
0FF0
0FF0
0000
0000
0000
0000
0000
0000
ENDCHAR
STARTCHAR char86
ENCODING 86
SWIDTH 994 0
DWIDTH 14 0
BBX 14 26 0 -6
BITMAP
0000
0000
0000
0000
300C
300C
300C
300C
300C
300C
0C30
0C30
0C30
0C30
0C30
0C30
03C0
03C0
03C0
03C0
0000
0000
0000
0000
0000
0000
ENDCHAR
STARTCHAR char87
ENCODING 87
SWIDTH 994 0
DWIDTH 14 0
BBX 14 26 0 -6
BITMAP
0000
0000
0000
0000
C00C
C00C
C30C
C30C
C30C
C30C
CCCC
CCCC
CCCC
CCCC
3030
3030
3030
3030
3030
3030
0000
0000
0000
0000
0000
0000
ENDCHAR
STARTCHAR char88
ENCODING 88
SWIDTH 994 0
DWIDTH 14 0
BBX 14 26 0 -6
BITMAP
0000
0000
0000
0000
300C
300C
300C
300C
0C30
0C30
03C0
03C0
03C0
03C0
0C30
0C30
300C
300C
300C
300C
0000
0000
0000
0000
0000
0000
ENDCHAR
STARTCHAR char89
ENCODING 89
SWIDTH 994 0
DWIDTH 14 0
BBX 14 26 0 -6
BITMAP
0000
0000
0000
0000
C00C
C00C
C00C
C00C
3030
3030
0CC0
0CC0
0300
0300
0300
0300
0300
0300
0300
0300
0000
0000
0000
0000
0000
0000
ENDCHAR
STARTCHAR char90
ENCODING 90
SWIDTH 994 0
DWIDTH 14 0
BBX 14 26 0 -6
BITMAP
0000
0000
0000
0000
3FFC
3FFC
000C
000C
0030
0030
00C0
00C0
0300
0300
0C00
0C00
3000
3000
3FFC
3FFC
0000
0000
0000
0000
0000
0000
ENDCHAR
STARTCHAR char91
ENCODING 91
SWIDTH 994 0
DWIDTH 14 0
BBX 14 26 0 -6
BITMAP
0000
0000
0FC0
0FC0
0C00
0C00
0C00
0C00
0C00
0C00
0C00
0C00
0C00
0C00
0C00
0C00
0C00
0C00
0C00
0C00
0C00
0C00
0FC0
0FC0
0000
0000
ENDCHAR
STARTCHAR char92
ENCODING 92
SWIDTH 994 0
DWIDTH 14 0
BBX 14 26 0 -6
BITMAP
0000
0000
3000
3000
3000
3000
0C00
0C00
0C00
0C00
0300
0300
0300
0300
00C0
00C0
00C0
00C0
0030
0030
0030
0030
0000
0000
0000
0000
ENDCHAR
STARTCHAR char93
ENCODING 93
SWIDTH 994 0
DWIDTH 14 0
BBX 14 26 0 -6
BITMAP
0000
0000
0FC0
0FC0
00C0
00C0
00C0
00C0
00C0
00C0
00C0
00C0
00C0
00C0
00C0
00C0
00C0
00C0
00C0
00C0
00C0
00C0
0FC0
0FC0
0000
0000
ENDCHAR
STARTCHAR char94
ENCODING 94
SWIDTH 994 0
DWIDTH 14 0
BBX 14 26 0 -6
BITMAP
0000
0000
0300
0300
0300
0300
0CC0
0CC0
0CC0
0CC0
3030
3030
3030
3030
0000
0000
0000
0000
0000
0000
0000
0000
0000
0000
0000
0000
ENDCHAR
STARTCHAR char95
ENCODING 95
SWIDTH 994 0
DWIDTH 14 0
BBX 14 26 0 -6
BITMAP
0000
0000
0000
0000
0000
0000
0000
0000
0000
0000
0000
0000
0000
0000
0000
0000
0000
0000
0000
0000
FFFC
FFFC
0000
0000
0000
0000
ENDCHAR
STARTCHAR char96
ENCODING 96
SWIDTH 994 0
DWIDTH 14 0
BBX 14 26 0 -6
BITMAP
0000
0000
0C00
0C00
0300
0300
0000
0000
0000
0000
0000
0000
0000
0000
0000
0000
0000
0000
0000
0000
0000
0000
0000
0000
0000
0000
ENDCHAR
STARTCHAR char97
ENCODING 97
SWIDTH 994 0
DWIDTH 14 0
BBX 14 26 0 -6
BITMAP
0000
0000
0000
0000
0000
0000
0000
0000
0FC0
0FC0
0030
0030
0FF0
0FF0
3030
3030
3030
3030
0FF0
0FF0
0000
0000
0000
0000
0000
0000
ENDCHAR
STARTCHAR char98
ENCODING 98
SWIDTH 994 0
DWIDTH 14 0
BBX 14 26 0 -6
BITMAP
0000
0000
3000
3000
3000
3000
3000
3000
3FC0
3FC0
3030
3030
3030
3030
3030
3030
3030
3030
3FC0
3FC0
0000
0000
0000
0000
0000
0000
ENDCHAR
STARTCHAR char99
ENCODING 99
SWIDTH 994 0
DWIDTH 14 0
BBX 14 26 0 -6
BITMAP
0000
0000
0000
0000
0000
0000
0000
0000
0FC0
0FC0
3030
3030
3000
3000
3000
3000
3030
3030
0FC0
0FC0
0000
0000
0000
0000
0000
0000
ENDCHAR
STARTCHAR char100
ENCODING 100
SWIDTH 994 0
DWIDTH 14 0
BBX 14 26 0 -6
BITMAP
0000
0000
0030
0030
0030
0030
0030
0030
0FF0
0FF0
3030
3030
3030
3030
3030
3030
3030
3030
0FF0
0FF0
0000
0000
0000
0000
0000
0000
ENDCHAR
STARTCHAR char101
ENCODING 101
SWIDTH 994 0
DWIDTH 14 0
BBX 14 26 0 -6
BITMAP
0000
0000
0000
0000
0000
0000
0000
0000
0FC0
0FC0
3030
3030
3FF0
3FF0
3000
3000
3030
3030
0FC0
0FC0
0000
0000
0000
0000
0000
0000
ENDCHAR
STARTCHAR char102
ENCODING 102
SWIDTH 994 0
DWIDTH 14 0
BBX 14 26 0 -6
BITMAP
0000
0000
03F0
03F0
0C00
0C00
0C00
0C00
3FC0
3FC0
0C00
0C00
0C00
0C00
0C00
0C00
0C00
0C00
0C00
0C00
0000
0000
0000
0000
0000
0000
ENDCHAR
STARTCHAR char103
ENCODING 103
SWIDTH 994 0
DWIDTH 14 0
BBX 14 26 0 -6
BITMAP
0000
0000
0000
0000
0000
0000
0000
0000
0FF0
0FF0
3030
3030
3030
3030
3030
3030
3030
3030
0FF0
0FF0
0030
0030
0030
0030
0FC0
0FC0
ENDCHAR
STARTCHAR char104
ENCODING 104
SWIDTH 994 0
DWIDTH 14 0
BBX 14 26 0 -6
BITMAP
0000
0000
3000
3000
3000
3000
3000
3000
3FC0
3FC0
3030
3030
3030
3030
3030
3030
3030
3030
3030
3030
0000
0000
0000
0000
0000
0000
ENDCHAR
STARTCHAR char105
ENCODING 105
SWIDTH 994 0
DWIDTH 14 0
BBX 14 26 0 -6
BITMAP
0000
0000
0300
0300
0000
0000
0000
0000
0F00
0F00
0300
0300
0300
0300
0300
0300
0300
0300
0300
0300
0000
0000
0000
0000
0000
0000
ENDCHAR
STARTCHAR char106
ENCODING 106
SWIDTH 994 0
DWIDTH 14 0
BBX 14 26 0 -6
BITMAP
0000
0000
00C0
00C0
0000
0000
0000
0000
03C0
03C0
00C0
00C0
00C0
00C0
00C0
00C0
00C0
00C0
00C0
00C0
00C0
00C0
3F00
3F00
0000
0000
ENDCHAR
STARTCHAR char107
ENCODING 107
SWIDTH 994 0
DWIDTH 14 0
BBX 14 26 0 -6
BITMAP
0000
0000
3000
3000
3000
3000
3000
3000
3030
3030
30C0
30C0
3300
3300
3F00
3F00
30C0
30C0
3030
3030
0000
0000
0000
0000
0000
0000
ENDCHAR
STARTCHAR char108
ENCODING 108
SWIDTH 994 0
DWIDTH 14 0
BBX 14 26 0 -6
BITMAP
0000
0000
0F00
0F00
0300
0300
0300
0300
0300
0300
0300
0300
0300
0300
0300
0300
0300
0300
0300
0300
0000
0000
0000
0000
0000
0000
ENDCHAR
STARTCHAR char109
ENCODING 109
SWIDTH 994 0
DWIDTH 14 0
BBX 14 26 0 -6
BITMAP
0000
0000
0000
0000
0000
0000
0000
0000
FCF0
FCF0
C30C
C30C
C30C
C30C
C30C
C30C
C30C
C30C
C30C
C30C
0000
0000
0000
0000
0000
0000
ENDCHAR
STARTCHAR char110
ENCODING 110
SWIDTH 994 0
DWIDTH 14 0
BBX 14 26 0 -6
BITMAP
0000
0000
0000
0000
0000
0000
0000
0000
3FC0
3FC0
3030
3030
3030
3030
3030
3030
3030
3030
3030
3030
0000
0000
0000
0000
0000
0000
ENDCHAR
STARTCHAR char111
ENCODING 111
SWIDTH 994 0
DWIDTH 14 0
BBX 14 26 0 -6
BITMAP
0000
0000
0000
0000
0000
0000
0000
0000
0FC0
0FC0
3030
3030
3030
3030
3030
3030
3030
3030
0FC0
0FC0
0000
0000
0000
0000
0000
0000
ENDCHAR
STARTCHAR char112
ENCODING 112
SWIDTH 994 0
DWIDTH 14 0
BBX 14 26 0 -6
BITMAP
0000
0000
0000
0000
0000
0000
0000
0000
3FC0
3FC0
3030
3030
3030
3030
3030
3030
3030
3030
3FC0
3FC0
3000
3000
3000
3000
3000
3000
ENDCHAR
STARTCHAR char113
ENCODING 113
SWIDTH 994 0
DWIDTH 14 0
BBX 14 26 0 -6
BITMAP
0000
0000
0000
0000
0000
0000
0000
0000
0FF0
0FF0
3030
3030
3030
3030
3030
3030
3030
3030
0FF0
0FF0
0030
0030
0030
0030
0030
0030
ENDCHAR
STARTCHAR char114
ENCODING 114
SWIDTH 994 0
DWIDTH 14 0
BBX 14 26 0 -6
BITMAP
0000
0000
0000
0000
0000
0000
0000
0000
33C0
33C0
3C30
3C30
3000
3000
3000
3000
3000
3000
3000
3000
0000
0000
0000
0000
0000
0000
ENDCHAR
STARTCHAR char115
ENCODING 115
SWIDTH 994 0
DWIDTH 14 0
BBX 14 26 0 -6
BITMAP
0000
0000
0000
0000
0000
0000
0000
0000
0FF0
0FF0
3000
3000
0F00
0F00
00C0
00C0
0030
0030
3FC0
3FC0
0000
0000
0000
0000
0000
0000
ENDCHAR
STARTCHAR char116
ENCODING 116
SWIDTH 994 0
DWIDTH 14 0
BBX 14 26 0 -6
BITMAP
0000
0000
0000
0000
0C00
0C00
0C00
0C00
3FC0
3FC0
0C00
0C00
0C00
0C00
0C00
0C00
0C00
0C00
03F0
03F0
0000
0000
0000
0000
0000
0000
ENDCHAR
STARTCHAR char117
ENCODING 117
SWIDTH 994 0
DWIDTH 14 0
BBX 14 26 0 -6
BITMAP
0000
0000
0000
0000
0000
0000
0000
0000
3030
3030
3030
3030
3030
3030
3030
3030
3030
3030
0FF0
0FF0
0000
0000
0000
0000
0000
0000
ENDCHAR
STARTCHAR char118
ENCODING 118
SWIDTH 994 0
DWIDTH 14 0
BBX 14 26 0 -6
BITMAP
0000
0000
0000
0000
0000
0000
0000
0000
3030
3030
3030
3030
0CC0
0CC0
0CC0
0CC0
0300
0300
0300
0300
0000
0000
0000
0000
0000
0000
ENDCHAR
STARTCHAR char119
ENCODING 119
SWIDTH 994 0
DWIDTH 14 0
BBX 14 26 0 -6
BITMAP
0000
0000
0000
0000
0000
0000
0000
0000
C00C
C00C
C30C
C30C
C30C
C30C
CCCC
CCCC
3CF0
3CF0
3030
3030
0000
0000
0000
0000
0000
0000
ENDCHAR
STARTCHAR char120
ENCODING 120
SWIDTH 994 0
DWIDTH 14 0
BBX 14 26 0 -6
BITMAP
0000
0000
0000
0000
0000
0000
0000
0000
3030
3030
0CC0
0CC0
0300
0300
0300
0300
0CC0
0CC0
3030
3030
0000
0000
0000
0000
0000
0000
ENDCHAR
STARTCHAR char121
ENCODING 121
SWIDTH 994 0
DWIDTH 14 0
BBX 14 26 0 -6
BITMAP
0000
0000
0000
0000
0000
0000
0000
0000
3030
3030
3030
3030
3030
3030
3030
3030
3030
3030
0FF0
0FF0
0030
0030
3030
3030
0FC0
0FC0
ENDCHAR
STARTCHAR char122
ENCODING 122
SWIDTH 994 0
DWIDTH 14 0
BBX 14 26 0 -6
BITMAP
0000
0000
0000
0000
0000
0000
0000
0000
3FF0
3FF0
0030
0030
00C0
00C0
0300
0300
0C00
0C00
3FF0
3FF0
0000
0000
0000
0000
0000
0000
ENDCHAR
STARTCHAR char123
ENCODING 123
SWIDTH 994 0
DWIDTH 14 0
BBX 14 26 0 -6
BITMAP
0000
0000
00F0
00F0
0300
0300
0300
0300
0300
0300
0300
0300
3C00
3C00
0300
0300
0300
0300
0300
0300
0300
0300
00F0
00F0
0000
0000
ENDCHAR
STARTCHAR char124
ENCODING 124
SWIDTH 994 0
DWIDTH 14 0
BBX 14 26 0 -6
BITMAP
0000
0000
0300
0300
0300
0300
0300
0300
0300
0300
0300
0300
0300
0300
0300
0300
0300
0300
0300
0300
0300
0300
0300
0300
0000
0000
ENDCHAR
STARTCHAR char125
ENCODING 125
SWIDTH 994 0
DWIDTH 14 0
BBX 14 26 0 -6
BITMAP
0000
0000
3C00
3C00
0300
0300
0300
0300
0300
0300
0300
0300
00F0
00F0
0300
0300
0300
0300
0300
0300
0300
0300
3C00
3C00
0000
0000
ENDCHAR
STARTCHAR char126
ENCODING 126
SWIDTH 994 0
DWIDTH 14 0
BBX 14 26 0 -6
BITMAP
0000
0000
0000
0000
0000
0000
0000
0000
0000
0000
3F0C
3F0C
C3F0
C3F0
0000
0000
0000
0000
0000
0000
0000
0000
0000
0000
0000
0000
ENDCHAR
STARTCHAR char127
ENCODING 127
SWIDTH 994 0
DWIDTH 14 0
BBX 14 26 0 -6
BITMAP
0000
0000
0000
0000
0000
0000
0000
0000
0000
0000
0000
0000
0000
0000
0000
0000
0000
0000
0000
0000
0000
0000
0000
0000
0000
0000
ENDCHAR
STARTCHAR char128
ENCODING 128
SWIDTH 994 0
DWIDTH 14 0
BBX 14 26 0 -6
BITMAP
0000
0000
0000
0000
0000
0000
03F0
03F0
0C0C
0C0C
3FC0
3FC0
0C00
0C00
3FC0
3FC0
0C0C
0C0C
03F0
03F0
0000
0000
0000
0000
0000
0000
ENDCHAR
STARTCHAR char129
ENCODING 129
SWIDTH 994 0
DWIDTH 14 0
BBX 14 26 0 -6
BITMAP
0000
0000
0000
0000
0000
0000
0000
0000
0000
0000
0000
0000
0000
0000
0000
0000
0000
0000
0000
0000
0000
0000
0000
0000
0000
0000
ENDCHAR
STARTCHAR char130
ENCODING 130
SWIDTH 994 0
DWIDTH 14 0
BBX 14 26 0 -6
BITMAP
0000
0000
0000
0000
0000
0000
0000
0000
0000
0000
0000
0000
0000
0000
0000
0000
0300
0300
0300
0300
0300
0300
0C00
0C00
0000
0000
ENDCHAR
STARTCHAR char131
ENCODING 131
SWIDTH 994 0
DWIDTH 14 0
BBX 14 26 0 -6
BITMAP
0000
0000
00F0
00F0
0300
0300
0300
0300
0FF0
0FF0
0300
0300
0300
0300
0300
0300
0300
0300
0300
0300
0300
0300
3C00
3C00
0000
0000
ENDCHAR
STARTCHAR char132
ENCODING 132
SWIDTH 994 0
DWIDTH 14 0
BBX 14 26 0 -6
BITMAP
0000
0000
0000
0000
0000
0000
0000
0000
0000
0000
0000
0000
0000
0000
0000
0000
0CC0
0CC0
0CC0
0CC0
0CC0
0CC0
0000
0000
0000
0000
ENDCHAR
STARTCHAR char133
ENCODING 133
SWIDTH 994 0
DWIDTH 14 0
BBX 14 26 0 -6
BITMAP
0000
0000
0000
0000
0000
0000
0000
0000
0000
0000
0000
0000
0000
0000
0000
0000
0000
0000
3330
3330
0000
0000
0000
0000
0000
0000
ENDCHAR
STARTCHAR char134
ENCODING 134
SWIDTH 994 0
DWIDTH 14 0
BBX 14 26 0 -6
BITMAP
0000
0000
0300
0300
0300
0300
3FF0
3FF0
0300
0300
0300
0300
0300
0300
0300
0300
0300
0300
0300
0300
0000
0000
0000
0000
0000
0000
ENDCHAR
STARTCHAR char135
ENCODING 135
SWIDTH 994 0
DWIDTH 14 0
BBX 14 26 0 -6
BITMAP
0000
0000
0300
0300
0300
0300
3FF0
3FF0
0300
0300
3FF0
3FF0
0300
0300
0300
0300
0300
0300
0300
0300
0000
0000
0000
0000
0000
0000
ENDCHAR
STARTCHAR char136
ENCODING 136
SWIDTH 994 0
DWIDTH 14 0
BBX 14 26 0 -6
BITMAP
0000
0000
0300
0300
0CC0
0CC0
3030
3030
0000
0000
0000
0000
0000
0000
0000
0000
0000
0000
0000
0000
0000
0000
0000
0000
0000
0000
ENDCHAR
STARTCHAR char137
ENCODING 137
SWIDTH 994 0
DWIDTH 14 0
BBX 14 26 0 -6
BITMAP
0000
0000
0000
0000
00C0
00C0
30C0
30C0
3300
3300
0300
0300
0C00
0C00
0CCC
0CCC
30CC
30CC
3000
3000
0000
0000
0000
0000
0000
0000
ENDCHAR
STARTCHAR char138
ENCODING 138
SWIDTH 994 0
DWIDTH 14 0
BBX 14 26 0 -6
BITMAP
0CC0
0CC0
0300
0300
0FF0
0FF0
300C
300C
3000
3000
0F00
0F00
00F0
00F0
000C
000C
300C
300C
0FF0
0FF0
0000
0000
0000
0000
0000
0000
ENDCHAR
STARTCHAR char139
ENCODING 139
SWIDTH 994 0
DWIDTH 14 0
BBX 14 26 0 -6
BITMAP
0000
0000
0000
0000
0000
0000
0000
0000
0300
0300
0C00
0C00
3000
3000
0C00
0C00
0300
0300
0000
0000
0000
0000
0000
0000
0000
0000
ENDCHAR
STARTCHAR char140
ENCODING 140
SWIDTH 994 0
DWIDTH 14 0
BBX 14 26 0 -6
BITMAP
0000
0000
0000
0000
3CFC
3CFC
C300
C300
C300
C300
C3F0
C3F0
C300
C300
C300
C300
C300
C300
3CFC
3CFC
0000
0000
0000
0000
0000
0000
ENDCHAR
STARTCHAR char141
ENCODING 141
SWIDTH 994 0
DWIDTH 14 0
BBX 14 26 0 -6
BITMAP
0000
0000
0000
0000
0000
0000
0000
0000
0000
0000
0000
0000
0000
0000
0000
0000
0000
0000
0000
0000
0000
0000
0000
0000
0000
0000
ENDCHAR
STARTCHAR char142
ENCODING 142
SWIDTH 994 0
DWIDTH 14 0
BBX 14 26 0 -6
BITMAP
0CC0
0CC0
0300
0300
3FFC
3FFC
000C
000C
0030
0030
00C0
00C0
0300
0300
0C00
0C00
3000
3000
3FFC
3FFC
0000
0000
0000
0000
0000
0000
ENDCHAR
STARTCHAR char143
ENCODING 143
SWIDTH 994 0
DWIDTH 14 0
BBX 14 26 0 -6
BITMAP
0000
0000
0000
0000
0000
0000
0000
0000
0000
0000
0000
0000
0000
0000
0000
0000
0000
0000
0000
0000
0000
0000
0000
0000
0000
0000
ENDCHAR
STARTCHAR char144
ENCODING 144
SWIDTH 994 0
DWIDTH 14 0
BBX 14 26 0 -6
BITMAP
0000
0000
0000
0000
0000
0000
0000
0000
0000
0000
0000
0000
0000
0000
0000
0000
0000
0000
0000
0000
0000
0000
0000
0000
0000
0000
ENDCHAR
STARTCHAR char145
ENCODING 145
SWIDTH 994 0
DWIDTH 14 0
BBX 14 26 0 -6
BITMAP
0000
0000
0300
0300
0300
0300
00C0
00C0
0000
0000
0000
0000
0000
0000
0000
0000
0000
0000
0000
0000
0000
0000
0000
0000
0000
0000
ENDCHAR
STARTCHAR char146
ENCODING 146
SWIDTH 994 0
DWIDTH 14 0
BBX 14 26 0 -6
BITMAP
0000
0000
0300
0300
0300
0300
0C00
0C00
0000
0000
0000
0000
0000
0000
0000
0000
0000
0000
0000
0000
0000
0000
0000
0000
0000
0000
ENDCHAR
STARTCHAR char147
ENCODING 147
SWIDTH 994 0
DWIDTH 14 0
BBX 14 26 0 -6
BITMAP
0000
0000
0CC0
0CC0
0CC0
0CC0
0330
0330
0000
0000
0000
0000
0000
0000
0000
0000
0000
0000
0000
0000
0000
0000
0000
0000
0000
0000
ENDCHAR
STARTCHAR char148
ENCODING 148
SWIDTH 994 0
DWIDTH 14 0
BBX 14 26 0 -6
BITMAP
0000
0000
0CC0
0CC0
0CC0
0CC0
3300
3300
0000
0000
0000
0000
0000
0000
0000
0000
0000
0000
0000
0000
0000
0000
0000
0000
0000
0000
ENDCHAR
STARTCHAR char149
ENCODING 149
SWIDTH 994 0
DWIDTH 14 0
BBX 14 26 0 -6
BITMAP
0000
0000
0000
0000
0000
0000
0000
0000
0300
0300
0FC0
0FC0
3FF0
3FF0
0FC0
0FC0
0300
0300
0000
0000
0000
0000
0000
0000
0000
0000
ENDCHAR
STARTCHAR char150
ENCODING 150
SWIDTH 994 0
DWIDTH 14 0
BBX 14 26 0 -6
BITMAP
0000
0000
0000
0000
0000
0000
0000
0000
0000
0000
0000
0000
3FF0
3FF0
0000
0000
0000
0000
0000
0000
0000
0000
0000
0000
0000
0000
ENDCHAR
STARTCHAR char151
ENCODING 151
SWIDTH 994 0
DWIDTH 14 0
BBX 14 26 0 -6
BITMAP
0000
0000
0000
0000
0000
0000
0000
0000
0000
0000
0000
0000
FFFC
FFFC
0000
0000
0000
0000
0000
0000
0000
0000
0000
0000
0000
0000
ENDCHAR
STARTCHAR char152
ENCODING 152
SWIDTH 994 0
DWIDTH 14 0
BBX 14 26 0 -6
BITMAP
0000
0000
0000
0000
0CC0
0CC0
3300
3300
0000
0000
0000
0000
0000
0000
0000
0000
0000
0000
0000
0000
0000
0000
0000
0000
0000
0000
ENDCHAR
STARTCHAR char153
ENCODING 153
SWIDTH 994 0
DWIDTH 14 0
BBX 14 26 0 -6
BITMAP
0000
0000
0000
0000
FCFC
FCFC
30FC
30FC
30CC
30CC
30CC
30CC
0000
0000
0000
0000
0000
0000
0000
0000
0000
0000
0000
0000
0000
0000
ENDCHAR
STARTCHAR char154
ENCODING 154
SWIDTH 994 0
DWIDTH 14 0
BBX 14 26 0 -6
BITMAP
0000
0000
0CC0
0CC0
0300
0300
0000
0000
0FF0
0FF0
3000
3000
0F00
0F00
00C0
00C0
0030
0030
3FC0
3FC0
0000
0000
0000
0000
0000
0000
ENDCHAR
STARTCHAR char155
ENCODING 155
SWIDTH 994 0
DWIDTH 14 0
BBX 14 26 0 -6
BITMAP
0000
0000
0000
0000
0000
0000
0000
0000
3000
3000
0C00
0C00
0300
0300
0C00
0C00
3000
3000
0000
0000
0000
0000
0000
0000
0000
0000
ENDCHAR
STARTCHAR char156
ENCODING 156
SWIDTH 994 0
DWIDTH 14 0
BBX 14 26 0 -6
BITMAP
0000
0000
0000
0000
0000
0000
0000
0000
3CF0
3CF0
C30C
C30C
C3FC
C3FC
C300
C300
C30C
C30C
3CF0
3CF0
0000
0000
0000
0000
0000
0000
ENDCHAR
STARTCHAR char157
ENCODING 157
SWIDTH 994 0
DWIDTH 14 0
BBX 14 26 0 -6
BITMAP
0000
0000
0000
0000
0000
0000
0000
0000
0000
0000
0000
0000
0000
0000
0000
0000
0000
0000
0000
0000
0000
0000
0000
0000
0000
0000
ENDCHAR
STARTCHAR char158
ENCODING 158
SWIDTH 994 0
DWIDTH 14 0
BBX 14 26 0 -6
BITMAP
0000
0000
0CC0
0CC0
0300
0300
0000
0000
3FF0
3FF0
0030
0030
00C0
00C0
0300
0300
0C00
0C00
3FF0
3FF0
0000
0000
0000
0000
0000
0000
ENDCHAR
STARTCHAR char159
ENCODING 159
SWIDTH 994 0
DWIDTH 14 0
BBX 14 26 0 -6
BITMAP
0000
0000
0CC0
0CC0
0000
0000
C00C
C00C
C00C
C00C
3030
3030
0CC0
0CC0
0300
0300
0300
0300
0300
0300
0000
0000
0000
0000
0000
0000
ENDCHAR
STARTCHAR char160
ENCODING 160
SWIDTH 994 0
DWIDTH 14 0
BBX 14 26 0 -6
BITMAP
0000
0000
0000
0000
0000
0000
0000
0000
0000
0000
0000
0000
0000
0000
0000
0000
0000
0000
0000
0000
0000
0000
0000
0000
0000
0000
ENDCHAR
STARTCHAR char161
ENCODING 161
SWIDTH 994 0
DWIDTH 14 0
BBX 14 26 0 -6
BITMAP
0000
0000
0000
0000
0300
0300
0000
0000
0300
0300
0300
0300
0300
0300
0300
0300
0300
0300
0300
0300
0000
0000
0000
0000
0000
0000
ENDCHAR
STARTCHAR char162
ENCODING 162
SWIDTH 994 0
DWIDTH 14 0
BBX 14 26 0 -6
BITMAP
0000
0000
0000
0000
0000
0000
0300
0300
0FC0
0FC0
3330
3330
3300
3300
3300
3300
3330
3330
0FC0
0FC0
0300
0300
0000
0000
0000
0000
ENDCHAR
STARTCHAR char163
ENCODING 163
SWIDTH 994 0
DWIDTH 14 0
BBX 14 26 0 -6
BITMAP
0000
0000
0000
0000
03C0
03C0
0C00
0C00
0C00
0C00
3FC0
3FC0
0C00
0C00
0C00
0C00
3000
3000
3FF0
3FF0
0000
0000
0000
0000
0000
0000
ENDCHAR
STARTCHAR char164
ENCODING 164
SWIDTH 994 0
DWIDTH 14 0
BBX 14 26 0 -6
BITMAP
0000
0000
0000
0000
0000
0000
C00C
C00C
3FF0
3FF0
3030
3030
3030
3030
3030
3030
3FF0
3FF0
C00C
C00C
0000
0000
0000
0000
0000
0000
ENDCHAR
STARTCHAR char165
ENCODING 165
SWIDTH 994 0
DWIDTH 14 0
BBX 14 26 0 -6
BITMAP
0000
0000
0000
0000
C00C
C00C
C00C
C00C
3030
3030
0CC0
0CC0
0300
0300
3FF0
3FF0
0300
0300
0300
0300
0000
0000
0000
0000
0000
0000
ENDCHAR
STARTCHAR char166
ENCODING 166
SWIDTH 994 0
DWIDTH 14 0
BBX 14 26 0 -6
BITMAP
0000
0000
0300
0300
0300
0300
0300
0300
0300
0300
0300
0300
0000
0000
0300
0300
0300
0300
0300
0300
0300
0300
0300
0300
0000
0000
ENDCHAR
STARTCHAR char167
ENCODING 167
SWIDTH 994 0
DWIDTH 14 0
BBX 14 26 0 -6
BITMAP
0000
0000
0FC0
0FC0
3030
3030
3000
3000
0F00
0F00
0CC0
0CC0
03C0
03C0
0030
0030
3030
3030
0FC0
0FC0
0000
0000
0000
0000
0000
0000
ENDCHAR
STARTCHAR char168
ENCODING 168
SWIDTH 994 0
DWIDTH 14 0
BBX 14 26 0 -6
BITMAP
0000
0000
0CC0
0CC0
0000
0000
0000
0000
0000
0000
0000
0000
0000
0000
0000
0000
0000
0000
0000
0000
0000
0000
0000
0000
0000
0000
ENDCHAR
STARTCHAR char169
ENCODING 169
SWIDTH 994 0
DWIDTH 14 0
BBX 14 26 0 -6
BITMAP
0000
0000
0000
0000
3FF0
3FF0
C00C
C00C
C3CC
C3CC
CC0C
CC0C
CC0C
CC0C
C3CC
C3CC
C00C
C00C
3FF0
3FF0
0000
0000
0000
0000
0000
0000
ENDCHAR
STARTCHAR char170
ENCODING 170
SWIDTH 994 0
DWIDTH 14 0
BBX 14 26 0 -6
BITMAP
0000
0000
0000
0000
0F00
0F00
00C0
00C0
0FC0
0FC0
30C0
30C0
0FC0
0FC0
0000
0000
0000
0000
0000
0000
0000
0000
0000
0000
0000
0000
ENDCHAR
STARTCHAR char171
ENCODING 171
SWIDTH 994 0
DWIDTH 14 0
BBX 14 26 0 -6
BITMAP
0000
0000
0000
0000
0000
0000
0000
0000
0330
0330
0CC0
0CC0
3300
3300
0CC0
0CC0
0330
0330
0000
0000
0000
0000
0000
0000
0000
0000
ENDCHAR
STARTCHAR char172
ENCODING 172
SWIDTH 994 0
DWIDTH 14 0
BBX 14 26 0 -6
BITMAP
0000
0000
0000
0000
0000
0000
0000
0000
0000
0000
0000
0000
3FC0
3FC0
00C0
00C0
00C0
00C0
00C0
00C0
0000
0000
0000
0000
0000
0000
ENDCHAR
STARTCHAR char173
ENCODING 173
SWIDTH 994 0
DWIDTH 14 0
BBX 14 26 0 -6
BITMAP
0000
0000
0000
0000
0000
0000
0000
0000
0000
0000
0000
0000
0000
0000
0000
0000
0000
0000
0000
0000
0000
0000
0000
0000
0000
0000
ENDCHAR
STARTCHAR char174
ENCODING 174
SWIDTH 994 0
DWIDTH 14 0
BBX 14 26 0 -6
BITMAP
0000
0000
0000
0000
3FF0
3FF0
C00C
C00C
CF0C
CF0C
CCCC
CCCC
CF0C
CF0C
CCCC
CCCC
C00C
C00C
3FF0
3FF0
0000
0000
0000
0000
0000
0000
ENDCHAR
STARTCHAR char175
ENCODING 175
SWIDTH 994 0
DWIDTH 14 0
BBX 14 26 0 -6
BITMAP
FFFC
FFFC
0000
0000
0000
0000
0000
0000
0000
0000
0000
0000
0000
0000
0000
0000
0000
0000
0000
0000
0000
0000
0000
0000
0000
0000
ENDCHAR
STARTCHAR char176
ENCODING 176
SWIDTH 994 0
DWIDTH 14 0
BBX 14 26 0 -6
BITMAP
0000
0000
0F00
0F00
30C0
30C0
30C0
30C0
0F00
0F00
0000
0000
0000
0000
0000
0000
0000
0000
0000
0000
0000
0000
0000
0000
0000
0000
ENDCHAR
STARTCHAR char177
ENCODING 177
SWIDTH 994 0
DWIDTH 14 0
BBX 14 26 0 -6
BITMAP
0000
0000
0000
0000
0000
0000
0300
0300
0300
0300
3FF0
3FF0
0300
0300
0300
0300
0000
0000
3FF0
3FF0
0000
0000
0000
0000
0000
0000
ENDCHAR
STARTCHAR char178
ENCODING 178
SWIDTH 994 0
DWIDTH 14 0
BBX 14 26 0 -6
BITMAP
0000
0000
3F00
3F00
00C0
00C0
0300
0300
0C00
0C00
3FC0
3FC0
0000
0000
0000
0000
0000
0000
0000
0000
0000
0000
0000
0000
0000
0000
ENDCHAR
STARTCHAR char179
ENCODING 179
SWIDTH 994 0
DWIDTH 14 0
BBX 14 26 0 -6
BITMAP
0000
0000
3F00
3F00
00C0
00C0
0F00
0F00
00C0
00C0
3F00
3F00
0000
0000
0000
0000
0000
0000
0000
0000
0000
0000
0000
0000
0000
0000
ENDCHAR
STARTCHAR char180
ENCODING 180
SWIDTH 994 0
DWIDTH 14 0
BBX 14 26 0 -6
BITMAP
0000
0000
00C0
00C0
0300
0300
0000
0000
0000
0000
0000
0000
0000
0000
0000
0000
0000
0000
0000
0000
0000
0000
0000
0000
0000
0000
ENDCHAR
STARTCHAR char181
ENCODING 181
SWIDTH 994 0
DWIDTH 14 0
BBX 14 26 0 -6
BITMAP
0000
0000
0000
0000
0000
0000
0000
0000
3030
3030
3030
3030
3030
3030
3030
3030
3C30
3C30
33CC
33CC
3000
3000
C000
C000
0000
0000
ENDCHAR
STARTCHAR char182
ENCODING 182
SWIDTH 994 0
DWIDTH 14 0
BBX 14 26 0 -6
BITMAP
0000
0000
0000
0000
0FFC
0FFC
3F30
3F30
3F30
3F30
0F30
0F30
0330
0330
0330
0330
0330
0330
0330
0330
0330
0330
0000
0000
0000
0000
ENDCHAR
STARTCHAR char183
ENCODING 183
SWIDTH 994 0
DWIDTH 14 0
BBX 14 26 0 -6
BITMAP
0000
0000
0000
0000
0000
0000
0000
0000
0000
0000
0FC0
0FC0
0FC0
0FC0
0FC0
0FC0
0000
0000
0000
0000
0000
0000
0000
0000
0000
0000
ENDCHAR
STARTCHAR char184
ENCODING 184
SWIDTH 994 0
DWIDTH 14 0
BBX 14 26 0 -6
BITMAP
0000
0000
0000
0000
0000
0000
0000
0000
0000
0000
0000
0000
0000
0000
0000
0000
0000
0000
0000
0000
03C0
03C0
00C0
00C0
0300
0300
ENDCHAR
STARTCHAR char185
ENCODING 185
SWIDTH 994 0
DWIDTH 14 0
BBX 14 26 0 -6
BITMAP
0000
0000
0C00
0C00
3C00
3C00
0C00
0C00
0C00
0C00
3F00
3F00
0000
0000
0000
0000
0000
0000
0000
0000
0000
0000
0000
0000
0000
0000
ENDCHAR
STARTCHAR char186
ENCODING 186
SWIDTH 994 0
DWIDTH 14 0
BBX 14 26 0 -6
BITMAP
0000
0000
0F00
0F00
30C0
30C0
30C0
30C0
30C0
30C0
0F00
0F00
0000
0000
0000
0000
0000
0000
0000
0000
0000
0000
0000
0000
0000
0000
ENDCHAR
STARTCHAR char187
ENCODING 187
SWIDTH 994 0
DWIDTH 14 0
BBX 14 26 0 -6
BITMAP
0000
0000
0000
0000
0000
0000
0000
0000
3300
3300
0CC0
0CC0
0330
0330
0CC0
0CC0
3300
3300
0000
0000
0000
0000
0000
0000
0000
0000
ENDCHAR
STARTCHAR char188
ENCODING 188
SWIDTH 994 0
DWIDTH 14 0
BBX 14 26 0 -6
BITMAP
0030
0030
3030
3030
30C0
30C0
30C0
30C0
3300
3300
0300
0300
0C30
0C30
0CF0
0CF0
33FC
33FC
3030
3030
0000
0000
0000
0000
0000
0000
ENDCHAR
STARTCHAR char189
ENCODING 189
SWIDTH 994 0
DWIDTH 14 0
BBX 14 26 0 -6
BITMAP
0030
0030
3030
3030
30C0
30C0
30C0
30C0
3300
3300
03F0
03F0
0C0C
0C0C
0C30
0C30
30C0
30C0
30FC
30FC
0000
0000
0000
0000
0000
0000
ENDCHAR
STARTCHAR char190
ENCODING 190
SWIDTH 994 0
DWIDTH 14 0
BBX 14 26 0 -6
BITMAP
0030
0030
F030
F030
0CC0
0CC0
3CC0
3CC0
0F00
0F00
F300
F300
0C30
0C30
0CF0
0CF0
33FC
33FC
3030
3030
0000
0000
0000
0000
0000
0000
ENDCHAR
STARTCHAR char191
ENCODING 191
SWIDTH 994 0
DWIDTH 14 0
BBX 14 26 0 -6
BITMAP
0000
0000
0000
0000
0300
0300
0000
0000
0300
0300
0300
0300
0C00
0C00
3000
3000
3030
3030
0FC0
0FC0
0000
0000
0000
0000
0000
0000
ENDCHAR
STARTCHAR char192
ENCODING 192
SWIDTH 994 0
DWIDTH 14 0
BBX 14 26 0 -6
BITMAP
0300
0300
00C0
00C0
0000
0000
03C0
03C0
0C30
0C30
0C30
0C30
0FF0
0FF0
300C
300C
300C
300C
300C
300C
0000
0000
0000
0000
0000
0000
ENDCHAR
STARTCHAR char193
ENCODING 193
SWIDTH 994 0
DWIDTH 14 0
BBX 14 26 0 -6
BITMAP
00C0
00C0
0300
0300
0000
0000
03C0
03C0
0C30
0C30
0C30
0C30
0FF0
0FF0
300C
300C
300C
300C
300C
300C
0000
0000
0000
0000
0000
0000
ENDCHAR
STARTCHAR char194
ENCODING 194
SWIDTH 994 0
DWIDTH 14 0
BBX 14 26 0 -6
BITMAP
03C0
03C0
0C30
0C30
0000
0000
03C0
03C0
0C30
0C30
0C30
0C30
0FF0
0FF0
300C
300C
300C
300C
300C
300C
0000
0000
0000
0000
0000
0000
ENDCHAR
STARTCHAR char195
ENCODING 195
SWIDTH 994 0
DWIDTH 14 0
BBX 14 26 0 -6
BITMAP
0330
0330
0CC0
0CC0
0000
0000
03C0
03C0
0C30
0C30
0C30
0C30
0FF0
0FF0
300C
300C
300C
300C
300C
300C
0000
0000
0000
0000
0000
0000
ENDCHAR
STARTCHAR char196
ENCODING 196
SWIDTH 994 0
DWIDTH 14 0
BBX 14 26 0 -6
BITMAP
0000
0000
0C30
0C30
0000
0000
03C0
03C0
0C30
0C30
0C30
0C30
0FF0
0FF0
300C
300C
300C
300C
300C
300C
0000
0000
0000
0000
0000
0000
ENDCHAR
STARTCHAR char197
ENCODING 197
SWIDTH 994 0
DWIDTH 14 0
BBX 14 26 0 -6
BITMAP
03C0
03C0
0C30
0C30
0C30
0C30
03C0
03C0
0C30
0C30
0C30
0C30
0FF0
0FF0
300C
300C
300C
300C
300C
300C
0000
0000
0000
0000
0000
0000
ENDCHAR
STARTCHAR char198
ENCODING 198
SWIDTH 994 0
DWIDTH 14 0
BBX 14 26 0 -6
BITMAP
0000
0000
0000
0000
03FC
03FC
0CC0
0CC0
0CC0
0CC0
30F0
30F0
3FC0
3FC0
C0C0
C0C0
C0C0
C0C0
C0FC
C0FC
0000
0000
0000
0000
0000
0000
ENDCHAR
STARTCHAR char199
ENCODING 199
SWIDTH 994 0
DWIDTH 14 0
BBX 14 26 0 -6
BITMAP
0000
0000
0000
0000
03F0
03F0
0C0C
0C0C
3000
3000
3000
3000
3000
3000
3000
3000
0C0C
0C0C
03F0
03F0
00C0
00C0
00C0
00C0
0300
0300
ENDCHAR
STARTCHAR char200
ENCODING 200
SWIDTH 994 0
DWIDTH 14 0
BBX 14 26 0 -6
BITMAP
0C00
0C00
0300
0300
0000
0000
3FF0
3FF0
3000
3000
3000
3000
3FC0
3FC0
3000
3000
3000
3000
3FF0
3FF0
0000
0000
0000
0000
0000
0000
ENDCHAR
STARTCHAR char201
ENCODING 201
SWIDTH 994 0
DWIDTH 14 0
BBX 14 26 0 -6
BITMAP
00C0
00C0
0300
0300
0000
0000
3FF0
3FF0
3000
3000
3000
3000
3FC0
3FC0
3000
3000
3000
3000
3FF0
3FF0
0000
0000
0000
0000
0000
0000
ENDCHAR
STARTCHAR char202
ENCODING 202
SWIDTH 994 0
DWIDTH 14 0
BBX 14 26 0 -6
BITMAP
0300
0300
0CC0
0CC0
0000
0000
3FF0
3FF0
3000
3000
3000
3000
3FC0
3FC0
3000
3000
3000
3000
3FF0
3FF0
0000
0000
0000
0000
0000
0000
ENDCHAR
STARTCHAR char203
ENCODING 203
SWIDTH 994 0
DWIDTH 14 0
BBX 14 26 0 -6
BITMAP
0000
0000
0CC0
0CC0
0000
0000
3FF0
3FF0
3000
3000
3000
3000
3FC0
3FC0
3000
3000
3000
3000
3FF0
3FF0
0000
0000
0000
0000
0000
0000
ENDCHAR
STARTCHAR char204
ENCODING 204
SWIDTH 994 0
DWIDTH 14 0
BBX 14 26 0 -6
BITMAP
0300
0300
00C0
00C0
0000
0000
0FC0
0FC0
0300
0300
0300
0300
0300
0300
0300
0300
0300
0300
0FC0
0FC0
0000
0000
0000
0000
0000
0000
ENDCHAR
STARTCHAR char205
ENCODING 205
SWIDTH 994 0
DWIDTH 14 0
BBX 14 26 0 -6
BITMAP
00C0
00C0
0300
0300
0000
0000
0FC0
0FC0
0300
0300
0300
0300
0300
0300
0300
0300
0300
0300
0FC0
0FC0
0000
0000
0000
0000
0000
0000
ENDCHAR
STARTCHAR char206
ENCODING 206
SWIDTH 994 0
DWIDTH 14 0
BBX 14 26 0 -6
BITMAP
0300
0300
0CC0
0CC0
0000
0000
0FC0
0FC0
0300
0300
0300
0300
0300
0300
0300
0300
0300
0300
0FC0
0FC0
0000
0000
0000
0000
0000
0000
ENDCHAR
STARTCHAR char207
ENCODING 207
SWIDTH 994 0
DWIDTH 14 0
BBX 14 26 0 -6
BITMAP
0000
0000
0CC0
0CC0
0000
0000
0FC0
0FC0
0300
0300
0300
0300
0300
0300
0300
0300
0300
0300
0FC0
0FC0
0000
0000
0000
0000
0000
0000
ENDCHAR
STARTCHAR char208
ENCODING 208
SWIDTH 994 0
DWIDTH 14 0
BBX 14 26 0 -6
BITMAP
0000
0000
0000
0000
0000
0000
3FC0
3FC0
3030
3030
300C
300C
FF0C
FF0C
300C
300C
3030
3030
3FC0
3FC0
0000
0000
0000
0000
0000
0000
ENDCHAR
STARTCHAR char209
ENCODING 209
SWIDTH 994 0
DWIDTH 14 0
BBX 14 26 0 -6
BITMAP
0330
0330
0CC0
0CC0
0000
0000
3C0C
3C0C
330C
330C
330C
330C
30CC
30CC
30CC
30CC
303C
303C
303C
303C
0000
0000
0000
0000
0000
0000
ENDCHAR
STARTCHAR char210
ENCODING 210
SWIDTH 994 0
DWIDTH 14 0
BBX 14 26 0 -6
BITMAP
0300
0300
00C0
00C0
0000
0000
03C0
03C0
0C30
0C30
300C
300C
300C
300C
300C
300C
0C30
0C30
03C0
03C0
0000
0000
0000
0000
0000
0000
ENDCHAR
STARTCHAR char211
ENCODING 211
SWIDTH 994 0
DWIDTH 14 0
BBX 14 26 0 -6
BITMAP
00C0
00C0
0300
0300
0000
0000
03C0
03C0
0C30
0C30
300C
300C
300C
300C
300C
300C
0C30
0C30
03C0
03C0
0000
0000
0000
0000
0000
0000
ENDCHAR
STARTCHAR char212
ENCODING 212
SWIDTH 994 0
DWIDTH 14 0
BBX 14 26 0 -6
BITMAP
03C0
03C0
0C30
0C30
0000
0000
03C0
03C0
0C30
0C30
300C
300C
300C
300C
300C
300C
0C30
0C30
03C0
03C0
0000
0000
0000
0000
0000
0000
ENDCHAR
STARTCHAR char213
ENCODING 213
SWIDTH 994 0
DWIDTH 14 0
BBX 14 26 0 -6
BITMAP
0330
0330
0CC0
0CC0
0000
0000
03C0
03C0
0C30
0C30
300C
300C
300C
300C
300C
300C
0C30
0C30
03C0
03C0
0000
0000
0000
0000
0000
0000
ENDCHAR
STARTCHAR char214
ENCODING 214
SWIDTH 994 0
DWIDTH 14 0
BBX 14 26 0 -6
BITMAP
0000
0000
0C30
0C30
0000
0000
03C0
03C0
0C30
0C30
300C
300C
300C
300C
300C
300C
0C30
0C30
03C0
03C0
0000
0000
0000
0000
0000
0000
ENDCHAR
STARTCHAR char215
ENCODING 215
SWIDTH 994 0
DWIDTH 14 0
BBX 14 26 0 -6
BITMAP
0000
0000
0000
0000
0000
0000
0000
0000
3030
3030
0CC0
0CC0
0300
0300
0CC0
0CC0
3030
3030
0000
0000
0000
0000
0000
0000
0000
0000
ENDCHAR
STARTCHAR char216
ENCODING 216
SWIDTH 994 0
DWIDTH 14 0
BBX 14 26 0 -6
BITMAP
0000
0000
0000
0000
03CC
03CC
0C30
0C30
30CC
30CC
30CC
30CC
330C
330C
330C
330C
0C30
0C30
33C0
33C0
0000
0000
0000
0000
0000
0000
ENDCHAR
STARTCHAR char217
ENCODING 217
SWIDTH 994 0
DWIDTH 14 0
BBX 14 26 0 -6
BITMAP
0300
0300
00C0
00C0
0000
0000
300C
300C
300C
300C
300C
300C
300C
300C
300C
300C
300C
300C
0FF0
0FF0
0000
0000
0000
0000
0000
0000
ENDCHAR
STARTCHAR char218
ENCODING 218
SWIDTH 994 0
DWIDTH 14 0
BBX 14 26 0 -6
BITMAP
00C0
00C0
0300
0300
0000
0000
300C
300C
300C
300C
300C
300C
300C
300C
300C
300C
300C
300C
0FF0
0FF0
0000
0000
0000
0000
0000
0000
ENDCHAR
STARTCHAR char219
ENCODING 219
SWIDTH 994 0
DWIDTH 14 0
BBX 14 26 0 -6
BITMAP
03C0
03C0
0C30
0C30
0000
0000
300C
300C
300C
300C
300C
300C
300C
300C
300C
300C
300C
300C
0FF0
0FF0
0000
0000
0000
0000
0000
0000
ENDCHAR
STARTCHAR char220
ENCODING 220
SWIDTH 994 0
DWIDTH 14 0
BBX 14 26 0 -6
BITMAP
0000
0000
0C30
0C30
0000
0000
300C
300C
300C
300C
300C
300C
300C
300C
300C
300C
300C
300C
0FF0
0FF0
0000
0000
0000
0000
0000
0000
ENDCHAR
STARTCHAR char221
ENCODING 221
SWIDTH 994 0
DWIDTH 14 0
BBX 14 26 0 -6
BITMAP
00C0
00C0
0300
0300
0000
0000
C00C
C00C
C00C
C00C
3030
3030
0CC0
0CC0
0300
0300
0300
0300
0300
0300
0000
0000
0000
0000
0000
0000
ENDCHAR
STARTCHAR char222
ENCODING 222
SWIDTH 994 0
DWIDTH 14 0
BBX 14 26 0 -6
BITMAP
0000
0000
0000
0000
3000
3000
3000
3000
3FC0
3FC0
3030
3030
3030
3030
3FC0
3FC0
3000
3000
3000
3000
0000
0000
0000
0000
0000
0000
ENDCHAR
STARTCHAR char223
ENCODING 223
SWIDTH 994 0
DWIDTH 14 0
BBX 14 26 0 -6
BITMAP
0000
0000
0FC0
0FC0
3030
3030
3030
3030
3FC0
3FC0
3030
3030
300C
300C
300C
300C
300C
300C
3FF0
3FF0
C000
C000
0000
0000
0000
0000
ENDCHAR
STARTCHAR char224
ENCODING 224
SWIDTH 994 0
DWIDTH 14 0
BBX 14 26 0 -6
BITMAP
0000
0000
0300
0300
00C0
00C0
0000
0000
0FC0
0FC0
0030
0030
0FF0
0FF0
3030
3030
3030
3030
0FF0
0FF0
0000
0000
0000
0000
0000
0000
ENDCHAR
STARTCHAR char225
ENCODING 225
SWIDTH 994 0
DWIDTH 14 0
BBX 14 26 0 -6
BITMAP
0000
0000
00C0
00C0
0300
0300
0000
0000
0FC0
0FC0
0030
0030
0FF0
0FF0
3030
3030
3030
3030
0FF0
0FF0
0000
0000
0000
0000
0000
0000
ENDCHAR
STARTCHAR char226
ENCODING 226
SWIDTH 994 0
DWIDTH 14 0
BBX 14 26 0 -6
BITMAP
0000
0000
0300
0300
0CC0
0CC0
0000
0000
0FC0
0FC0
0030
0030
0FF0
0FF0
3030
3030
3030
3030
0FF0
0FF0
0000
0000
0000
0000
0000
0000
ENDCHAR
STARTCHAR char227
ENCODING 227
SWIDTH 994 0
DWIDTH 14 0
BBX 14 26 0 -6
BITMAP
0000
0000
0330
0330
0CC0
0CC0
0000
0000
0FC0
0FC0
0030
0030
0FF0
0FF0
3030
3030
3030
3030
0FF0
0FF0
0000
0000
0000
0000
0000
0000
ENDCHAR
STARTCHAR char228
ENCODING 228
SWIDTH 994 0
DWIDTH 14 0
BBX 14 26 0 -6
BITMAP
0000
0000
0000
0000
0CC0
0CC0
0000
0000
0FC0
0FC0
0030
0030
0FF0
0FF0
3030
3030
3030
3030
0FF0
0FF0
0000
0000
0000
0000
0000
0000
ENDCHAR
STARTCHAR char229
ENCODING 229
SWIDTH 994 0
DWIDTH 14 0
BBX 14 26 0 -6
BITMAP
0300
0300
0CC0
0CC0
0300
0300
0000
0000
0FC0
0FC0
0030
0030
0FF0
0FF0
3030
3030
3030
3030
0FF0
0FF0
0000
0000
0000
0000
0000
0000
ENDCHAR
STARTCHAR char230
ENCODING 230
SWIDTH 994 0
DWIDTH 14 0
BBX 14 26 0 -6
BITMAP
0000
0000
0000
0000
0000
0000
0000
0000
3CF0
3CF0
030C
030C
3FFC
3FFC
C300
C300
C30C
C30C
3FF0
3FF0
0000
0000
0000
0000
0000
0000
ENDCHAR
STARTCHAR char231
ENCODING 231
SWIDTH 994 0
DWIDTH 14 0
BBX 14 26 0 -6
BITMAP
0000
0000
0000
0000
0000
0000
0000
0000
0FC0
0FC0
3030
3030
3000
3000
3000
3000
3030
3030
0FC0
0FC0
0300
0300
0300
0300
0C00
0C00
ENDCHAR
STARTCHAR char232
ENCODING 232
SWIDTH 994 0
DWIDTH 14 0
BBX 14 26 0 -6
BITMAP
0000
0000
0C00
0C00
0300
0300
0000
0000
0FC0
0FC0
3030
3030
3FF0
3FF0
3000
3000
3030
3030
0FC0
0FC0
0000
0000
0000
0000
0000
0000
ENDCHAR
STARTCHAR char233
ENCODING 233
SWIDTH 994 0
DWIDTH 14 0
BBX 14 26 0 -6
BITMAP
0000
0000
0300
0300
0C00
0C00
0000
0000
0FC0
0FC0
3030
3030
3FF0
3FF0
3000
3000
3030
3030
0FC0
0FC0
0000
0000
0000
0000
0000
0000
ENDCHAR
STARTCHAR char234
ENCODING 234
SWIDTH 994 0
DWIDTH 14 0
BBX 14 26 0 -6
BITMAP
0000
0000
0300
0300
0CC0
0CC0
0000
0000
0FC0
0FC0
3030
3030
3FF0
3FF0
3000
3000
3030
3030
0FC0
0FC0
0000
0000
0000
0000
0000
0000
ENDCHAR
STARTCHAR char235
ENCODING 235
SWIDTH 994 0
DWIDTH 14 0
BBX 14 26 0 -6
BITMAP
0000
0000
0000
0000
0CC0
0CC0
0000
0000
0FC0
0FC0
3030
3030
3FF0
3FF0
3000
3000
3030
3030
0FC0
0FC0
0000
0000
0000
0000
0000
0000
ENDCHAR
STARTCHAR char236
ENCODING 236
SWIDTH 994 0
DWIDTH 14 0
BBX 14 26 0 -6
BITMAP
0000
0000
0C00
0C00
0300
0300
0000
0000
0F00
0F00
0300
0300
0300
0300
0300
0300
0300
0300
0300
0300
0000
0000
0000
0000
0000
0000
ENDCHAR
STARTCHAR char237
ENCODING 237
SWIDTH 994 0
DWIDTH 14 0
BBX 14 26 0 -6
BITMAP
0000
0000
0300
0300
0C00
0C00
0000
0000
0F00
0F00
0300
0300
0300
0300
0300
0300
0300
0300
0300
0300
0000
0000
0000
0000
0000
0000
ENDCHAR
STARTCHAR char238
ENCODING 238
SWIDTH 994 0
DWIDTH 14 0
BBX 14 26 0 -6
BITMAP
0000
0000
0300
0300
0CC0
0CC0
0000
0000
0F00
0F00
0300
0300
0300
0300
0300
0300
0300
0300
0300
0300
0000
0000
0000
0000
0000
0000
ENDCHAR
STARTCHAR char239
ENCODING 239
SWIDTH 994 0
DWIDTH 14 0
BBX 14 26 0 -6
BITMAP
0000
0000
0CC0
0CC0
0000
0000
0000
0000
0F00
0F00
0300
0300
0300
0300
0300
0300
0300
0300
0300
0300
0000
0000
0000
0000
0000
0000
ENDCHAR
STARTCHAR char240
ENCODING 240
SWIDTH 994 0
DWIDTH 14 0
BBX 14 26 0 -6
BITMAP
0000
0000
0F30
0F30
00C0
00C0
0330
0330
0030
0030
0FF0
0FF0
3030
3030
3030
3030
3030
3030
0FC0
0FC0
0000
0000
0000
0000
0000
0000
ENDCHAR
STARTCHAR char241
ENCODING 241
SWIDTH 994 0
DWIDTH 14 0
BBX 14 26 0 -6
BITMAP
0000
0000
0CC0
0CC0
3300
3300
0000
0000
3FC0
3FC0
3030
3030
3030
3030
3030
3030
3030
3030
3030
3030
0000
0000
0000
0000
0000
0000
ENDCHAR
STARTCHAR char242
ENCODING 242
SWIDTH 994 0
DWIDTH 14 0
BBX 14 26 0 -6
BITMAP
0000
0000
0C00
0C00
0300
0300
0000
0000
0FC0
0FC0
3030
3030
3030
3030
3030
3030
3030
3030
0FC0
0FC0
0000
0000
0000
0000
0000
0000
ENDCHAR
STARTCHAR char243
ENCODING 243
SWIDTH 994 0
DWIDTH 14 0
BBX 14 26 0 -6
BITMAP
0000
0000
00C0
00C0
0300
0300
0000
0000
0FC0
0FC0
3030
3030
3030
3030
3030
3030
3030
3030
0FC0
0FC0
0000
0000
0000
0000
0000
0000
ENDCHAR
STARTCHAR char244
ENCODING 244
SWIDTH 994 0
DWIDTH 14 0
BBX 14 26 0 -6
BITMAP
0000
0000
0300
0300
0CC0
0CC0
0000
0000
0FC0
0FC0
3030
3030
3030
3030
3030
3030
3030
3030
0FC0
0FC0
0000
0000
0000
0000
0000
0000
ENDCHAR
STARTCHAR char245
ENCODING 245
SWIDTH 994 0
DWIDTH 14 0
BBX 14 26 0 -6
BITMAP
0000
0000
0330
0330
0CC0
0CC0
0000
0000
0FC0
0FC0
3030
3030
3030
3030
3030
3030
3030
3030
0FC0
0FC0
0000
0000
0000
0000
0000
0000
ENDCHAR
STARTCHAR char246
ENCODING 246
SWIDTH 994 0
DWIDTH 14 0
BBX 14 26 0 -6
BITMAP
0000
0000
0000
0000
0CC0
0CC0
0000
0000
0FC0
0FC0
3030
3030
3030
3030
3030
3030
3030
3030
0FC0
0FC0
0000
0000
0000
0000
0000
0000
ENDCHAR
STARTCHAR char247
ENCODING 247
SWIDTH 994 0
DWIDTH 14 0
BBX 14 26 0 -6
BITMAP
0000
0000
0000
0000
0000
0000
0000
0000
0300
0300
0000
0000
3FF0
3FF0
0000
0000
0300
0300
0000
0000
0000
0000
0000
0000
0000
0000
ENDCHAR
STARTCHAR char248
ENCODING 248
SWIDTH 994 0
DWIDTH 14 0
BBX 14 26 0 -6
BITMAP
0000
0000
0000
0000
0000
0000
0030
0030
0FC0
0FC0
30F0
30F0
3330
3330
3330
3330
3C30
3C30
0FC0
0FC0
3000
3000
0000
0000
0000
0000
ENDCHAR
STARTCHAR char249
ENCODING 249
SWIDTH 994 0
DWIDTH 14 0
BBX 14 26 0 -6
BITMAP
0000
0000
0C00
0C00
0300
0300
0000
0000
3030
3030
3030
3030
3030
3030
3030
3030
3030
3030
0FF0
0FF0
0000
0000
0000
0000
0000
0000
ENDCHAR
STARTCHAR char250
ENCODING 250
SWIDTH 994 0
DWIDTH 14 0
BBX 14 26 0 -6
BITMAP
0000
0000
0300
0300
0C00
0C00
0000
0000
3030
3030
3030
3030
3030
3030
3030
3030
3030
3030
0FF0
0FF0
0000
0000
0000
0000
0000
0000
ENDCHAR
STARTCHAR char251
ENCODING 251
SWIDTH 994 0
DWIDTH 14 0
BBX 14 26 0 -6
BITMAP
0000
0000
0300
0300
0CC0
0CC0
0000
0000
3030
3030
3030
3030
3030
3030
3030
3030
3030
3030
0FF0
0FF0
0000
0000
0000
0000
0000
0000
ENDCHAR
STARTCHAR char252
ENCODING 252
SWIDTH 994 0
DWIDTH 14 0
BBX 14 26 0 -6
BITMAP
0000
0000
0000
0000
0CC0
0CC0
0000
0000
3030
3030
3030
3030
3030
3030
3030
3030
3030
3030
0FF0
0FF0
0000
0000
0000
0000
0000
0000
ENDCHAR
STARTCHAR char253
ENCODING 253
SWIDTH 994 0
DWIDTH 14 0
BBX 14 26 0 -6
BITMAP
0000
0000
00C0
00C0
0300
0300
0000
0000
3030
3030
3030
3030
3030
3030
3030
3030
3030
3030
0FF0
0FF0
0030
0030
0030
0030
0FC0
0FC0
ENDCHAR
STARTCHAR char254
ENCODING 254
SWIDTH 994 0
DWIDTH 14 0
BBX 14 26 0 -6
BITMAP
0000
0000
0000
0000
3000
3000
3000
3000
3FC0
3FC0
3030
3030
3030
3030
3030
3030
3030
3030
3FC0
3FC0
3000
3000
3000
3000
0000
0000
ENDCHAR
STARTCHAR char255
ENCODING 255
SWIDTH 994 0
DWIDTH 14 0
BBX 14 26 0 -6
BITMAP
0000
0000
0000
0000
0CC0
0CC0
0000
0000
3030
3030
3030
3030
3030
3030
3030
3030
3030
3030
0FF0
0FF0
0030
0030
0030
0030
0FC0
0FC0
ENDCHAR
STARTCHAR Amacron
ENCODING 256
SWIDTH 994 0
DWIDTH 14 0
BBX 14 26 0 -6
BITMAP
0000
0000
3FC0
3FC0
0000
0000
0F00
0F00
30C0
30C0
C030
C030
C030
C030
FFF0
FFF0
C030
C030
C030
C030
C030
C030
0000
0000
0000
0000
ENDCHAR
STARTCHAR amacron
ENCODING 257
SWIDTH 994 0
DWIDTH 14 0
BBX 14 26 0 -6
BITMAP
0000
0000
0000
0000
0000
0000
3FC0
3FC0
0000
0000
3FC0
3FC0
0030
0030
3FF0
3FF0
C030
C030
C0F0
C0F0
3F30
3F30
0000
0000
0000
0000
ENDCHAR
STARTCHAR Abreve
ENCODING 258
SWIDTH 994 0
DWIDTH 14 0
BBX 14 26 0 -6
BITMAP
0000
0000
C030
C030
3FC0
3FC0
0000
0000
0F00
0F00
30C0
30C0
C030
C030
C030
C030
FFF0
FFF0
C030
C030
C030
C030
0000
0000
0000
0000
ENDCHAR
STARTCHAR abreve
ENCODING 259
SWIDTH 994 0
DWIDTH 14 0
BBX 14 26 0 -6
BITMAP
0000
0000
0000
0000
C030
C030
3FC0
3FC0
0000
0000
3FC0
3FC0
0030
0030
3FF0
3FF0
C030
C030
C0F0
C0F0
3F30
3F30
0000
0000
0000
0000
ENDCHAR
STARTCHAR Aogonek
ENCODING 260
SWIDTH 994 0
DWIDTH 14 0
BBX 14 26 0 -6
BITMAP
0000
0000
0000
0000
0F00
0F00
30C0
30C0
C030
C030
C030
C030
C030
C030
FFF0
FFF0
C030
C030
C030
C030
C030
C030
00C0
00C0
003C
003C
ENDCHAR
STARTCHAR aogonek
ENCODING 261
SWIDTH 994 0
DWIDTH 14 0
BBX 14 26 0 -6
BITMAP
0000
0000
0000
0000
0000
0000
0000
0000
0000
0000
3FC0
3FC0
0030
0030
3FF0
3FF0
C030
C030
C030
C030
3FF0
3FF0
00C0
00C0
003C
003C
ENDCHAR
STARTCHAR Cacute
ENCODING 262
SWIDTH 994 0
DWIDTH 14 0
BBX 14 26 0 -6
BITMAP
0000
0000
0300
0300
0C00
0C00
0000
0000
3FC0
3FC0
C030
C030
C000
C000
C000
C000
C000
C000
C030
C030
3FC0
3FC0
0000
0000
0000
0000
ENDCHAR
STARTCHAR cacute
ENCODING 263
SWIDTH 994 0
DWIDTH 14 0
BBX 14 26 0 -6
BITMAP
0000
0000
0000
0000
00C0
00C0
0300
0300
0000
0000
3FC0
3FC0
C030
C030
C000
C000
C000
C000
C030
C030
3FC0
3FC0
0000
0000
0000
0000
ENDCHAR
STARTCHAR Ccircumflex
ENCODING 264
SWIDTH 994 0
DWIDTH 14 0
BBX 14 26 0 -6
BITMAP
0000
0000
0F00
0F00
30C0
30C0
0000
0000
3FC0
3FC0
C030
C030
C000
C000
C000
C000
C000
C000
C030
C030
3FC0
3FC0
0000
0000
0000
0000
ENDCHAR
STARTCHAR ccircumflex
ENCODING 265
SWIDTH 994 0
DWIDTH 14 0
BBX 14 26 0 -6
BITMAP
0000
0000
0000
0000
0F00
0F00
30C0
30C0
0000
0000
3FC0
3FC0
C030
C030
C000
C000
C000
C000
C030
C030
3FC0
3FC0
0000
0000
0000
0000
ENDCHAR
STARTCHAR Cdotaccent
ENCODING 266
SWIDTH 994 0
DWIDTH 14 0
BBX 14 26 0 -6
BITMAP
0000
0000
0F00
0F00
0000
0000
3FC0
3FC0
C030
C030
C000
C000
C000
C000
C000
C000
C000
C000
C030
C030
3FC0
3FC0
0000
0000
0000
0000
ENDCHAR
STARTCHAR cdotaccent
ENCODING 267
SWIDTH 994 0
DWIDTH 14 0
BBX 14 26 0 -6
BITMAP
0000
0000
0000
0000
0000
0000
0F00
0F00
0000
0000
3FC0
3FC0
C030
C030
C000
C000
C000
C000
C030
C030
3FC0
3FC0
0000
0000
0000
0000
ENDCHAR
STARTCHAR Ccaron
ENCODING 268
SWIDTH 994 0
DWIDTH 14 0
BBX 14 26 0 -6
BITMAP
0000
0000
30C0
30C0
0F00
0F00
0000
0000
3FC0
3FC0
C030
C030
C000
C000
C000
C000
C000
C000
C030
C030
3FC0
3FC0
0000
0000
0000
0000
ENDCHAR
STARTCHAR ccaron
ENCODING 269
SWIDTH 994 0
DWIDTH 14 0
BBX 14 26 0 -6
BITMAP
0000
0000
0000
0000
30C0
30C0
0F00
0F00
0000
0000
3FC0
3FC0
C030
C030
C000
C000
C000
C000
C030
C030
3FC0
3FC0
0000
0000
0000
0000
ENDCHAR
STARTCHAR Dcaron
ENCODING 270
SWIDTH 994 0
DWIDTH 14 0
BBX 14 26 0 -6
BITMAP
0000
0000
30C0
30C0
0F00
0F00
0000
0000
FFC0
FFC0
3030
3030
3030
3030
3030
3030
3030
3030
3030
3030
FFC0
FFC0
0000
0000
0000
0000
ENDCHAR
STARTCHAR dcaron
ENCODING 271
SWIDTH 994 0
DWIDTH 14 0
BBX 14 26 0 -6
BITMAP
0000
0000
30C0
30C0
0F00
0F00
0030
0030
0030
0030
3F30
3F30
C0F0
C0F0
C030
C030
C030
C030
C0F0
C0F0
3F30
3F30
0000
0000
0000
0000
ENDCHAR
STARTCHAR Dcroat
ENCODING 272
SWIDTH 994 0
DWIDTH 14 0
BBX 14 26 0 -6
BITMAP
0000
0000
0000
0000
FFC0
FFC0
3030
3030
3030
3030
3030
3030
FC30
FC30
3030
3030
3030
3030
3030
3030
FFC0
FFC0
0000
0000
0000
0000
ENDCHAR
STARTCHAR dcroat
ENCODING 273
SWIDTH 994 0
DWIDTH 14 0
BBX 14 26 0 -6
BITMAP
0000
0000
0000
0000
0030
0030
03FC
03FC
0030
0030
3F30
3F30
C0F0
C0F0
C030
C030
C030
C030
C0F0
C0F0
3F30
3F30
0000
0000
0000
0000
ENDCHAR
STARTCHAR Emacron
ENCODING 274
SWIDTH 994 0
DWIDTH 14 0
BBX 14 26 0 -6
BITMAP
0000
0000
0000
0000
3FC0
3FC0
0000
0000
FFF0
FFF0
C000
C000
C000
C000
FF00
FF00
C000
C000
C000
C000
FFF0
FFF0
0000
0000
0000
0000
ENDCHAR
STARTCHAR emacron
ENCODING 275
SWIDTH 994 0
DWIDTH 14 0
BBX 14 26 0 -6
BITMAP
0000
0000
0000
0000
0000
0000
3FC0
3FC0
0000
0000
3FC0
3FC0
C030
C030
FFF0
FFF0
C000
C000
C030
C030
3FC0
3FC0
0000
0000
0000
0000
ENDCHAR
STARTCHAR Ebreve
ENCODING 276
SWIDTH 994 0
DWIDTH 14 0
BBX 14 26 0 -6
BITMAP
0000
0000
C030
C030
3FC0
3FC0
0000
0000
FFF0
FFF0
C000
C000
C000
C000
FF00
FF00
C000
C000
C000
C000
FFF0
FFF0
0000
0000
0000
0000
ENDCHAR
STARTCHAR ebreve
ENCODING 277
SWIDTH 994 0
DWIDTH 14 0
BBX 14 26 0 -6
BITMAP
0000
0000
0000
0000
C030
C030
3FC0
3FC0
0000
0000
3FC0
3FC0
C030
C030
FFF0
FFF0
C000
C000
C030
C030
3FC0
3FC0
0000
0000
0000
0000
ENDCHAR
STARTCHAR Edotaccent
ENCODING 278
SWIDTH 994 0
DWIDTH 14 0
BBX 14 26 0 -6
BITMAP
0000
0000
0F00
0F00
0000
0000
FFF0
FFF0
C000
C000
C000
C000
FF00
FF00
C000
C000
C000
C000
C000
C000
FFF0
FFF0
0000
0000
0000
0000
ENDCHAR
STARTCHAR edotaccent
ENCODING 279
SWIDTH 994 0
DWIDTH 14 0
BBX 14 26 0 -6
BITMAP
0000
0000
0000
0000
0000
0000
0F00
0F00
0000
0000
3FC0
3FC0
C030
C030
FFF0
FFF0
C000
C000
C030
C030
3FC0
3FC0
0000
0000
0000
0000
ENDCHAR
STARTCHAR Eogonek
ENCODING 280
SWIDTH 994 0
DWIDTH 14 0
BBX 14 26 0 -6
BITMAP
0000
0000
0000
0000
FFF0
FFF0
C000
C000
C000
C000
C000
C000
FF00
FF00
C000
C000
C000
C000
C000
C000
FFF0
FFF0
0C00
0C00
03C0
03C0
ENDCHAR
STARTCHAR eogonek
ENCODING 281
SWIDTH 994 0
DWIDTH 14 0
BBX 14 26 0 -6
BITMAP
0000
0000
0000
0000
0000
0000
0000
0000
0000
0000
3FC0
3FC0
C030
C030
FFF0
FFF0
C000
C000
C030
C030
3FC0
3FC0
3000
3000
0F00
0F00
ENDCHAR
STARTCHAR Ecaron
ENCODING 282
SWIDTH 994 0
DWIDTH 14 0
BBX 14 26 0 -6
BITMAP
0000
0000
30C0
30C0
0F00
0F00
0000
0000
FFF0
FFF0
C000
C000
C000
C000
FF00
FF00
C000
C000
C000
C000
FFF0
FFF0
0000
0000
0000
0000
ENDCHAR
STARTCHAR ecaron
ENCODING 283
SWIDTH 994 0
DWIDTH 14 0
BBX 14 26 0 -6
BITMAP
0000
0000
0000
0000
30C0
30C0
0F00
0F00
0000
0000
3FC0
3FC0
C030
C030
FFF0
FFF0
C000
C000
C030
C030
3FC0
3FC0
0000
0000
0000
0000
ENDCHAR
STARTCHAR Gcircumflex
ENCODING 284
SWIDTH 994 0
DWIDTH 14 0
BBX 14 26 0 -6
BITMAP
0000
0000
0F00
0F00
30C0
30C0
0000
0000
3FC0
3FC0
C030
C030
C000
C000
C3F0
C3F0
C030
C030
C0F0
C0F0
3F30
3F30
0000
0000
0000
0000
ENDCHAR
STARTCHAR gcircumflex
ENCODING 285
SWIDTH 994 0
DWIDTH 14 0
BBX 14 26 0 -6
BITMAP
0000
0000
0000
0000
0F00
0F00
30C0
30C0
0000
0000
3F30
3F30
C0C0
C0C0
C0C0
C0C0
3F00
3F00
C000
C000
3FC0
3FC0
C030
C030
3FC0
3FC0
ENDCHAR
STARTCHAR Gbreve
ENCODING 286
SWIDTH 994 0
DWIDTH 14 0
BBX 14 26 0 -6
BITMAP
0000
0000
C030
C030
3FC0
3FC0
0000
0000
3FC0
3FC0
C030
C030
C000
C000
C3F0
C3F0
C030
C030
C0F0
C0F0
3F30
3F30
0000
0000
0000
0000
ENDCHAR
STARTCHAR gbreve
ENCODING 287
SWIDTH 994 0
DWIDTH 14 0
BBX 14 26 0 -6
BITMAP
0000
0000
0000
0000
C030
C030
3FC0
3FC0
0000
0000
3F30
3F30
C0C0
C0C0
C0C0
C0C0
3F00
3F00
C000
C000
3FC0
3FC0
C030
C030
3FC0
3FC0
ENDCHAR
STARTCHAR Gdotaccent
ENCODING 288
SWIDTH 994 0
DWIDTH 14 0
BBX 14 26 0 -6
BITMAP
0000
0000
0F00
0F00
0000
0000
3FC0
3FC0
C030
C030
C000
C000
C000
C000
C3F0
C3F0
C030
C030
C0F0
C0F0
3F30
3F30
0000
0000
0000
0000
ENDCHAR
STARTCHAR gdotaccent
ENCODING 289
SWIDTH 994 0
DWIDTH 14 0
BBX 14 26 0 -6
BITMAP
0000
0000
0000
0000
0000
0000
0F00
0F00
0000
0000
3F30
3F30
C0C0
C0C0
C0C0
C0C0
3F00
3F00
C000
C000
3FC0
3FC0
C030
C030
3FC0
3FC0
ENDCHAR
STARTCHAR Gcommaaccent
ENCODING 290
SWIDTH 994 0
DWIDTH 14 0
BBX 14 26 0 -6
BITMAP
0000
0000
0000
0000
3FC0
3FC0
C030
C030
C000
C000
C000
C000
C000
C000
C3F0
C3F0
C030
C030
C0F0
C0F0
3F30
3F30
0300
0300
0C00
0C00
ENDCHAR
STARTCHAR gcommaaccent
ENCODING 291
SWIDTH 994 0
DWIDTH 14 0
BBX 14 26 0 -6
BITMAP
0000
0000
0300
0300
0C00
0C00
0F00
0F00
0000
0000
3F30
3F30
C0C0
C0C0
C0C0
C0C0
3F00
3F00
C000
C000
3FC0
3FC0
C030
C030
3FC0
3FC0
ENDCHAR
STARTCHAR Hcircumflex
ENCODING 292
SWIDTH 994 0
DWIDTH 14 0
BBX 14 26 0 -6
BITMAP
0000
0000
0F00
0F00
30C0
30C0
0000
0000
C030
C030
C030
C030
C030
C030
FFF0
FFF0
C030
C030
C030
C030
C030
C030
0000
0000
0000
0000
ENDCHAR
STARTCHAR hcircumflex
ENCODING 293
SWIDTH 994 0
DWIDTH 14 0
BBX 14 26 0 -6
BITMAP
0000
0000
03C0
03C0
0C30
0C30
C000
C000
C000
C000
C000
C000
CFC0
CFC0
F030
F030
C030
C030
C030
C030
C030
C030
0000
0000
0000
0000
ENDCHAR
STARTCHAR Hbar
ENCODING 294
SWIDTH 994 0
DWIDTH 14 0
BBX 14 26 0 -6
BITMAP
0000
0000
0000
0000
3030
3030
3030
3030
FFFC
FFFC
3030
3030
3FF0
3FF0
3030
3030
3030
3030
3030
3030
3030
3030
0000
0000
0000
0000
ENDCHAR
STARTCHAR hbar
ENCODING 295
SWIDTH 994 0
DWIDTH 14 0
BBX 14 26 0 -6
BITMAP
0000
0000
0000
0000
3000
3000
FFC0
FFC0
3000
3000
33C0
33C0
3C30
3C30
3030
3030
3030
3030
3030
3030
3030
3030
0000
0000
0000
0000
ENDCHAR
STARTCHAR Itilde
ENCODING 296
SWIDTH 994 0
DWIDTH 14 0
BBX 14 26 0 -6
BITMAP
0000
0000
0C30
0C30
33C0
33C0
0000
0000
3FF0
3FF0
0300
0300
0300
0300
0300
0300
0300
0300
0300
0300
3FF0
3FF0
0000
0000
0000
0000
ENDCHAR
STARTCHAR itilde
ENCODING 297
SWIDTH 994 0
DWIDTH 14 0
BBX 14 26 0 -6
BITMAP
0000
0000
0000
0000
0C30
0C30
33C0
33C0
0000
0000
0F00
0F00
0300
0300
0300
0300
0300
0300
0300
0300
3FF0
3FF0
0000
0000
0000
0000
ENDCHAR
STARTCHAR Imacron
ENCODING 298
SWIDTH 994 0
DWIDTH 14 0
BBX 14 26 0 -6
BITMAP
0000
0000
3FF0
3FF0
0000
0000
3FF0
3FF0
0300
0300
0300
0300
0300
0300
0300
0300
0300
0300
0300
0300
3FF0
3FF0
0000
0000
0000
0000
ENDCHAR
STARTCHAR imacron
ENCODING 299
SWIDTH 994 0
DWIDTH 14 0
BBX 14 26 0 -6
BITMAP
0000
0000
0000
0000
0000
0000
3FF0
3FF0
0000
0000
0F00
0F00
0300
0300
0300
0300
0300
0300
0300
0300
3FF0
3FF0
0000
0000
0000
0000
ENDCHAR
STARTCHAR Ibreve
ENCODING 300
SWIDTH 994 0
DWIDTH 14 0
BBX 14 26 0 -6
BITMAP
0000
0000
3030
3030
0FC0
0FC0
0000
0000
3FF0
3FF0
0300
0300
0300
0300
0300
0300
0300
0300
0300
0300
3FF0
3FF0
0000
0000
0000
0000
ENDCHAR
STARTCHAR ibreve
ENCODING 301
SWIDTH 994 0
DWIDTH 14 0
BBX 14 26 0 -6
BITMAP
0000
0000
0000
0000
3030
3030
0FC0
0FC0
0000
0000
0F00
0F00
0300
0300
0300
0300
0300
0300
0300
0300
3FF0
3FF0
0000
0000
0000
0000
ENDCHAR
STARTCHAR Iogonek
ENCODING 302
SWIDTH 994 0
DWIDTH 14 0
BBX 14 26 0 -6
BITMAP
0000
0000
0000
0000
3FF0
3FF0
0300
0300
0300
0300
0300
0300
0300
0300
0300
0300
0300
0300
0300
0300
3FF0
3FF0
0C00
0C00
03C0
03C0
ENDCHAR
STARTCHAR iogonek
ENCODING 303
SWIDTH 994 0
DWIDTH 14 0
BBX 14 26 0 -6
BITMAP
0000
0000
0000
0000
0000
0000
0300
0300
0000
0000
0F00
0F00
0300
0300
0300
0300
0300
0300
0300
0300
3FF0
3FF0
0C00
0C00
03C0
03C0
ENDCHAR
STARTCHAR Idotaccent
ENCODING 304
SWIDTH 994 0
DWIDTH 14 0
BBX 14 26 0 -6
BITMAP
0000
0000
0300
0300
0000
0000
3FF0
3FF0
0300
0300
0300
0300
0300
0300
0300
0300
0300
0300
0300
0300
3FF0
3FF0
0000
0000
0000
0000
ENDCHAR
STARTCHAR dotlessi
ENCODING 305
SWIDTH 994 0
DWIDTH 14 0
BBX 14 26 0 -6
BITMAP
0000
0000
0000
0000
0000
0000
0000
0000
0000
0000
0F00
0F00
0300
0300
0300
0300
0300
0300
0300
0300
3FF0
3FF0
0000
0000
0000
0000
ENDCHAR
STARTCHAR IJ
ENCODING 306
SWIDTH 994 0
DWIDTH 14 0
BBX 14 26 0 -6
BITMAP
0000
0000
0000
0000
C3F0
C3F0
C0C0
C0C0
C0C0
C0C0
C0C0
C0C0
C0C0
C0C0
C0C0
C0C0
C0C0
C0C0
CCC0
CCC0
C300
C300
0000
0000
0000
0000
ENDCHAR
STARTCHAR ij
ENCODING 307
SWIDTH 994 0
DWIDTH 14 0
BBX 14 26 0 -6
BITMAP
0000
0000
0000
0000
0000
0000
3030
3030
0000
0000
30F0
30F0
3030
3030
3030
3030
3030
3030
3030
3030
3330
3330
0330
0330
00C0
00C0
ENDCHAR
STARTCHAR Jcircumflex
ENCODING 308
SWIDTH 994 0
DWIDTH 14 0
BBX 14 26 0 -6
BITMAP
0000
0000
03C0
03C0
0C30
0C30
0000
0000
03F0
03F0
00C0
00C0
00C0
00C0
00C0
00C0
00C0
00C0
C0C0
C0C0
3F00
3F00
0000
0000
0000
0000
ENDCHAR
STARTCHAR jcircumflex
ENCODING 309
SWIDTH 994 0
DWIDTH 14 0
BBX 14 26 0 -6
BITMAP
0000
0000
0000
0000
03C0
03C0
0C30
0C30
0000
0000
03C0
03C0
00C0
00C0
00C0
00C0
00C0
00C0
00C0
00C0
C0C0
C0C0
C0C0
C0C0
3F00
3F00
ENDCHAR
STARTCHAR Kcommaaccent
ENCODING 310
SWIDTH 994 0
DWIDTH 14 0
BBX 14 26 0 -6
BITMAP
0000
0000
0000
0000
C030
C030
C0C0
C0C0
C300
C300
CC00
CC00
F000
F000
CC00
CC00
C300
C300
C0C0
C0C0
C030
C030
3000
3000
C000
C000
ENDCHAR
STARTCHAR kcommaaccent
ENCODING 311
SWIDTH 994 0
DWIDTH 14 0
BBX 14 26 0 -6
BITMAP
0000
0000
0000
0000
C000
C000
C000
C000
C000
C000
C0C0
C0C0
C300
C300
FC00
FC00
C300
C300
C0C0
C0C0
C030
C030
3000
3000
C000
C000
ENDCHAR
STARTCHAR kgreenlandic
ENCODING 312
SWIDTH 994 0
DWIDTH 14 0
BBX 14 26 0 -6
BITMAP
0000
0000
0000
0000
0000
0000
0000
0000
C030
C030
C0C0
C0C0
C300
C300
FC00
FC00
C300
C300
C0C0
C0C0
C030
C030
0000
0000
0000
0000
ENDCHAR
STARTCHAR Lacute
ENCODING 313
SWIDTH 994 0
DWIDTH 14 0
BBX 14 26 0 -6
BITMAP
0000
0000
3000
3000
C000
C000
0000
0000
C000
C000
C000
C000
C000
C000
C000
C000
C000
C000
C000
C000
FFF0
FFF0
0000
0000
0000
0000
ENDCHAR
STARTCHAR lacute
ENCODING 314
SWIDTH 994 0
DWIDTH 14 0
BBX 14 26 0 -6
BITMAP
0000
0000
0300
0300
0C00
0C00
0000
0000
0F00
0F00
0300
0300
0300
0300
0300
0300
0300
0300
0300
0300
3FF0
3FF0
0000
0000
0000
0000
ENDCHAR
STARTCHAR Lcommaaccent
ENCODING 315
SWIDTH 994 0
DWIDTH 14 0
BBX 14 26 0 -6
BITMAP
0000
0000
0000
0000
C000
C000
C000
C000
C000
C000
C000
C000
C000
C000
C000
C000
C000
C000
C000
C000
FFF0
FFF0
0300
0300
0C00
0C00
ENDCHAR
STARTCHAR lcommaaccent
ENCODING 316
SWIDTH 994 0
DWIDTH 14 0
BBX 14 26 0 -6
BITMAP
0000
0000
0000
0000
0F00
0F00
0300
0300
0300
0300
0300
0300
0300
0300
0300
0300
0300
0300
0300
0300
3FF0
3FF0
0300
0300
0C00
0C00
ENDCHAR
STARTCHAR Lcaron
ENCODING 317
SWIDTH 994 0
DWIDTH 14 0
BBX 14 26 0 -6
BITMAP
0000
0000
C300
C300
3C00
3C00
0000
0000
C000
C000
C000
C000
C000
C000
C000
C000
C000
C000
C000
C000
FFF0
FFF0
0000
0000
0000
0000
ENDCHAR
STARTCHAR lcaron
ENCODING 318
SWIDTH 994 0
DWIDTH 14 0
BBX 14 26 0 -6
BITMAP
0000
0000
30C0
30C0
0F00
0F00
0000
0000
0F00
0F00
0300
0300
0300
0300
0300
0300
0300
0300
0300
0300
3FF0
3FF0
0000
0000
0000
0000
ENDCHAR
STARTCHAR Ldot
ENCODING 319
SWIDTH 994 0
DWIDTH 14 0
BBX 14 26 0 -6
BITMAP
0000
0000
0000
0000
C000
C000
C000
C000
C000
C000
C300
C300
C300
C300
C000
C000
C000
C000
C000
C000
FFF0
FFF0
0000
0000
0000
0000
ENDCHAR
STARTCHAR ldot
ENCODING 320
SWIDTH 994 0
DWIDTH 14 0
BBX 14 26 0 -6
BITMAP
0000
0000
0000
0000
3C00
3C00
0C00
0C00
0C00
0C00
0C30
0C30
0C30
0C30
0C00
0C00
0C00
0C00
0C00
0C00
FFC0
FFC0
0000
0000
0000
0000
ENDCHAR
STARTCHAR Lslash
ENCODING 321
SWIDTH 994 0
DWIDTH 14 0
BBX 14 26 0 -6
BITMAP
0000
0000
0000
0000
3000
3000
3000
3000
3300
3300
3C00
3C00
F000
F000
3000
3000
3000
3000
3000
3000
3FF0
3FF0
0000
0000
0000
0000
ENDCHAR
STARTCHAR lslash
ENCODING 322
SWIDTH 994 0
DWIDTH 14 0
BBX 14 26 0 -6
BITMAP
0000
0000
0000
0000
3C00
3C00
0C00
0C00
0CC0
0CC0
0F00
0F00
3C00
3C00
0C00
0C00
0C00
0C00
0C00
0C00
FFC0
FFC0
0000
0000
0000
0000
ENDCHAR
STARTCHAR Nacute
ENCODING 323
SWIDTH 994 0
DWIDTH 14 0
BBX 14 26 0 -6
BITMAP
0000
0000
0300
0300
0C00
0C00
0000
0000
C030
C030
F030
F030
CC30
CC30
CC30
CC30
C330
C330
C0F0
C0F0
C030
C030
0000
0000
0000
0000
ENDCHAR
STARTCHAR nacute
ENCODING 324
SWIDTH 994 0
DWIDTH 14 0
BBX 14 26 0 -6
BITMAP
0000
0000
0000
0000
0300
0300
0C00
0C00
0000
0000
CFC0
CFC0
F030
F030
C030
C030
C030
C030
C030
C030
C030
C030
0000
0000
0000
0000
ENDCHAR
STARTCHAR Ncommaaccent
ENCODING 325
SWIDTH 994 0
DWIDTH 14 0
BBX 14 26 0 -6
BITMAP
0000
0000
0000
0000
C030
C030
C030
C030
F030
F030
CC30
CC30
C330
C330
C0F0
C0F0
C030
C030
C030
C030
C030
C030
3000
3000
C000
C000
ENDCHAR
STARTCHAR ncommaaccent
ENCODING 326
SWIDTH 994 0
DWIDTH 14 0
BBX 14 26 0 -6
BITMAP
0000
0000
0000
0000
0000
0000
0000
0000
0000
0000
CFC0
CFC0
F030
F030
C030
C030
C030
C030
C030
C030
C030
C030
3000
3000
C000
C000
ENDCHAR
STARTCHAR Ncaron
ENCODING 327
SWIDTH 994 0
DWIDTH 14 0
BBX 14 26 0 -6
BITMAP
0000
0000
30C0
30C0
0F00
0F00
0000
0000
C030
C030
F030
F030
CC30
CC30
CC30
CC30
C330
C330
C0F0
C0F0
C030
C030
0000
0000
0000
0000
ENDCHAR
STARTCHAR ncaron
ENCODING 328
SWIDTH 994 0
DWIDTH 14 0
BBX 14 26 0 -6
BITMAP
0000
0000
0000
0000
30C0
30C0
0F00
0F00
0000
0000
CFC0
CFC0
F030
F030
C030
C030
C030
C030
C030
C030
C030
C030
0000
0000
0000
0000
ENDCHAR
STARTCHAR napostrophe
ENCODING 329
SWIDTH 994 0
DWIDTH 14 0
BBX 14 26 0 -6
BITMAP
0000
0000
F000
F000
3000
3000
C000
C000
0000
0000
33C0
33C0
3C30
3C30
3030
3030
3030
3030
3030
3030
3030
3030
0000
0000
0000
0000
ENDCHAR
STARTCHAR Eng
ENCODING 330
SWIDTH 994 0
DWIDTH 14 0
BBX 14 26 0 -6
BITMAP
0000
0000
0000
0000
C030
C030
C030
C030
F030
F030
CC30
CC30
C330
C330
C0F0
C0F0
C030
C030
C030
C030
C030
C030
0030
0030
03C0
03C0
ENDCHAR
STARTCHAR eng
ENCODING 331
SWIDTH 994 0
DWIDTH 14 0
BBX 14 26 0 -6
BITMAP
0000
0000
0000
0000
0000
0000
0000
0000
0000
0000
CFC0
CFC0
F030
F030
C030
C030
C030
C030
C030
C030
C030
C030
0030
0030
03C0
03C0
ENDCHAR
STARTCHAR Omacron
ENCODING 332
SWIDTH 994 0
DWIDTH 14 0
BBX 14 26 0 -6
BITMAP
0000
0000
0000
0000
3FC0
3FC0
0000
0000
3FC0
3FC0
C030
C030
C030
C030
C030
C030
C030
C030
C030
C030
3FC0
3FC0
0000
0000
0000
0000
ENDCHAR
STARTCHAR omacron
ENCODING 333
SWIDTH 994 0
DWIDTH 14 0
BBX 14 26 0 -6
BITMAP
0000
0000
0000
0000
0000
0000
3FC0
3FC0
0000
0000
3FC0
3FC0
C030
C030
C030
C030
C030
C030
C030
C030
3FC0
3FC0
0000
0000
0000
0000
ENDCHAR
STARTCHAR Obreve
ENCODING 334
SWIDTH 994 0
DWIDTH 14 0
BBX 14 26 0 -6
BITMAP
0000
0000
C030
C030
3FC0
3FC0
0000
0000
3FC0
3FC0
C030
C030
C030
C030
C030
C030
C030
C030
C030
C030
3FC0
3FC0
0000
0000
0000
0000
ENDCHAR
STARTCHAR obreve
ENCODING 335
SWIDTH 994 0
DWIDTH 14 0
BBX 14 26 0 -6
BITMAP
0000
0000
0000
0000
C030
C030
3FC0
3FC0
0000
0000
3FC0
3FC0
C030
C030
C030
C030
C030
C030
C030
C030
3FC0
3FC0
0000
0000
0000
0000
ENDCHAR
STARTCHAR Ohungarumlaut
ENCODING 336
SWIDTH 994 0
DWIDTH 14 0
BBX 14 26 0 -6
BITMAP
0000
0000
0C30
0C30
30C0
30C0
0000
0000
3FC0
3FC0
C030
C030
C030
C030
C030
C030
C030
C030
C030
C030
3FC0
3FC0
0000
0000
0000
0000
ENDCHAR
STARTCHAR ohungarumlaut
ENCODING 337
SWIDTH 994 0
DWIDTH 14 0
BBX 14 26 0 -6
BITMAP
0000
0000
0000
0000
0C30
0C30
30C0
30C0
0000
0000
3FC0
3FC0
C030
C030
C030
C030
C030
C030
C030
C030
3FC0
3FC0
0000
0000
0000
0000
ENDCHAR
STARTCHAR OE
ENCODING 338
SWIDTH 994 0
DWIDTH 14 0
BBX 14 26 0 -6
BITMAP
0000
0000
0000
0000
3FF0
3FF0
C300
C300
C300
C300
C300
C300
C3F0
C3F0
C300
C300
C300
C300
C300
C300
3FF0
3FF0
0000
0000
0000
0000
ENDCHAR
STARTCHAR oe
ENCODING 339
SWIDTH 994 0
DWIDTH 14 0
BBX 14 26 0 -6
BITMAP
0000
0000
0000
0000
0000
0000
0000
0000
0000
0000
3CC0
3CC0
C330
C330
C3F0
C3F0
C300
C300
C330
C330
3CC0
3CC0
0000
0000
0000
0000
ENDCHAR
STARTCHAR Racute
ENCODING 340
SWIDTH 994 0
DWIDTH 14 0
BBX 14 26 0 -6
BITMAP
0000
0000
0300
0300
0C00
0C00
0000
0000
FFC0
FFC0
C030
C030
C030
C030
FFC0
FFC0
C300
C300
C0C0
C0C0
C030
C030
0000
0000
0000
0000
ENDCHAR
STARTCHAR racute
ENCODING 341
SWIDTH 994 0
DWIDTH 14 0
BBX 14 26 0 -6
BITMAP
0000
0000
0000
0000
0300
0300
0C00
0C00
0000
0000
CFC0
CFC0
3030
3030
3000
3000
3000
3000
3000
3000
3000
3000
0000
0000
0000
0000
ENDCHAR
STARTCHAR Rcommaaccent
ENCODING 342
SWIDTH 994 0
DWIDTH 14 0
BBX 14 26 0 -6
BITMAP
0000
0000
0000
0000
FFC0
FFC0
C030
C030
C030
C030
C030
C030
FFF0
FFF0
CC00
CC00
C300
C300
C0C0
C0C0
C030
C030
3000
3000
C000
C000
ENDCHAR
STARTCHAR rcommaaccent
ENCODING 343
SWIDTH 994 0
DWIDTH 14 0
BBX 14 26 0 -6
BITMAP
0000
0000
0000
0000
0000
0000
0000
0000
0000
0000
CFC0
CFC0
3030
3030
3000
3000
3000
3000
3000
3000
3000
3000
3000
3000
C000
C000
ENDCHAR
STARTCHAR Rcaron
ENCODING 344
SWIDTH 994 0
DWIDTH 14 0
BBX 14 26 0 -6
BITMAP
0000
0000
30C0
30C0
0F00
0F00
0000
0000
FFC0
FFC0
C030
C030
C030
C030
FFC0
FFC0
C300
C300
C0C0
C0C0
C030
C030
0000
0000
0000
0000
ENDCHAR
STARTCHAR rcaron
ENCODING 345
SWIDTH 994 0
DWIDTH 14 0
BBX 14 26 0 -6
BITMAP
0000
0000
0000
0000
30C0
30C0
0F00
0F00
0000
0000
CFC0
CFC0
3030
3030
3000
3000
3000
3000
3000
3000
3000
3000
0000
0000
0000
0000
ENDCHAR
STARTCHAR Sacute
ENCODING 346
SWIDTH 994 0
DWIDTH 14 0
BBX 14 26 0 -6
BITMAP
0000
0000
0300
0300
0C00
0C00
0000
0000
3FC0
3FC0
C030
C030
C000
C000
3FC0
3FC0
0030
0030
C030
C030
3FC0
3FC0
0000
0000
0000
0000
ENDCHAR
STARTCHAR sacute
ENCODING 347
SWIDTH 994 0
DWIDTH 14 0
BBX 14 26 0 -6
BITMAP
0000
0000
0000
0000
0300
0300
0C00
0C00
0000
0000
3FC0
3FC0
C030
C030
3C00
3C00
03C0
03C0
C030
C030
3FC0
3FC0
0000
0000
0000
0000
ENDCHAR
STARTCHAR Scircumflex
ENCODING 348
SWIDTH 994 0
DWIDTH 14 0
BBX 14 26 0 -6
BITMAP
0000
0000
0F00
0F00
30C0
30C0
0000
0000
3FC0
3FC0
C030
C030
C000
C000
3FC0
3FC0
0030
0030
C030
C030
3FC0
3FC0
0000
0000
0000
0000
ENDCHAR
STARTCHAR scircumflex
ENCODING 349
SWIDTH 994 0
DWIDTH 14 0
BBX 14 26 0 -6
BITMAP
0000
0000
0000
0000
0F00
0F00
30C0
30C0
0000
0000
3FC0
3FC0
C030
C030
3C00
3C00
03C0
03C0
C030
C030
3FC0
3FC0
0000
0000
0000
0000
ENDCHAR
STARTCHAR Scedilla
ENCODING 350
SWIDTH 994 0
DWIDTH 14 0
BBX 14 26 0 -6
BITMAP
0000
0000
0000
0000
3FC0
3FC0
C030
C030
C000
C000
C000
C000
3FC0
3FC0
0030
0030
0030
0030
C030
C030
3FC0
3FC0
0300
0300
0C00
0C00
ENDCHAR
STARTCHAR scedilla
ENCODING 351
SWIDTH 994 0
DWIDTH 14 0
BBX 14 26 0 -6
BITMAP
0000
0000
0000
0000
0000
0000
0000
0000
0000
0000
3FC0
3FC0
C030
C030
3C00
3C00
03C0
03C0
C030
C030
3FC0
3FC0
0300
0300
0C00
0C00
ENDCHAR
STARTCHAR Scaron
ENCODING 352
SWIDTH 994 0
DWIDTH 14 0
BBX 14 26 0 -6
BITMAP
0000
0000
30C0
30C0
0F00
0F00
0000
0000
3FC0
3FC0
C030
C030
C000
C000
3FC0
3FC0
0030
0030
C030
C030
3FC0
3FC0
0000
0000
0000
0000
ENDCHAR
STARTCHAR scaron
ENCODING 353
SWIDTH 994 0
DWIDTH 14 0
BBX 14 26 0 -6
BITMAP
0000
0000
0000
0000
30C0
30C0
0F00
0F00
0000
0000
3FC0
3FC0
C030
C030
3C00
3C00
03C0
03C0
C030
C030
3FC0
3FC0
0000
0000
0000
0000
ENDCHAR
STARTCHAR Tcommaaccent
ENCODING 354
SWIDTH 994 0
DWIDTH 14 0
BBX 14 26 0 -6
BITMAP
0000
0000
0000
0000
3FF0
3FF0
0300
0300
0300
0300
0300
0300
0300
0300
0300
0300
0300
0300
0300
0300
0300
0300
00C0
00C0
0300
0300
ENDCHAR
STARTCHAR tcommaaccent
ENCODING 355
SWIDTH 994 0
DWIDTH 14 0
BBX 14 26 0 -6
BITMAP
0000
0000
0000
0000
0000
0000
3000
3000
3000
3000
FF00
FF00
3000
3000
3000
3000
3000
3000
3030
3030
0FC0
0FC0
0300
0300
0C00
0C00
ENDCHAR
STARTCHAR Tcaron
ENCODING 356
SWIDTH 994 0
DWIDTH 14 0
BBX 14 26 0 -6
BITMAP
0000
0000
0C30
0C30
03C0
03C0
0000
0000
3FF0
3FF0
0300
0300
0300
0300
0300
0300
0300
0300
0300
0300
0300
0300
0000
0000
0000
0000
ENDCHAR
STARTCHAR tcaron
ENCODING 357
SWIDTH 994 0
DWIDTH 14 0
BBX 14 26 0 -6
BITMAP
0000
0000
30C0
30C0
0F00
0F00
0000
0000
3000
3000
FF00
FF00
3000
3000
3000
3000
3000
3000
3030
3030
0FC0
0FC0
0000
0000
0000
0000
ENDCHAR
STARTCHAR Tbar
ENCODING 358
SWIDTH 994 0
DWIDTH 14 0
BBX 14 26 0 -6
BITMAP
0000
0000
0000
0000
3FF0
3FF0
0300
0300
0300
0300
0300
0300
3FF0
3FF0
0300
0300
0300
0300
0300
0300
0300
0300
0000
0000
0000
0000
ENDCHAR
STARTCHAR tbar
ENCODING 359
SWIDTH 994 0
DWIDTH 14 0
BBX 14 26 0 -6
BITMAP
0000
0000
0000
0000
3000
3000
FF00
FF00
3000
3000
3000
3000
FF00
FF00
3000
3000
3000
3000
3030
3030
0FC0
0FC0
0000
0000
0000
0000
ENDCHAR
STARTCHAR Utilde
ENCODING 360
SWIDTH 994 0
DWIDTH 14 0
BBX 14 26 0 -6
BITMAP
0000
0000
3C30
3C30
C3C0
C3C0
0000
0000
C030
C030
C030
C030
C030
C030
C030
C030
C030
C030
C030
C030
3FC0
3FC0
0000
0000
0000
0000
ENDCHAR
STARTCHAR utilde
ENCODING 361
SWIDTH 994 0
DWIDTH 14 0
BBX 14 26 0 -6
BITMAP
0000
0000
0000
0000
3C30
3C30
C3C0
C3C0
0000
0000
C030
C030
C030
C030
C030
C030
C030
C030
C0F0
C0F0
3F30
3F30
0000
0000
0000
0000
ENDCHAR
STARTCHAR Umacron
ENCODING 362
SWIDTH 994 0
DWIDTH 14 0
BBX 14 26 0 -6
BITMAP
0000
0000
0000
0000
3FC0
3FC0
0000
0000
C030
C030
C030
C030
C030
C030
C030
C030
C030
C030
C030
C030
3FC0
3FC0
0000
0000
0000
0000
ENDCHAR
STARTCHAR umacron
ENCODING 363
SWIDTH 994 0
DWIDTH 14 0
BBX 14 26 0 -6
BITMAP
0000
0000
0000
0000
0000
0000
3FC0
3FC0
0000
0000
C030
C030
C030
C030
C030
C030
C030
C030
C0F0
C0F0
3F30
3F30
0000
0000
0000
0000
ENDCHAR
STARTCHAR Ubreve
ENCODING 364
SWIDTH 994 0
DWIDTH 14 0
BBX 14 26 0 -6
BITMAP
0000
0000
C030
C030
3FC0
3FC0
0000
0000
C030
C030
C030
C030
C030
C030
C030
C030
C030
C030
C030
C030
3FC0
3FC0
0000
0000
0000
0000
ENDCHAR
STARTCHAR ubreve
ENCODING 365
SWIDTH 994 0
DWIDTH 14 0
BBX 14 26 0 -6
BITMAP
0000
0000
0000
0000
C030
C030
3FC0
3FC0
0000
0000
C030
C030
C030
C030
C030
C030
C030
C030
C0F0
C0F0
3F30
3F30
0000
0000
0000
0000
ENDCHAR
STARTCHAR Uring
ENCODING 366
SWIDTH 994 0
DWIDTH 14 0
BBX 14 26 0 -6
BITMAP
0000
0000
0F00
0F00
30C0
30C0
0F00
0F00
C030
C030
C030
C030
C030
C030
C030
C030
C030
C030
C030
C030
3FC0
3FC0
0000
0000
0000
0000
ENDCHAR
STARTCHAR uring
ENCODING 367
SWIDTH 994 0
DWIDTH 14 0
BBX 14 26 0 -6
BITMAP
0000
0000
0F00
0F00
30C0
30C0
0F00
0F00
0000
0000
C030
C030
C030
C030
C030
C030
C030
C030
C0F0
C0F0
3F30
3F30
0000
0000
0000
0000
ENDCHAR
STARTCHAR Uhungarumlaut
ENCODING 368
SWIDTH 994 0
DWIDTH 14 0
BBX 14 26 0 -6
BITMAP
0000
0000
0C30
0C30
30C0
30C0
0000
0000
C030
C030
C030
C030
C030
C030
C030
C030
C030
C030
C030
C030
3FC0
3FC0
0000
0000
0000
0000
ENDCHAR
STARTCHAR uhungarumlaut
ENCODING 369
SWIDTH 994 0
DWIDTH 14 0
BBX 14 26 0 -6
BITMAP
0000
0000
0000
0000
0C30
0C30
30C0
30C0
0000
0000
C030
C030
C030
C030
C030
C030
C030
C030
C0F0
C0F0
3F30
3F30
0000
0000
0000
0000
ENDCHAR
STARTCHAR Uogonek
ENCODING 370
SWIDTH 994 0
DWIDTH 14 0
BBX 14 26 0 -6
BITMAP
0000
0000
0000
0000
C030
C030
C030
C030
C030
C030
C030
C030
C030
C030
C030
C030
C030
C030
C030
C030
3FC0
3FC0
0C00
0C00
0300
0300
ENDCHAR
STARTCHAR uogonek
ENCODING 371
SWIDTH 994 0
DWIDTH 14 0
BBX 14 26 0 -6
BITMAP
0000
0000
0000
0000
0000
0000
0000
0000
0000
0000
C030
C030
C030
C030
C030
C030
C030
C030
C0F0
C0F0
3F30
3F30
0C00
0C00
0300
0300
ENDCHAR
STARTCHAR Wcircumflex
ENCODING 372
SWIDTH 994 0
DWIDTH 14 0
BBX 14 26 0 -6
BITMAP
0000
0000
0F00
0F00
30C0
30C0
0000
0000
C030
C030
C030
C030
CF30
CF30
CF30
CF30
F0F0
F0F0
F0F0
F0F0
C030
C030
0000
0000
0000
0000
ENDCHAR
STARTCHAR wcircumflex
ENCODING 373
SWIDTH 994 0
DWIDTH 14 0
BBX 14 26 0 -6
BITMAP
0000
0000
0000
0000
0300
0300
0CC0
0CC0
0000
0000
3030
3030
3030
3030
3330
3330
3330
3330
3330
3330
0CC0
0CC0
0000
0000
0000
0000
ENDCHAR
STARTCHAR Ycircumflex
ENCODING 374
SWIDTH 994 0
DWIDTH 14 0
BBX 14 26 0 -6
BITMAP
0000
0000
0300
0300
0CC0
0CC0
0000
0000
3030
3030
3030
3030
0CC0
0CC0
0300
0300
0300
0300
0300
0300
0300
0300
0000
0000
0000
0000
ENDCHAR
STARTCHAR ycircumflex
ENCODING 375
SWIDTH 994 0
DWIDTH 14 0
BBX 14 26 0 -6
BITMAP
0000
0000
0000
0000
0F00
0F00
30C0
30C0
0000
0000
C030
C030
C030
C030
C030
C030
C0F0
C0F0
3F30
3F30
0030
0030
C030
C030
3FC0
3FC0
ENDCHAR
STARTCHAR Ydieresis
ENCODING 376
SWIDTH 994 0
DWIDTH 14 0
BBX 14 26 0 -6
BITMAP
0000
0000
3030
3030
3030
3030
0000
0000
3030
3030
3030
3030
0CC0
0CC0
0300
0300
0300
0300
0300
0300
0300
0300
0000
0000
0000
0000
ENDCHAR
STARTCHAR Zacute
ENCODING 377
SWIDTH 994 0
DWIDTH 14 0
BBX 14 26 0 -6
BITMAP
0000
0000
0300
0300
0C00
0C00
0000
0000
FFF0
FFF0
00C0
00C0
0300
0300
0C00
0C00
3000
3000
C000
C000
FFF0
FFF0
0000
0000
0000
0000
ENDCHAR
STARTCHAR zacute
ENCODING 378
SWIDTH 994 0
DWIDTH 14 0
BBX 14 26 0 -6
BITMAP
0000
0000
0000
0000
0300
0300
0C00
0C00
0000
0000
FFF0
FFF0
00C0
00C0
0300
0300
0C00
0C00
3000
3000
FFF0
FFF0
0000
0000
0000
0000
ENDCHAR
STARTCHAR Zdotaccent
ENCODING 379
SWIDTH 994 0
DWIDTH 14 0
BBX 14 26 0 -6
BITMAP
0000
0000
0F00
0F00
0000
0000
FFF0
FFF0
0030
0030
00C0
00C0
0300
0300
0C00
0C00
3000
3000
C000
C000
FFF0
FFF0
0000
0000
0000
0000
ENDCHAR
STARTCHAR zdotaccent
ENCODING 380
SWIDTH 994 0
DWIDTH 14 0
BBX 14 26 0 -6
BITMAP
0000
0000
0000
0000
0000
0000
0F00
0F00
0000
0000
FFF0
FFF0
00C0
00C0
0300
0300
0C00
0C00
3000
3000
FFF0
FFF0
0000
0000
0000
0000
ENDCHAR
STARTCHAR Zcaron
ENCODING 381
SWIDTH 994 0
DWIDTH 14 0
BBX 14 26 0 -6
BITMAP
0000
0000
30C0
30C0
0F00
0F00
0000
0000
FFF0
FFF0
00C0
00C0
0300
0300
0C00
0C00
3000
3000
C000
C000
FFF0
FFF0
0000
0000
0000
0000
ENDCHAR
STARTCHAR zcaron
ENCODING 382
SWIDTH 994 0
DWIDTH 14 0
BBX 14 26 0 -6
BITMAP
0000
0000
0000
0000
30C0
30C0
0F00
0F00
0000
0000
FFF0
FFF0
00C0
00C0
0300
0300
0C00
0C00
3000
3000
FFF0
FFF0
0000
0000
0000
0000
ENDCHAR
STARTCHAR longs
ENCODING 383
SWIDTH 994 0
DWIDTH 14 0
BBX 14 26 0 -6
BITMAP
0000
0000
0000
0000
0F00
0F00
30C0
30C0
3000
3000
F000
F000
3000
3000
3000
3000
3000
3000
3000
3000
3000
3000
0000
0000
0000
0000
ENDCHAR
STARTCHAR uni0180
ENCODING 384
SWIDTH 994 0
DWIDTH 14 0
BBX 14 26 0 -6
BITMAP
0000
0000
0000
0000
3000
3000
FF00
FF00
3000
3000
3FC0
3FC0
3030
3030
3030
3030
3030
3030
3030
3030
3FC0
3FC0
0000
0000
0000
0000
ENDCHAR
STARTCHAR uni0181
ENCODING 385
SWIDTH 994 0
DWIDTH 14 0
BBX 14 26 0 -6
BITMAP
0000
0000
0000
0000
FFC0
FFC0
0C30
0C30
0C30
0C30
0C30
0C30
0FC0
0FC0
0C30
0C30
0C30
0C30
0C30
0C30
0FC0
0FC0
0000
0000
0000
0000
ENDCHAR
STARTCHAR uni0182
ENCODING 386
SWIDTH 994 0
DWIDTH 14 0
BBX 14 26 0 -6
BITMAP
0000
0000
0000
0000
FFC0
FFC0
3000
3000
3000
3000
3000
3000
3FC0
3FC0
3030
3030
3030
3030
3030
3030
FFC0
FFC0
0000
0000
0000
0000
ENDCHAR
STARTCHAR uni0183
ENCODING 387
SWIDTH 994 0
DWIDTH 14 0
BBX 14 26 0 -6
BITMAP
0000
0000
0000
0000
FFC0
FFC0
C000
C000
C000
C000
CFC0
CFC0
F030
F030
C030
C030
C030
C030
F030
F030
CFC0
CFC0
0000
0000
0000
0000
ENDCHAR
STARTCHAR uni0184
ENCODING 388
SWIDTH 994 0
DWIDTH 14 0
BBX 14 26 0 -6
BITMAP
0000
0000
0000
0000
0C00
0C00
3C00
3C00
FC00
FC00
FC00
FC00
0FC0
0FC0
0C30
0C30
0C30
0C30
0C30
0C30
3FC0
3FC0
0000
0000
0000
0000
ENDCHAR
STARTCHAR uni0185
ENCODING 389
SWIDTH 994 0
DWIDTH 14 0
BBX 14 26 0 -6
BITMAP
0000
0000
0000
0000
3000
3000
F000
F000
F000
F000
F3C0
F3C0
3C30
3C30
3030
3030
3030
3030
3C30
3C30
33C0
33C0
0000
0000
0000
0000
ENDCHAR
STARTCHAR uni0186
ENCODING 390
SWIDTH 994 0
DWIDTH 14 0
BBX 14 26 0 -6
BITMAP
0000
0000
0000
0000
3FC0
3FC0
C030
C030
0030
0030
0030
0030
0030
0030
0030
0030
0030
0030
C030
C030
3FC0
3FC0
0000
0000
0000
0000
ENDCHAR
STARTCHAR uni0187
ENCODING 391
SWIDTH 994 0
DWIDTH 14 0
BBX 14 26 0 -6
BITMAP
0000
0000
003C
003C
3FF0
3FF0
C030
C030
C000
C000
C000
C000
C000
C000
C000
C000
C000
C000
C030
C030
3FC0
3FC0
0000
0000
0000
0000
ENDCHAR
STARTCHAR uni0188
ENCODING 392
SWIDTH 994 0
DWIDTH 14 0
BBX 14 26 0 -6
BITMAP
0000
0000
0000
0000
0000
0000
0000
0000
003C
003C
3FF0
3FF0
C030
C030
C000
C000
C000
C000
C030
C030
3FC0
3FC0
0000
0000
0000
0000
ENDCHAR
STARTCHAR uni0189
ENCODING 393
SWIDTH 994 0
DWIDTH 14 0
BBX 14 26 0 -6
BITMAP
0000
0000
0000
0000
FFC0
FFC0
3030
3030
3030
3030
3030
3030
FC30
FC30
3030
3030
3030
3030
3030
3030
FFC0
FFC0
0000
0000
0000
0000
ENDCHAR
STARTCHAR uni018A
ENCODING 394
SWIDTH 994 0
DWIDTH 14 0
BBX 14 26 0 -6
BITMAP
0000
0000
0000
0000
FFC0
FFC0
0C30
0C30
0C30
0C30
0C30
0C30
0C30
0C30
0C30
0C30
0C30
0C30
0C30
0C30
0FC0
0FC0
0000
0000
0000
0000
ENDCHAR
STARTCHAR uni018B
ENCODING 395
SWIDTH 994 0
DWIDTH 14 0
BBX 14 26 0 -6
BITMAP
0000
0000
0000
0000
3FF0
3FF0
0030
0030
0030
0030
3FF0
3FF0
C030
C030
C030
C030
C030
C030
C030
C030
3FF0
3FF0
0000
0000
0000
0000
ENDCHAR
STARTCHAR uni018C
ENCODING 396
SWIDTH 994 0
DWIDTH 14 0
BBX 14 26 0 -6
BITMAP
0000
0000
0000
0000
0FF0
0FF0
0030
0030
0030
0030
0F30
0F30
30F0
30F0
3030
3030
3030
3030
30F0
30F0
0F30
0F30
0000
0000
0000
0000
ENDCHAR
STARTCHAR uni018D
ENCODING 397
SWIDTH 994 0
DWIDTH 14 0
BBX 14 26 0 -6
BITMAP
0000
0000
0000
0000
0000
0000
0000
0000
0000
0000
3FC0
3FC0
C030
C030
C030
C030
C030
C030
C030
C030
3FC0
3FC0
30C0
30C0
0F00
0F00
ENDCHAR
STARTCHAR uni018E
ENCODING 398
SWIDTH 994 0
DWIDTH 14 0
BBX 14 26 0 -6
BITMAP
0000
0000
0000
0000
FFF0
FFF0
0030
0030
0030
0030
0030
0030
0FF0
0FF0
0030
0030
0030
0030
0030
0030
FFF0
FFF0
0000
0000
0000
0000
ENDCHAR
STARTCHAR uni018F
ENCODING 399
SWIDTH 994 0
DWIDTH 14 0
BBX 14 26 0 -6
BITMAP
0000
0000
0000
0000
3FC0
3FC0
C030
C030
0030
0030
0030
0030
FFF0
FFF0
C030
C030
C030
C030
C030
C030
3FC0
3FC0
0000
0000
0000
0000
ENDCHAR
STARTCHAR uni0190
ENCODING 400
SWIDTH 994 0
DWIDTH 14 0
BBX 14 26 0 -6
BITMAP
0000
0000
0000
0000
3FC0
3FC0
C030
C030
C000
C000
C000
C000
3F00
3F00
C000
C000
C000
C000
C030
C030
3FC0
3FC0
0000
0000
0000
0000
ENDCHAR
STARTCHAR uni0191
ENCODING 401
SWIDTH 994 0
DWIDTH 14 0
BBX 14 26 0 -6
BITMAP
0000
0000
0000
0000
3FF0
3FF0
3000
3000
3000
3000
3000
3000
3F00
3F00
3000
3000
3000
3000
3000
3000
3000
3000
C000
C000
0000
0000
ENDCHAR
STARTCHAR florin
ENCODING 402
SWIDTH 994 0
DWIDTH 14 0
BBX 14 26 0 -6
BITMAP
0000
0000
0000
0000
03C0
03C0
0C30
0C30
0C00
0C00
0C00
0C00
3FC0
3FC0
0C00
0C00
0C00
0C00
0C00
0C00
CC00
CC00
3000
3000
0000
0000
ENDCHAR
STARTCHAR uni0193
ENCODING 403
SWIDTH 994 0
DWIDTH 14 0
BBX 14 26 0 -6
BITMAP
0000
0000
00F0
00F0
3FC0
3FC0
C0C0
C0C0
C000
C000
C000
C000
C000
C000
CFC0
CFC0
C0C0
C0C0
C3C0
C3C0
3CC0
3CC0
0000
0000
0000
0000
ENDCHAR
STARTCHAR uni0194
ENCODING 404
SWIDTH 994 0
DWIDTH 14 0
BBX 14 26 0 -6
BITMAP
0000
0000
0000
0000
C030
C030
C030
C030
C030
C030
30C0
30C0
30C0
30C0
30C0
30C0
0F00
0F00
30C0
30C0
30C0
30C0
0F00
0F00
0000
0000
ENDCHAR
STARTCHAR uni0195
ENCODING 405
SWIDTH 994 0
DWIDTH 14 0
BBX 14 26 0 -6
BITMAP
0000
0000
0000
0000
C000
C000
C000
C000
C000
C000
F0C0
F0C0
CC30
CC30
CC30
CC30
CC30
CC30
CC30
CC30
C3C0
C3C0
0000
0000
0000
0000
ENDCHAR
STARTCHAR uni0196
ENCODING 406
SWIDTH 994 0
DWIDTH 14 0
BBX 14 26 0 -6
BITMAP
0000
0000
0000
0000
3C00
3C00
0C00
0C00
0C00
0C00
0C00
0C00
0C00
0C00
0C00
0C00
0C00
0C00
0C00
0C00
03C0
03C0
0000
0000
0000
0000
ENDCHAR
STARTCHAR uni0197
ENCODING 407
SWIDTH 994 0
DWIDTH 14 0
BBX 14 26 0 -6
BITMAP
0000
0000
0000
0000
3FF0
3FF0
0300
0300
0300
0300
0300
0300
0FC0
0FC0
0300
0300
0300
0300
0300
0300
3FF0
3FF0
0000
0000
0000
0000
ENDCHAR
STARTCHAR uni0198
ENCODING 408
SWIDTH 994 0
DWIDTH 14 0
BBX 14 26 0 -6
BITMAP
0000
0000
0000
0000
C030
C030
C0CC
C0CC
C30C
C30C
CC00
CC00
F000
F000
CC00
CC00
C300
C300
C0C0
C0C0
C030
C030
0000
0000
0000
0000
ENDCHAR
STARTCHAR uni0199
ENCODING 409
SWIDTH 994 0
DWIDTH 14 0
BBX 14 26 0 -6
BITMAP
0000
0000
3C00
3C00
C300
C300
C000
C000
C000
C000
C0C0
C0C0
C300
C300
FC00
FC00
C300
C300
C0C0
C0C0
C030
C030
0000
0000
0000
0000
ENDCHAR
STARTCHAR uni019A
ENCODING 410
SWIDTH 994 0
DWIDTH 14 0
BBX 14 26 0 -6
BITMAP
0000
0000
0000
0000
0F00
0F00
0300
0300
0300
0300
0300
0300
3FF0
3FF0
0300
0300
0300
0300
0300
0300
3FF0
3FF0
0000
0000
0000
0000
ENDCHAR
STARTCHAR uni019B
ENCODING 411
SWIDTH 994 0
DWIDTH 14 0
BBX 14 26 0 -6
BITMAP
0000
0000
0030
0030
3CC0
3CC0
0300
0300
0F00
0F00
3300
3300
C3C0
C3C0
0CC0
0CC0
0CC0
0CC0
3030
3030
3030
3030
0000
0000
0000
0000
ENDCHAR
STARTCHAR uni019C
ENCODING 412
SWIDTH 994 0
DWIDTH 14 0
BBX 14 26 0 -6
BITMAP
0000
0000
0000
0000
3330
3330
3330
3330
3330
3330
3330
3330
3330
3330
3330
3330
3330
3330
3330
3330
0CF0
0CF0
0000
0000
0000
0000
ENDCHAR
STARTCHAR uni019D
ENCODING 413
SWIDTH 994 0
DWIDTH 14 0
BBX 14 26 0 -6
BITMAP
0000
0000
0000
0000
3030
3030
3030
3030
3C30
3C30
3330
3330
30F0
30F0
3030
3030
3030
3030
3030
3030
3030
3030
C000
C000
0000
0000
ENDCHAR
STARTCHAR uni019E
ENCODING 414
SWIDTH 994 0
DWIDTH 14 0
BBX 14 26 0 -6
BITMAP
0000
0000
0000
0000
0000
0000
0000
0000
0000
0000
CFC0
CFC0
F030
F030
C030
C030
C030
C030
C030
C030
C030
C030
0030
0030
0030
0030
ENDCHAR
STARTCHAR uni019F
ENCODING 415
SWIDTH 994 0
DWIDTH 14 0
BBX 14 26 0 -6
BITMAP
0000
0000
0000
0000
0000
0000
0000
0000
0000
0000
3FC0
3FC0
C030
C030
FFF0
FFF0
C030
C030
C030
C030
3FC0
3FC0
0000
0000
0000
0000
ENDCHAR
STARTCHAR Ohorn
ENCODING 416
SWIDTH 994 0
DWIDTH 14 0
BBX 14 26 0 -6
BITMAP
0000
0000
000C
000C
3FCC
3FCC
C030
C030
C030
C030
C030
C030
C030
C030
C030
C030
C030
C030
C030
C030
3FC0
3FC0
0000
0000
0000
0000
ENDCHAR
STARTCHAR ohorn
ENCODING 417
SWIDTH 994 0
DWIDTH 14 0
BBX 14 26 0 -6
BITMAP
0000
0000
0000
0000
0000
0000
0000
0000
000C
000C
3FCC
3FCC
C030
C030
C030
C030
C030
C030
C030
C030
3FC0
3FC0
0000
0000
0000
0000
ENDCHAR
STARTCHAR uni01A2
ENCODING 418
SWIDTH 994 0
DWIDTH 14 0
BBX 14 26 0 -6
BITMAP
0000
0000
0000
0000
3C00
3C00
C3C0
C3C0
C330
C330
C330
C330
C330
C330
C330
C330
C330
C330
C330
C330
3C30
3C30
0030
0030
0000
0000
ENDCHAR
STARTCHAR uni01A3
ENCODING 419
SWIDTH 994 0
DWIDTH 14 0
BBX 14 26 0 -6
BITMAP
0000
0000
0000
0000
0000
0000
0000
0000
0000
0000
3C00
3C00
C3C0
C3C0
C330
C330
C330
C330
C330
C330
3C30
3C30
0030
0030
0030
0030
ENDCHAR
STARTCHAR uni01A4
ENCODING 420
SWIDTH 994 0
DWIDTH 14 0
BBX 14 26 0 -6
BITMAP
0000
0000
0000
0000
FFC0
FFC0
0C30
0C30
0C30
0C30
0C30
0C30
0FC0
0FC0
0C00
0C00
0C00
0C00
0C00
0C00
0C00
0C00
0000
0000
0000
0000
ENDCHAR
STARTCHAR uni01A5
ENCODING 421
SWIDTH 994 0
DWIDTH 14 0
BBX 14 26 0 -6
BITMAP
0000
0000
0000
0000
0000
0000
0030
0030
00C0
00C0
CF00
CF00
F0C0
F0C0
C0C0
C0C0
F0C0
F0C0
CF00
CF00
C000
C000
C000
C000
C000
C000
ENDCHAR
STARTCHAR uni01A6
ENCODING 422
SWIDTH 994 0
DWIDTH 14 0
BBX 14 26 0 -6
BITMAP
0000
0000
C000
C000
C000
C000
FFC0
FFC0
C030
C030
C030
C030
FFC0
FFC0
F000
F000
CC00
CC00
C300
C300
C0C0
C0C0
0030
0030
0000
0000
ENDCHAR
STARTCHAR uni01A7
ENCODING 423
SWIDTH 994 0
DWIDTH 14 0
BBX 14 26 0 -6
BITMAP
0000
0000
0000
0000
3FC0
3FC0
C030
C030
0030
0030
0030
0030
3FC0
3FC0
C000
C000
C000
C000
C030
C030
3FC0
3FC0
0000
0000
0000
0000
ENDCHAR
STARTCHAR uni01A8
ENCODING 424
SWIDTH 994 0
DWIDTH 14 0
BBX 14 26 0 -6
BITMAP
0000
0000
0000
0000
0000
0000
0000
0000
0000
0000
3FC0
3FC0
C030
C030
03C0
03C0
3C00
3C00
C030
C030
3FC0
3FC0
0000
0000
0000
0000
ENDCHAR
STARTCHAR uni01A9
ENCODING 425
SWIDTH 994 0
DWIDTH 14 0
BBX 14 26 0 -6
BITMAP
0000
0000
0000
0000
FFF0
FFF0
C000
C000
3000
3000
0C00
0C00
0300
0300
0C00
0C00
3000
3000
C000
C000
FFF0
FFF0
0000
0000
0000
0000
ENDCHAR
STARTCHAR uni01AA
ENCODING 426
SWIDTH 994 0
DWIDTH 14 0
BBX 14 26 0 -6
BITMAP
0C00
0C00
3300
3300
0F00
0F00
0300
0300
0300
0300
0300
0300
0300
0300
0300
0300
0300
0300
0330
0330
00C0
00C0
0000
0000
0000
0000
ENDCHAR
STARTCHAR uni01AB
ENCODING 427
SWIDTH 994 0
DWIDTH 14 0
BBX 14 26 0 -6
BITMAP
0000
0000
0000
0000
0000
0000
3000
3000
3000
3000
FF00
FF00
3000
3000
3000
3000
3000
3000
3030
3030
0FF0
0FF0
0030
0030
03C0
03C0
ENDCHAR
STARTCHAR uni01AC
ENCODING 428
SWIDTH 994 0
DWIDTH 14 0
BBX 14 26 0 -6
BITMAP
0000
0000
0000
0000
3FF0
3FF0
C300
C300
C300
C300
0300
0300
0300
0300
0300
0300
0300
0300
0300
0300
0300
0300
0000
0000
0000
0000
ENDCHAR
STARTCHAR uni01AD
ENCODING 429
SWIDTH 994 0
DWIDTH 14 0
BBX 14 26 0 -6
BITMAP
0000
0000
0F00
0F00
30C0
30C0
3000
3000
3000
3000
FF00
FF00
3000
3000
3000
3000
3000
3000
3030
3030
0FC0
0FC0
0000
0000
0000
0000
ENDCHAR
STARTCHAR uni01AE
ENCODING 430
SWIDTH 994 0
DWIDTH 14 0
BBX 14 26 0 -6
BITMAP
0000
0000
0000
0000
FFC0
FFC0
0C00
0C00
0C00
0C00
0C00
0C00
0C00
0C00
0C00
0C00
0C00
0C00
0C00
0C00
0C00
0C00
0C30
0C30
03C0
03C0
ENDCHAR
STARTCHAR Uhorn
ENCODING 431
SWIDTH 994 0
DWIDTH 14 0
BBX 14 26 0 -6
BITMAP
0030
0030
0030
0030
C0F0
C0F0
C0C0
C0C0
C0C0
C0C0
C0C0
C0C0
C0C0
C0C0
C0C0
C0C0
C0C0
C0C0
C0C0
C0C0
3F00
3F00
0000
0000
0000
0000
ENDCHAR
STARTCHAR uhorn
ENCODING 432
SWIDTH 994 0
DWIDTH 14 0
BBX 14 26 0 -6
BITMAP
0000
0000
0000
0000
0000
0000
0030
0030
0030
0030
C0F0
C0F0
C0C0
C0C0
C0C0
C0C0
C0C0
C0C0
C3C0
C3C0
3CC0
3CC0
0000
0000
0000
0000
ENDCHAR
STARTCHAR uni01B1
ENCODING 433
SWIDTH 994 0
DWIDTH 14 0
BBX 14 26 0 -6
BITMAP
0000
0000
0000
0000
30C0
30C0
30C0
30C0
C030
C030
C030
C030
C030
C030
C030
C030
C030
C030
30C0
30C0
0F00
0F00
0000
0000
0000
0000
ENDCHAR
STARTCHAR uni01B2
ENCODING 434
SWIDTH 994 0
DWIDTH 14 0
BBX 14 26 0 -6
BITMAP
0000
0000
0000
0000
C0C0
C0C0
C0C0
C0C0
C030
C030
C030
C030
C030
C030
C030
C030
C030
C030
30C0
30C0
0F00
0F00
0000
0000
0000
0000
ENDCHAR
STARTCHAR uni01B3
ENCODING 435
SWIDTH 994 0
DWIDTH 14 0
BBX 14 26 0 -6
BITMAP
0000
0000
0000
0000
C030
C030
3030
3030
0CC0
0CC0
0CC0
0CC0
0300
0300
0300
0300
0300
0300
0300
0300
0300
0300
0000
0000
0000
0000
ENDCHAR
STARTCHAR uni01B4
ENCODING 436
SWIDTH 994 0
DWIDTH 14 0
BBX 14 26 0 -6
BITMAP
0000
0000
0000
0000
0000
0000
0000
0000
000C
000C
C030
C030
C030
C030
C030
C030
C0F0
C0F0
3F30
3F30
0030
0030
C030
C030
3FC0
3FC0
ENDCHAR
STARTCHAR uni01B5
ENCODING 437
SWIDTH 994 0
DWIDTH 14 0
BBX 14 26 0 -6
BITMAP
0000
0000
0000
0000
FFF0
FFF0
0030
0030
00C0
00C0
0300
0300
3FC0
3FC0
0C00
0C00
3000
3000
C000
C000
FFF0
FFF0
0000
0000
0000
0000
ENDCHAR
STARTCHAR uni01B6
ENCODING 438
SWIDTH 994 0
DWIDTH 14 0
BBX 14 26 0 -6
BITMAP
0000
0000
0000
0000
0000
0000
0000
0000
0000
0000
FFF0
FFF0
00C0
00C0
3FC0
3FC0
0C00
0C00
3000
3000
FFF0
FFF0
0000
0000
0000
0000
ENDCHAR
STARTCHAR uni01B7
ENCODING 439
SWIDTH 994 0
DWIDTH 14 0
BBX 14 26 0 -6
BITMAP
0000
0000
0000
0000
FFC0
FFC0
0300
0300
0C00
0C00
3F00
3F00
00C0
00C0
0030
0030
0030
0030
C030
C030
3FC0
3FC0
0000
0000
0000
0000
ENDCHAR
STARTCHAR uni01B8
ENCODING 440
SWIDTH 994 0
DWIDTH 14 0
BBX 14 26 0 -6
BITMAP
0000
0000
0000
0000
3FF0
3FF0
0C00
0C00
0300
0300
0FC0
0FC0
3000
3000
C000
C000
C000
C000
C030
C030
3FC0
3FC0
0000
0000
0000
0000
ENDCHAR
STARTCHAR uni01B9
ENCODING 441
SWIDTH 994 0
DWIDTH 14 0
BBX 14 26 0 -6
BITMAP
0000
0000
0000
0000
0000
0000
0000
0000
0000
0000
FFF0
FFF0
3000
3000
0C00
0C00
3F00
3F00
C000
C000
C000
C000
C030
C030
3FC0
3FC0
ENDCHAR
STARTCHAR uni01BA
ENCODING 442
SWIDTH 994 0
DWIDTH 14 0
BBX 14 26 0 -6
BITMAP
0000
0000
0000
0000
0000
0000
0000
0000
0000
0000
FFF0
FFF0
00C0
00C0
0300
0300
0F00
0F00
00C0
00C0
3F00
3F00
C030
C030
3FC0
3FC0
ENDCHAR
STARTCHAR uni01BB
ENCODING 443
SWIDTH 994 0
DWIDTH 14 0
BBX 14 26 0 -6
BITMAP
0000
0000
0000
0000
3FC0
3FC0
C030
C030
C030
C030
0030
0030
00C0
00C0
FFF0
FFF0
3000
3000
C000
C000
FFF0
FFF0
0000
0000
0000
0000
ENDCHAR
STARTCHAR uni01BC
ENCODING 444
SWIDTH 994 0
DWIDTH 14 0
BBX 14 26 0 -6
BITMAP
0000
0000
0000
0000
FFF0
FFF0
C030
C030
C000
C000
F000
F000
0F00
0F00
00C0
00C0
0030
0030
C030
C030
3FC0
3FC0
0000
0000
0000
0000
ENDCHAR
STARTCHAR uni01BD
ENCODING 445
SWIDTH 994 0
DWIDTH 14 0
BBX 14 26 0 -6
BITMAP
0000
0000
0000
0000
0000
0000
0000
0000
0000
0000
3FC0
3FC0
3000
3000
0F00
0F00
00C0
00C0
30C0
30C0
0F00
0F00
0000
0000
0000
0000
ENDCHAR
STARTCHAR uni01BE
ENCODING 446
SWIDTH 994 0
DWIDTH 14 0
BBX 14 26 0 -6
BITMAP
0000
0000
0000
0000
0300
0300
0300
0300
0FC0
0FC0
0300
0300
03C0
03C0
0030
0030
0030
0030
3030
3030
0FC0
0FC0
0000
0000
0000
0000
ENDCHAR
STARTCHAR uni01BF
ENCODING 447
SWIDTH 994 0
DWIDTH 14 0
BBX 14 26 0 -6
BITMAP
0000
0000
0000
0000
0000
0000
0000
0000
0000
0000
CFC0
CFC0
F030
F030
C0C0
C0C0
C300
C300
CC00
CC00
F000
F000
C000
C000
C000
C000
ENDCHAR
STARTCHAR uni01C0
ENCODING 448
SWIDTH 994 0
DWIDTH 14 0
BBX 14 26 0 -6
BITMAP
0000
0000
0000
0000
0300
0300
0300
0300
0300
0300
0300
0300
0300
0300
0300
0300
0300
0300
0300
0300
0300
0300
0000
0000
0000
0000
ENDCHAR
STARTCHAR uni01C1
ENCODING 449
SWIDTH 994 0
DWIDTH 14 0
BBX 14 26 0 -6
BITMAP
0000
0000
0000
0000
0CC0
0CC0
0CC0
0CC0
0CC0
0CC0
0CC0
0CC0
0CC0
0CC0
0CC0
0CC0
0CC0
0CC0
0CC0
0CC0
0CC0
0CC0
0000
0000
0000
0000
ENDCHAR
STARTCHAR uni01C2
ENCODING 450
SWIDTH 994 0
DWIDTH 14 0
BBX 14 26 0 -6
BITMAP
0000
0000
0000
0000
0300
0300
0300
0300
0300
0300
0FC0
0FC0
0300
0300
0FC0
0FC0
0300
0300
0300
0300
0300
0300
0000
0000
0000
0000
ENDCHAR
STARTCHAR uni01C3
ENCODING 451
SWIDTH 994 0
DWIDTH 14 0
BBX 14 26 0 -6
BITMAP
0000
0000
0000
0000
0300
0300
0300
0300
0300
0300
0300
0300
0300
0300
0300
0300
0300
0300
0000
0000
0300
0300
0000
0000
0000
0000
ENDCHAR
STARTCHAR uni01C4
ENCODING 452
SWIDTH 994 0
DWIDTH 14 0
BBX 14 26 0 -6
BITMAP
0330
0330
00C0
00C0
0000
0000
F3F0
F3F0
CC30
CC30
CCC0
CCC0
CCC0
CCC0
CCC0
CCC0
CF00
CF00
CF00
CF00
F3F0
F3F0
0000
0000
0000
0000
ENDCHAR
STARTCHAR uni01C5
ENCODING 453
SWIDTH 994 0
DWIDTH 14 0
BBX 14 26 0 -6
BITMAP
0000
0000
0000
0000
F330
F330
CCC0
CCC0
CC00
CC00
CFF0
CFF0
CC30
CC30
CCC0
CCC0
CCC0
CCC0
CF00
CF00
F3F0
F3F0
0000
0000
0000
0000
ENDCHAR
STARTCHAR uni01C6
ENCODING 454
SWIDTH 994 0
DWIDTH 14 0
BBX 14 26 0 -6
BITMAP
0000
0000
0000
0000
0F30
0F30
0CC0
0CC0
0C00
0C00
3FF0
3FF0
CC30
CC30
CCC0
CCC0
CCC0
CCC0
CF00
CF00
3FF0
3FF0
0000
0000
0000
0000
ENDCHAR
STARTCHAR uni01C7
ENCODING 455
SWIDTH 994 0
DWIDTH 14 0
BBX 14 26 0 -6
BITMAP
0000
0000
0000
0000
C030
C030
C030
C030
C030
C030
C030
C030
C030
C030
C030
C030
C030
C030
C330
C330
FCC0
FCC0
0000
0000
0000
0000
ENDCHAR
STARTCHAR uni01C8
ENCODING 456
SWIDTH 994 0
DWIDTH 14 0
BBX 14 26 0 -6
BITMAP
0000
0000
0000
0000
C000
C000
C030
C030
C000
C000
C0F0
C0F0
C030
C030
C030
C030
C030
C030
C030
C030
FF30
FF30
0330
0330
00C0
00C0
ENDCHAR
STARTCHAR uni01C9
ENCODING 457
SWIDTH 994 0
DWIDTH 14 0
BBX 14 26 0 -6
BITMAP
0000
0000
0000
0000
F000
F000
3030
3030
3000
3000
30F0
30F0
3030
3030
3030
3030
3030
3030
3030
3030
FC30
FC30
0030
0030
03C0
03C0
ENDCHAR
STARTCHAR uni01CA
ENCODING 458
SWIDTH 994 0
DWIDTH 14 0
BBX 14 26 0 -6
BITMAP
0000
0000
0000
0000
C33C
C33C
C30C
C30C
F30C
F30C
CF0C
CF0C
C30C
C30C
C30C
C30C
C30C
C30C
C3CC
C3CC
C330
C330
0000
0000
0000
0000
ENDCHAR
STARTCHAR uni01CB
ENCODING 459
SWIDTH 994 0
DWIDTH 14 0
BBX 14 26 0 -6
BITMAP
0000
0000
0000
0000
C300
C300
C30C
C30C
F300
F300
CF0C
CF0C
C30C
C30C
C30C
C30C
C30C
C30C
C30C
C30C
C30C
C30C
030C
030C
00F0
00F0
ENDCHAR
STARTCHAR uni01CC
ENCODING 460
SWIDTH 994 0
DWIDTH 14 0
BBX 14 26 0 -6
BITMAP
0000
0000
0000
0000
0000
0000
0030
0030
0000
0000
F0F0
F0F0
CC30
CC30
CC30
CC30
CC30
CC30
CC30
CC30
CC30
CC30
0C30
0C30
03C0
03C0
ENDCHAR
STARTCHAR uni01CD
ENCODING 461
SWIDTH 994 0
DWIDTH 14 0
BBX 14 26 0 -6
BITMAP
0000
0000
30C0
30C0
0F00
0F00
0000
0000
0F00
0F00
30C0
30C0
C030
C030
C030
C030
FFF0
FFF0
C030
C030
C030
C030
0000
0000
0000
0000
ENDCHAR
STARTCHAR uni01CE
ENCODING 462
SWIDTH 994 0
DWIDTH 14 0
BBX 14 26 0 -6
BITMAP
0000
0000
0000
0000
30C0
30C0
0F00
0F00
0000
0000
3FC0
3FC0
0030
0030
3FF0
3FF0
C030
C030
C0F0
C0F0
3F30
3F30
0000
0000
0000
0000
ENDCHAR
STARTCHAR uni01CF
ENCODING 463
SWIDTH 994 0
DWIDTH 14 0
BBX 14 26 0 -6
BITMAP
0000
0000
0CC0
0CC0
0300
0300
0000
0000
3FF0
3FF0
0300
0300
0300
0300
0300
0300
0300
0300
0300
0300
3FF0
3FF0
0000
0000
0000
0000
ENDCHAR
STARTCHAR uni01D0
ENCODING 464
SWIDTH 994 0
DWIDTH 14 0
BBX 14 26 0 -6
BITMAP
0000
0000
0000
0000
0CC0
0CC0
0300
0300
0000
0000
0F00
0F00
0300
0300
0300
0300
0300
0300
0300
0300
3FF0
3FF0
0000
0000
0000
0000
ENDCHAR
STARTCHAR uni01D1
ENCODING 465
SWIDTH 994 0
DWIDTH 14 0
BBX 14 26 0 -6
BITMAP
0000
0000
30C0
30C0
0F00
0F00
0000
0000
3FC0
3FC0
C030
C030
C030
C030
C030
C030
C030
C030
C030
C030
3FC0
3FC0
0000
0000
0000
0000
ENDCHAR
STARTCHAR uni01D2
ENCODING 466
SWIDTH 994 0
DWIDTH 14 0
BBX 14 26 0 -6
BITMAP
0000
0000
0000
0000
30C0
30C0
0F00
0F00
0000
0000
3FC0
3FC0
C030
C030
C030
C030
C030
C030
C030
C030
3FC0
3FC0
0000
0000
0000
0000
ENDCHAR
STARTCHAR uni01D3
ENCODING 467
SWIDTH 994 0
DWIDTH 14 0
BBX 14 26 0 -6
BITMAP
0000
0000
30C0
30C0
0F00
0F00
0000
0000
C030
C030
C030
C030
C030
C030
C030
C030
C030
C030
C030
C030
3FC0
3FC0
0000
0000
0000
0000
ENDCHAR
STARTCHAR uni01D4
ENCODING 468
SWIDTH 994 0
DWIDTH 14 0
BBX 14 26 0 -6
BITMAP
0000
0000
0000
0000
30C0
30C0
0F00
0F00
0000
0000
C030
C030
C030
C030
C030
C030
C030
C030
C0F0
C0F0
3F30
3F30
0000
0000
0000
0000
ENDCHAR
STARTCHAR uni01D5
ENCODING 469
SWIDTH 994 0
DWIDTH 14 0
BBX 14 26 0 -6
BITMAP
3FC0
3FC0
0000
0000
30C0
30C0
0000
0000
C030
C030
C030
C030
C030
C030
C030
C030
C030
C030
C030
C030
3FC0
3FC0
0000
0000
0000
0000
ENDCHAR
STARTCHAR uni01D6
ENCODING 470
SWIDTH 994 0
DWIDTH 14 0
BBX 14 26 0 -6
BITMAP
0000
0000
3FC0
3FC0
0000
0000
30C0
30C0
0000
0000
C030
C030
C030
C030
C030
C030
C030
C030
C0F0
C0F0
3F30
3F30
0000
0000
0000
0000
ENDCHAR
STARTCHAR uni01D7
ENCODING 471
SWIDTH 994 0
DWIDTH 14 0
BBX 14 26 0 -6
BITMAP
0300
0300
0C00
0C00
C0C0
C0C0
0000
0000
C030
C030
C030
C030
C030
C030
C030
C030
C030
C030
C030
C030
3FC0
3FC0
0000
0000
0000
0000
ENDCHAR
STARTCHAR uni01D8
ENCODING 472
SWIDTH 994 0
DWIDTH 14 0
BBX 14 26 0 -6
BITMAP
0000
0000
0300
0300
0C00
0C00
C0C0
C0C0
0000
0000
C030
C030
C030
C030
C030
C030
C030
C030
C0F0
C0F0
3F30
3F30
0000
0000
0000
0000
ENDCHAR
STARTCHAR uni01D9
ENCODING 473
SWIDTH 994 0
DWIDTH 14 0
BBX 14 26 0 -6
BITMAP
3300
3300
0C00
0C00
C0C0
C0C0
0000
0000
C030
C030
C030
C030
C030
C030
C030
C030
C030
C030
C030
C030
3FC0
3FC0
0000
0000
0000
0000
ENDCHAR
STARTCHAR uni01DA
ENCODING 474
SWIDTH 994 0
DWIDTH 14 0
BBX 14 26 0 -6
BITMAP
0000
0000
3300
3300
0C00
0C00
C0C0
C0C0
0000
0000
C030
C030
C030
C030
C030
C030
C030
C030
C0F0
C0F0
3F30
3F30
0000
0000
0000
0000
ENDCHAR
STARTCHAR uni01DB
ENCODING 475
SWIDTH 994 0
DWIDTH 14 0
BBX 14 26 0 -6
BITMAP
3000
3000
0C00
0C00
C0C0
C0C0
0000
0000
C030
C030
C030
C030
C030
C030
C030
C030
C030
C030
C030
C030
3FC0
3FC0
0000
0000
0000
0000
ENDCHAR
STARTCHAR uni01DC
ENCODING 476
SWIDTH 994 0
DWIDTH 14 0
BBX 14 26 0 -6
BITMAP
0000
0000
3000
3000
0C00
0C00
C0C0
C0C0
0000
0000
C030
C030
C030
C030
C030
C030
C030
C030
C0F0
C0F0
3F30
3F30
0000
0000
0000
0000
ENDCHAR
STARTCHAR uni01DD
ENCODING 477
SWIDTH 994 0
DWIDTH 14 0
BBX 14 26 0 -6
BITMAP
0000
0000
0000
0000
0000
0000
0000
0000
0000
0000
3FC0
3FC0
C030
C030
0030
0030
FFF0
FFF0
C030
C030
3FC0
3FC0
0000
0000
0000
0000
ENDCHAR
STARTCHAR uni01DE
ENCODING 478
SWIDTH 994 0
DWIDTH 14 0
BBX 14 26 0 -6
BITMAP
3FC0
3FC0
0000
0000
30C0
30C0
0000
0000
0F00
0F00
30C0
30C0
C030
C030
C030
C030
FFF0
FFF0
C030
C030
C030
C030
0000
0000
0000
0000
ENDCHAR
STARTCHAR uni01DF
ENCODING 479
SWIDTH 994 0
DWIDTH 14 0
BBX 14 26 0 -6
BITMAP
0000
0000
3FC0
3FC0
0000
0000
30C0
30C0
0000
0000
3FC0
3FC0
0030
0030
3FF0
3FF0
C030
C030
C0F0
C0F0
3F30
3F30
0000
0000
0000
0000
ENDCHAR
STARTCHAR uni01E0
ENCODING 480
SWIDTH 994 0
DWIDTH 14 0
BBX 14 26 0 -6
BITMAP
3FF0
3FF0
0000
0000
0300
0300
0000
0000
0F00
0F00
30C0
30C0
C030
C030
C030
C030
FFF0
FFF0
C030
C030
C030
C030
0000
0000
0000
0000
ENDCHAR
STARTCHAR uni01E1
ENCODING 481
SWIDTH 994 0
DWIDTH 14 0
BBX 14 26 0 -6
BITMAP
0000
0000
3FF0
3FF0
0000
0000
0300
0300
0000
0000
3FC0
3FC0
0030
0030
3FF0
3FF0
C030
C030
C0F0
C0F0
3F30
3F30
0000
0000
0000
0000
ENDCHAR
STARTCHAR uni01E2
ENCODING 482
SWIDTH 994 0
DWIDTH 14 0
BBX 14 26 0 -6
BITMAP
3FF0
3FF0
0000
0000
3FF0
3FF0
CC00
CC00
CC00
CC00
CC00
CC00
CFC0
CFC0
FC00
FC00
CC00
CC00
CC00
CC00
CFF0
CFF0
0000
0000
0000
0000
ENDCHAR
STARTCHAR uni01E3
ENCODING 483
SWIDTH 994 0
DWIDTH 14 0
BBX 14 26 0 -6
BITMAP
0000
0000
0000
0000
0000
0000
3FF0
3FF0
0000
0000
3CC0
3CC0
0330
0330
3FF0
3FF0
C300
C300
C330
C330
3CC0
3CC0
0000
0000
0000
0000
ENDCHAR
STARTCHAR uni01E4
ENCODING 484
SWIDTH 994 0
DWIDTH 14 0
BBX 14 26 0 -6
BITMAP
0000
0000
0000
0000
3FC0
3FC0
C030
C030
C000
C000
C000
C000
C3F0
C3F0
C030
C030
C3FC
C3FC
C030
C030
3FC0
3FC0
0000
0000
0000
0000
ENDCHAR
STARTCHAR uni01E5
ENCODING 485
SWIDTH 994 0
DWIDTH 14 0
BBX 14 26 0 -6
BITMAP
0000
0000
0000
0000
0000
0000
0000
0000
0000
0000
3F30
3F30
C0C0
C0C0
C0C0
C0C0
3F00
3F00
C000
C000
3FC0
3FC0
C3FC
C3FC
3FC0
3FC0
ENDCHAR
STARTCHAR Gcaron
ENCODING 486
SWIDTH 994 0
DWIDTH 14 0
BBX 14 26 0 -6
BITMAP
30C0
30C0
0F00
0F00
0000
0000
3FC0
3FC0
C030
C030
C000
C000
C000
C000
C3F0
C3F0
C030
C030
C0F0
C0F0
3F30
3F30
0000
0000
0000
0000
ENDCHAR
STARTCHAR gcaron
ENCODING 487
SWIDTH 994 0
DWIDTH 14 0
BBX 14 26 0 -6
BITMAP
0000
0000
0000
0000
30C0
30C0
0F00
0F00
0000
0000
3F30
3F30
C0C0
C0C0
C0C0
C0C0
3F00
3F00
C000
C000
3FC0
3FC0
C030
C030
3FC0
3FC0
ENDCHAR
STARTCHAR uni01E8
ENCODING 488
SWIDTH 994 0
DWIDTH 14 0
BBX 14 26 0 -6
BITMAP
30C0
30C0
0F00
0F00
C030
C030
C0C0
C0C0
C300
C300
CC00
CC00
F000
F000
CC00
CC00
C300
C300
C0C0
C0C0
C030
C030
0000
0000
0000
0000
ENDCHAR
STARTCHAR uni01E9
ENCODING 489
SWIDTH 994 0
DWIDTH 14 0
BBX 14 26 0 -6
BITMAP
30C0
30C0
0F00
0F00
C000
C000
C000
C000
C000
C000
C0C0
C0C0
C300
C300
FC00
FC00
C300
C300
C0C0
C0C0
C030
C030
0000
0000
0000
0000
ENDCHAR
STARTCHAR uni01EA
ENCODING 490
SWIDTH 994 0
DWIDTH 14 0
BBX 14 26 0 -6
BITMAP
0000
0000
0000
0000
3FC0
3FC0
C030
C030
C030
C030
C030
C030
C030
C030
C030
C030
C030
C030
C030
C030
3FC0
3FC0
0C00
0C00
0F00
0F00
ENDCHAR
STARTCHAR uni01EB
ENCODING 491
SWIDTH 994 0
DWIDTH 14 0
BBX 14 26 0 -6
BITMAP
0000
0000
0000
0000
0000
0000
0000
0000
0000
0000
3FC0
3FC0
C030
C030
C030
C030
C030
C030
C030
C030
3FC0
3FC0
0C00
0C00
0F00
0F00
ENDCHAR
STARTCHAR uni01EC
ENCODING 492
SWIDTH 994 0
DWIDTH 14 0
BBX 14 26 0 -6
BITMAP
3FC0
3FC0
0000
0000
3FC0
3FC0
C030
C030
C030
C030
C030
C030
C030
C030
C030
C030
C030
C030
C030
C030
3FC0
3FC0
0C00
0C00
0F00
0F00
ENDCHAR
STARTCHAR uni01ED
ENCODING 493
SWIDTH 994 0
DWIDTH 14 0
BBX 14 26 0 -6
BITMAP
0000
0000
0000
0000
0000
0000
3FC0
3FC0
0000
0000
3FC0
3FC0
C030
C030
C030
C030
C030
C030
C030
C030
3FC0
3FC0
0C00
0C00
0F00
0F00
ENDCHAR
STARTCHAR uni01EE
ENCODING 494
SWIDTH 994 0
DWIDTH 14 0
BBX 14 26 0 -6
BITMAP
30C0
30C0
0F00
0F00
0000
0000
FFF0
FFF0
00C0
00C0
0300
0300
0FC0
0FC0
0030
0030
0030
0030
C030
C030
3FC0
3FC0
0000
0000
0000
0000
ENDCHAR
STARTCHAR uni01EF
ENCODING 495
SWIDTH 994 0
DWIDTH 14 0
BBX 14 26 0 -6
BITMAP
0000
0000
0000
0000
30C0
30C0
0F00
0F00
0000
0000
FFF0
FFF0
00C0
00C0
0300
0300
0FC0
0FC0
0030
0030
0030
0030
C030
C030
3FC0
3FC0
ENDCHAR
STARTCHAR uni01F0
ENCODING 496
SWIDTH 994 0
DWIDTH 14 0
BBX 14 26 0 -6
BITMAP
0000
0000
0000
0000
0C30
0C30
03C0
03C0
0000
0000
03C0
03C0
00C0
00C0
00C0
00C0
00C0
00C0
00C0
00C0
C0C0
C0C0
C0C0
C0C0
3F00
3F00
ENDCHAR
STARTCHAR uni01F1
ENCODING 497
SWIDTH 994 0
DWIDTH 14 0
BBX 14 26 0 -6
BITMAP
0000
0000
0000
0000
F3F0
F3F0
CC30
CC30
CC30
CC30
CCC0
CCC0
CCC0
CCC0
CCC0
CCC0
CF00
CF00
CF00
CF00
F3F0
F3F0
0000
0000
0000
0000
ENDCHAR
STARTCHAR uni01F2
ENCODING 498
SWIDTH 994 0
DWIDTH 14 0
BBX 14 26 0 -6
BITMAP
0000
0000
0000
0000
F000
F000
CC00
CC00
CC00
CC00
CFF0
CFF0
CC30
CC30
CCC0
CCC0
CCC0
CCC0
CF00
CF00
F3F0
F3F0
0000
0000
0000
0000
ENDCHAR
STARTCHAR uni01F3
ENCODING 499
SWIDTH 994 0
DWIDTH 14 0
BBX 14 26 0 -6
BITMAP
0000
0000
0000
0000
0C00
0C00
0C00
0C00
0C00
0C00
3FF0
3FF0
CC30
CC30
CCC0
CCC0
CCC0
CCC0
CF00
CF00
3FF0
3FF0
0000
0000
0000
0000
ENDCHAR
STARTCHAR uni01F4
ENCODING 500
SWIDTH 994 0
DWIDTH 14 0
BBX 14 26 0 -6
BITMAP
0300
0300
0C00
0C00
0000
0000
3FC0
3FC0
C030
C030
C000
C000
C000
C000
C3F0
C3F0
C030
C030
C0F0
C0F0
3F30
3F30
0000
0000
0000
0000
ENDCHAR
STARTCHAR uni01F5
ENCODING 501
SWIDTH 994 0
DWIDTH 14 0
BBX 14 26 0 -6
BITMAP
0000
0000
0000
0000
0300
0300
0C00
0C00
0000
0000
3F30
3F30
C0C0
C0C0
C0C0
C0C0
3F00
3F00
C000
C000
3FC0
3FC0
C030
C030
3FC0
3FC0
ENDCHAR
STARTCHAR uni01F6
ENCODING 502
SWIDTH 994 0
DWIDTH 14 0
BBX 14 26 0 -6
BITMAP
0000
0000
0000
0000
C300
C300
C300
C300
C300
C300
FF30
FF30
C330
C330
C330
C330
C330
C330
C330
C330
C0C0
C0C0
0000
0000
0000
0000
ENDCHAR
STARTCHAR uni01F7
ENCODING 503
SWIDTH 994 0
DWIDTH 14 0
BBX 14 26 0 -6
BITMAP
0000
0000
0000
0000
CFC0
CFC0
F030
F030
C030
C030
C0C0
C0C0
C300
C300
CC00
CC00
F000
F000
C000
C000
C000
C000
0000
0000
0000
0000
ENDCHAR
STARTCHAR uni01F8
ENCODING 504
SWIDTH 994 0
DWIDTH 14 0
BBX 14 26 0 -6
BITMAP
0000
0000
0C00
0C00
0300
0300
0000
0000
C030
C030
F030
F030
CC30
CC30
CC30
CC30
C330
C330
C0F0
C0F0
C030
C030
0000
0000
0000
0000
ENDCHAR
STARTCHAR uni01F9
ENCODING 505
SWIDTH 994 0
DWIDTH 14 0
BBX 14 26 0 -6
BITMAP
0000
0000
0000
0000
0C00
0C00
0300
0300
0000
0000
CFC0
CFC0
F030
F030
C030
C030
C030
C030
C030
C030
C030
C030
0000
0000
0000
0000
ENDCHAR
STARTCHAR Aringacute
ENCODING 506
SWIDTH 994 0
DWIDTH 14 0
BBX 14 26 0 -6
BITMAP
0300
0300
0C00
0C00
0F00
0F00
30C0
30C0
0F00
0F00
0F00
0F00
30C0
30C0
C030
C030
FFF0
FFF0
C030
C030
C030
C030
0000
0000
0000
0000
ENDCHAR
STARTCHAR aringacute
ENCODING 507
SWIDTH 994 0
DWIDTH 14 0
BBX 14 26 0 -6
BITMAP
0300
0300
0C00
0C00
0F00
0F00
30C0
30C0
0F00
0F00
3FC0
3FC0
0030
0030
3FF0
3FF0
C030
C030
C0F0
C0F0
3F30
3F30
0000
0000
0000
0000
ENDCHAR
STARTCHAR AEacute
ENCODING 508
SWIDTH 994 0
DWIDTH 14 0
BBX 14 26 0 -6
BITMAP
0300
0300
0C00
0C00
0000
0000
3FF0
3FF0
CC00
CC00
CC00
CC00
CFC0
CFC0
FC00
FC00
CC00
CC00
CC00
CC00
CFF0
CFF0
0000
0000
0000
0000
ENDCHAR
STARTCHAR aeacute
ENCODING 509
SWIDTH 994 0
DWIDTH 14 0
BBX 14 26 0 -6
BITMAP
0000
0000
0000
0000
00C0
00C0
0300
0300
0000
0000
3CC0
3CC0
0330
0330
3FF0
3FF0
C300
C300
C330
C330
3CC0
3CC0
0000
0000
0000
0000
ENDCHAR
STARTCHAR Oslashacute
ENCODING 510
SWIDTH 994 0
DWIDTH 14 0
BBX 14 26 0 -6
BITMAP
0300
0300
0C00
0C00
0030
0030
3FC0
3FC0
C0F0
C0F0
C330
C330
C330
C330
CC30
CC30
CC30
CC30
F030
F030
3FC0
3FC0
C000
C000
0000
0000
ENDCHAR
STARTCHAR oslashacute
ENCODING 511
SWIDTH 994 0
DWIDTH 14 0
BBX 14 26 0 -6
BITMAP
0000
0000
0000
0000
0300
0300
0C00
0C00
0030
0030
3FC0
3FC0
C0F0
C0F0
C330
C330
CC30
CC30
F030
F030
3FC0
3FC0
C000
C000
0000
0000
ENDCHAR
STARTCHAR uni0200
ENCODING 512
SWIDTH 994 0
DWIDTH 14 0
BBX 14 26 0 -6
BITMAP
C300
C300
30C0
30C0
0000
0000
0F00
0F00
30C0
30C0
C030
C030
C030
C030
FFF0
FFF0
C030
C030
C030
C030
C030
C030
0000
0000
0000
0000
ENDCHAR
STARTCHAR uni0201
ENCODING 513
SWIDTH 994 0
DWIDTH 14 0
BBX 14 26 0 -6
BITMAP
0000
0000
0000
0000
C300
C300
30C0
30C0
0000
0000
3FC0
3FC0
0030
0030
3FF0
3FF0
C030
C030
C0F0
C0F0
3F30
3F30
0000
0000
0000
0000
ENDCHAR
STARTCHAR uni0202
ENCODING 514
SWIDTH 994 0
DWIDTH 14 0
BBX 14 26 0 -6
BITMAP
3FC0
3FC0
C030
C030
0000
0000
0F00
0F00
30C0
30C0
C030
C030
C030
C030
FFF0
FFF0
C030
C030
C030
C030
C030
C030
0000
0000
0000
0000
ENDCHAR
STARTCHAR uni0203
ENCODING 515
SWIDTH 994 0
DWIDTH 14 0
BBX 14 26 0 -6
BITMAP
0000
0000
0000
0000
3FC0
3FC0
C030
C030
0000
0000
3FC0
3FC0
0030
0030
3FF0
3FF0
C030
C030
C0F0
C0F0
3F30
3F30
0000
0000
0000
0000
ENDCHAR
STARTCHAR uni0204
ENCODING 516
SWIDTH 994 0
DWIDTH 14 0
BBX 14 26 0 -6
BITMAP
C300
C300
30C0
30C0
0000
0000
FFF0
FFF0
C000
C000
C000
C000
FF00
FF00
C000
C000
C000
C000
C000
C000
FFF0
FFF0
0000
0000
0000
0000
ENDCHAR
STARTCHAR uni0205
ENCODING 517
SWIDTH 994 0
DWIDTH 14 0
BBX 14 26 0 -6
BITMAP
0000
0000
0000
0000
C300
C300
30C0
30C0
0000
0000
3FC0
3FC0
C030
C030
FFF0
FFF0
C000
C000
C030
C030
3FC0
3FC0
0000
0000
0000
0000
ENDCHAR
STARTCHAR uni0206
ENCODING 518
SWIDTH 994 0
DWIDTH 14 0
BBX 14 26 0 -6
BITMAP
3FC0
3FC0
C030
C030
0000
0000
FFF0
FFF0
C000
C000
C000
C000
FF00
FF00
C000
C000
C000
C000
C000
C000
FFF0
FFF0
0000
0000
0000
0000
ENDCHAR
STARTCHAR uni0207
ENCODING 519
SWIDTH 994 0
DWIDTH 14 0
BBX 14 26 0 -6
BITMAP
0000
0000
0000
0000
3FC0
3FC0
C030
C030
0000
0000
3FC0
3FC0
C030
C030
FFF0
FFF0
C000
C000
C030
C030
3FC0
3FC0
0000
0000
0000
0000
ENDCHAR
STARTCHAR uni0208
ENCODING 520
SWIDTH 994 0
DWIDTH 14 0
BBX 14 26 0 -6
BITMAP
0000
0000
30C0
30C0
0C30
0C30
0000
0000
3FF0
3FF0
0300
0300
0300
0300
0300
0300
0300
0300
0300
0300
3FF0
3FF0
0000
0000
0000
0000
ENDCHAR
STARTCHAR uni0209
ENCODING 521
SWIDTH 994 0
DWIDTH 14 0
BBX 14 26 0 -6
BITMAP
0000
0000
0000
0000
30C0
30C0
0C30
0C30
0000
0000
0F00
0F00
0300
0300
0300
0300
0300
0300
0300
0300
3FF0
3FF0
0000
0000
0000
0000
ENDCHAR
STARTCHAR uni020A
ENCODING 522
SWIDTH 994 0
DWIDTH 14 0
BBX 14 26 0 -6
BITMAP
0000
0000
0FC0
0FC0
3030
3030
0000
0000
3FF0
3FF0
0300
0300
0300
0300
0300
0300
0300
0300
0300
0300
3FF0
3FF0
0000
0000
0000
0000
ENDCHAR
STARTCHAR uni020B
ENCODING 523
SWIDTH 994 0
DWIDTH 14 0
BBX 14 26 0 -6
BITMAP
0000
0000
0000
0000
0FC0
0FC0
3030
3030
0000
0000
0F00
0F00
0300
0300
0300
0300
0300
0300
0300
0300
3FF0
3FF0
0000
0000
0000
0000
ENDCHAR
STARTCHAR uni020C
ENCODING 524
SWIDTH 994 0
DWIDTH 14 0
BBX 14 26 0 -6
BITMAP
C300
C300
30C0
30C0
0000
0000
3FC0
3FC0
C030
C030
C030
C030
C030
C030
C030
C030
C030
C030
C030
C030
3FC0
3FC0
0000
0000
0000
0000
ENDCHAR
STARTCHAR uni020D
ENCODING 525
SWIDTH 994 0
DWIDTH 14 0
BBX 14 26 0 -6
BITMAP
0000
0000
0000
0000
C300
C300
30C0
30C0
0000
0000
3FC0
3FC0
C030
C030
C030
C030
C030
C030
C030
C030
3FC0
3FC0
0000
0000
0000
0000
ENDCHAR
STARTCHAR uni020E
ENCODING 526
SWIDTH 994 0
DWIDTH 14 0
BBX 14 26 0 -6
BITMAP
3FC0
3FC0
C030
C030
0000
0000
3FC0
3FC0
C030
C030
C030
C030
C030
C030
C030
C030
C030
C030
C030
C030
3FC0
3FC0
0000
0000
0000
0000
ENDCHAR
STARTCHAR uni020F
ENCODING 527
SWIDTH 994 0
DWIDTH 14 0
BBX 14 26 0 -6
BITMAP
0000
0000
0000
0000
3FC0
3FC0
C030
C030
0000
0000
3FC0
3FC0
C030
C030
C030
C030
C030
C030
C030
C030
3FC0
3FC0
0000
0000
0000
0000
ENDCHAR
STARTCHAR uni0210
ENCODING 528
SWIDTH 994 0
DWIDTH 14 0
BBX 14 26 0 -6
BITMAP
0000
0000
C300
C300
30C0
30C0
0000
0000
FFC0
FFC0
C030
C030
C030
C030
FFC0
FFC0
C300
C300
C0C0
C0C0
C030
C030
0000
0000
0000
0000
ENDCHAR
STARTCHAR uni0211
ENCODING 529
SWIDTH 994 0
DWIDTH 14 0
BBX 14 26 0 -6
BITMAP
0000
0000
0000
0000
C300
C300
30C0
30C0
0000
0000
CFC0
CFC0
3030
3030
3000
3000
3000
3000
3000
3000
3000
3000
0000
0000
0000
0000
ENDCHAR
STARTCHAR uni0212
ENCODING 530
SWIDTH 994 0
DWIDTH 14 0
BBX 14 26 0 -6
BITMAP
0000
0000
3FC0
3FC0
C030
C030
0000
0000
FFC0
FFC0
C030
C030
C030
C030
FFC0
FFC0
C300
C300
C0C0
C0C0
C030
C030
0000
0000
0000
0000
ENDCHAR
STARTCHAR uni0213
ENCODING 531
SWIDTH 994 0
DWIDTH 14 0
BBX 14 26 0 -6
BITMAP
0000
0000
0000
0000
3FC0
3FC0
C030
C030
0000
0000
CFC0
CFC0
3030
3030
3000
3000
3000
3000
3000
3000
3000
3000
0000
0000
0000
0000
ENDCHAR
STARTCHAR uni0214
ENCODING 532
SWIDTH 994 0
DWIDTH 14 0
BBX 14 26 0 -6
BITMAP
0000
0000
C0C0
C0C0
3030
3030
0000
0000
C030
C030
C030
C030
C030
C030
C030
C030
C030
C030
C030
C030
3FC0
3FC0
0000
0000
0000
0000
ENDCHAR
STARTCHAR uni0215
ENCODING 533
SWIDTH 994 0
DWIDTH 14 0
BBX 14 26 0 -6
BITMAP
0000
0000
0000
0000
C0C0
C0C0
3030
3030
0000
0000
C030
C030
C030
C030
C030
C030
C030
C030
C0F0
C0F0
3F30
3F30
0000
0000
0000
0000
ENDCHAR
STARTCHAR uni0216
ENCODING 534
SWIDTH 994 0
DWIDTH 14 0
BBX 14 26 0 -6
BITMAP
0000
0000
3FC0
3FC0
C030
C030
0000
0000
C030
C030
C030
C030
C030
C030
C030
C030
C030
C030
C030
C030
3FC0
3FC0
0000
0000
0000
0000
ENDCHAR
STARTCHAR uni0217
ENCODING 535
SWIDTH 994 0
DWIDTH 14 0
BBX 14 26 0 -6
BITMAP
0000
0000
0000
0000
3FC0
3FC0
C030
C030
0000
0000
C030
C030
C030
C030
C030
C030
C030
C030
C0F0
C0F0
3F30
3F30
0000
0000
0000
0000
ENDCHAR
STARTCHAR Scommaaccent
ENCODING 536
SWIDTH 994 0
DWIDTH 14 0
BBX 14 26 0 -6
BITMAP
0000
0000
0000
0000
3FC0
3FC0
C030
C030
C000
C000
C000
C000
3FC0
3FC0
0030
0030
0030
0030
C030
C030
3FC0
3FC0
0300
0300
0C00
0C00
ENDCHAR
STARTCHAR scommaaccent
ENCODING 537
SWIDTH 994 0
DWIDTH 14 0
BBX 14 26 0 -6
BITMAP
0000
0000
0000
0000
0000
0000
0000
0000
0000
0000
3FC0
3FC0
C030
C030
3C00
3C00
03C0
03C0
C030
C030
3FC0
3FC0
0300
0300
0C00
0C00
ENDCHAR
STARTCHAR Tcommaaccent
ENCODING 538
SWIDTH 994 0
DWIDTH 14 0
BBX 14 26 0 -6
BITMAP
0000
0000
0000
0000
3FF0
3FF0
0300
0300
0300
0300
0300
0300
0300
0300
0300
0300
0300
0300
0300
0300
0300
0300
00C0
00C0
0300
0300
ENDCHAR
STARTCHAR tcommaaccent
ENCODING 539
SWIDTH 994 0
DWIDTH 14 0
BBX 14 26 0 -6
BITMAP
0000
0000
0000
0000
0000
0000
3000
3000
3000
3000
FF00
FF00
3000
3000
3000
3000
3000
3000
3030
3030
0FC0
0FC0
0300
0300
0C00
0C00
ENDCHAR
STARTCHAR uni021C
ENCODING 540
SWIDTH 994 0
DWIDTH 14 0
BBX 14 26 0 -6
BITMAP
0000
0000
0000
0000
FFC0
FFC0
0300
0300
0C00
0C00
3F00
3F00
00C0
00C0
0030
0030
0030
0030
C030
C030
3FC0
3FC0
0000
0000
0000
0000
ENDCHAR
STARTCHAR uni021D
ENCODING 541
SWIDTH 994 0
DWIDTH 14 0
BBX 14 26 0 -6
BITMAP
0000
0000
0000
0000
0000
0000
0000
0000
0000
0000
FFF0
FFF0
00C0
00C0
0300
0300
0FC0
0FC0
0030
0030
0030
0030
C030
C030
3FC0
3FC0
ENDCHAR
STARTCHAR uni021E
ENCODING 542
SWIDTH 994 0
DWIDTH 14 0
BBX 14 26 0 -6
BITMAP
0000
0000
30C0
30C0
0F00
0F00
0000
0000
C030
C030
C030
C030
C030
C030
FFF0
FFF0
C030
C030
C030
C030
C030
C030
0000
0000
0000
0000
ENDCHAR
STARTCHAR uni021F
ENCODING 543
SWIDTH 994 0
DWIDTH 14 0
BBX 14 26 0 -6
BITMAP
0000
0000
30C0
30C0
0F00
0F00
C000
C000
C000
C000
C000
C000
CFC0
CFC0
F030
F030
C030
C030
C030
C030
C030
C030
0000
0000
0000
0000
ENDCHAR
STARTCHAR uni0222
ENCODING 546
SWIDTH 994 0
DWIDTH 14 0
BBX 14 26 0 -6
BITMAP
0000
0000
0000
0000
30C0
30C0
C030
C030
C030
C030
C030
C030
3FC0
3FC0
C030
C030
C030
C030
C030
C030
3FC0
3FC0
0000
0000
0000
0000
ENDCHAR
STARTCHAR uni0223
ENCODING 547
SWIDTH 994 0
DWIDTH 14 0
BBX 14 26 0 -6
BITMAP
0000
0000
0000
0000
0000
0000
0CC0
0CC0
3030
3030
3030
3030
0FC0
0FC0
3030
3030
3030
3030
3030
3030
0FC0
0FC0
0000
0000
0000
0000
ENDCHAR
STARTCHAR uni0224
ENCODING 548
SWIDTH 994 0
DWIDTH 14 0
BBX 14 26 0 -6
BITMAP
0000
0000
0000
0000
FFF0
FFF0
0030
0030
00C0
00C0
0300
0300
0F00
0F00
0C00
0C00
3000
3000
C000
C000
FFF0
FFF0
0030
0030
03C0
03C0
ENDCHAR
STARTCHAR uni0225
ENCODING 549
SWIDTH 994 0
DWIDTH 14 0
BBX 14 26 0 -6
BITMAP
0000
0000
0000
0000
0000
0000
0000
0000
0000
0000
FFF0
FFF0
00C0
00C0
0300
0300
0C00
0C00
3000
3000
FFF0
FFF0
0030
0030
03C0
03C0
ENDCHAR
STARTCHAR uni0226
ENCODING 550
SWIDTH 994 0
DWIDTH 14 0
BBX 14 26 0 -6
BITMAP
0000
0000
0F00
0F00
0000
0000
0F00
0F00
30C0
30C0
C030
C030
C030
C030
FFF0
FFF0
C030
C030
C030
C030
C030
C030
0000
0000
0000
0000
ENDCHAR
STARTCHAR uni0227
ENCODING 551
SWIDTH 994 0
DWIDTH 14 0
BBX 14 26 0 -6
BITMAP
0000
0000
0000
0000
0000
0000
0F00
0F00
0000
0000
3FC0
3FC0
0030
0030
3FF0
3FF0
C030
C030
C0F0
C0F0
3F30
3F30
0000
0000
0000
0000
ENDCHAR
STARTCHAR uni0228
ENCODING 552
SWIDTH 994 0
DWIDTH 14 0
BBX 14 26 0 -6
BITMAP
0000
0000
0000
0000
FFF0
FFF0
C000
C000
C000
C000
C000
C000
FF00
FF00
C000
C000
C000
C000
C000
C000
FFF0
FFF0
0300
0300
3C00
3C00
ENDCHAR
STARTCHAR uni0229
ENCODING 553
SWIDTH 994 0
DWIDTH 14 0
BBX 14 26 0 -6
BITMAP
0000
0000
0000
0000
0000
0000
0000
0000
0000
0000
3FC0
3FC0
C030
C030
FFF0
FFF0
C000
C000
C030
C030
3FC0
3FC0
00C0
00C0
0F00
0F00
ENDCHAR
STARTCHAR uni022A
ENCODING 554
SWIDTH 994 0
DWIDTH 14 0
BBX 14 26 0 -6
BITMAP
3FC0
3FC0
0000
0000
30C0
30C0
0000
0000
3FC0
3FC0
C030
C030
C030
C030
C030
C030
C030
C030
C030
C030
3FC0
3FC0
0000
0000
0000
0000
ENDCHAR
STARTCHAR uni022B
ENCODING 555
SWIDTH 994 0
DWIDTH 14 0
BBX 14 26 0 -6
BITMAP
0000
0000
3FC0
3FC0
0000
0000
30C0
30C0
0000
0000
3FC0
3FC0
C030
C030
C030
C030
C030
C030
C030
C030
3FC0
3FC0
0000
0000
0000
0000
ENDCHAR
STARTCHAR uni022C
ENCODING 556
SWIDTH 994 0
DWIDTH 14 0
BBX 14 26 0 -6
BITMAP
3FC0
3FC0
0CC0
0CC0
3300
3300
0000
0000
3FC0
3FC0
C030
C030
C030
C030
C030
C030
C030
C030
C030
C030
3FC0
3FC0
0000
0000
0000
0000
ENDCHAR
STARTCHAR uni022D
ENCODING 557
SWIDTH 994 0
DWIDTH 14 0
BBX 14 26 0 -6
BITMAP
3FC0
3FC0
0000
0000
0CC0
0CC0
3300
3300
0000
0000
3FC0
3FC0
C030
C030
C030
C030
C030
C030
C030
C030
3FC0
3FC0
0000
0000
0000
0000
ENDCHAR
STARTCHAR uni022E
ENCODING 558
SWIDTH 994 0
DWIDTH 14 0
BBX 14 26 0 -6
BITMAP
0F00
0F00
0000
0000
3FC0
3FC0
C030
C030
C030
C030
C030
C030
C030
C030
C030
C030
C030
C030
C030
C030
3FC0
3FC0
0000
0000
0000
0000
ENDCHAR
STARTCHAR uni022F
ENCODING 559
SWIDTH 994 0
DWIDTH 14 0
BBX 14 26 0 -6
BITMAP
0000
0000
0000
0000
0000
0000
0F00
0F00
0000
0000
3FC0
3FC0
C030
C030
C030
C030
C030
C030
C030
C030
3FC0
3FC0
0000
0000
0000
0000
ENDCHAR
STARTCHAR uni0230
ENCODING 560
SWIDTH 994 0
DWIDTH 14 0
BBX 14 26 0 -6
BITMAP
3FC0
3FC0
0000
0000
0F00
0F00
0000
0000
3FC0
3FC0
C030
C030
C030
C030
C030
C030
C030
C030
C030
C030
3FC0
3FC0
0000
0000
0000
0000
ENDCHAR
STARTCHAR uni0231
ENCODING 561
SWIDTH 994 0
DWIDTH 14 0
BBX 14 26 0 -6
BITMAP
0000
0000
3FC0
3FC0
0000
0000
0F00
0F00
0000
0000
3FC0
3FC0
C030
C030
C030
C030
C030
C030
C030
C030
3FC0
3FC0
0000
0000
0000
0000
ENDCHAR
STARTCHAR uni0232
ENCODING 562
SWIDTH 994 0
DWIDTH 14 0
BBX 14 26 0 -6
BITMAP
3FF0
3FF0
0000
0000
3030
3030
3030
3030
0CC0
0CC0
0300
0300
0300
0300
0300
0300
0300
0300
0300
0300
0300
0300
0000
0000
0000
0000
ENDCHAR
STARTCHAR uni0233
ENCODING 563
SWIDTH 994 0
DWIDTH 14 0
BBX 14 26 0 -6
BITMAP
0000
0000
0000
0000
0000
0000
3FC0
3FC0
0000
0000
C030
C030
C030
C030
C030
C030
C0F0
C0F0
3F30
3F30
0030
0030
C030
C030
3FC0
3FC0
ENDCHAR
STARTCHAR uni0250
ENCODING 592
SWIDTH 994 0
DWIDTH 14 0
BBX 14 26 0 -6
BITMAP
0000
0000
0000
0000
0000
0000
0000
0000
0000
0000
CFC0
CFC0
F030
F030
C030
C030
FFC0
FFC0
C000
C000
3FC0
3FC0
0000
0000
0000
0000
ENDCHAR
STARTCHAR uni0251
ENCODING 593
SWIDTH 994 0
DWIDTH 14 0
BBX 14 26 0 -6
BITMAP
0000
0000
0000
0000
0000
0000
0000
0000
0000
0000
3F30
3F30
C0F0
C0F0
C030
C030
C030
C030
C0F0
C0F0
3F30
3F30
0000
0000
0000
0000
ENDCHAR
STARTCHAR uni0252
ENCODING 594
SWIDTH 994 0
DWIDTH 14 0
BBX 14 26 0 -6
BITMAP
0000
0000
0000
0000
0000
0000
0000
0000
0000
0000
CFC0
CFC0
F030
F030
C030
C030
C030
C030
F030
F030
CFC0
CFC0
0000
0000
0000
0000
ENDCHAR
STARTCHAR uni0253
ENCODING 595
SWIDTH 994 0
DWIDTH 14 0
BBX 14 26 0 -6
BITMAP
0000
0000
0000
0000
3F00
3F00
C000
C000
C000
C000
CFC0
CFC0
F030
F030
C030
C030
C030
C030
F030
F030
CFC0
CFC0
0000
0000
0000
0000
ENDCHAR
STARTCHAR uni0254
ENCODING 596
SWIDTH 994 0
DWIDTH 14 0
BBX 14 26 0 -6
BITMAP
0000
0000
0000
0000
0000
0000
0000
0000
0000
0000
3FC0
3FC0
C030
C030
0030
0030
0030
0030
C030
C030
3FC0
3FC0
0000
0000
0000
0000
ENDCHAR
STARTCHAR uni0255
ENCODING 597
SWIDTH 994 0
DWIDTH 14 0
BBX 14 26 0 -6
BITMAP
0000
0000
0000
0000
0000
0000
0000
0000
0000
0000
3FC0
3FC0
C030
C030
C000
C000
C0C0
C0C0
C330
C330
3FC0
3FC0
0C00
0C00
0000
0000
ENDCHAR
STARTCHAR uni0256
ENCODING 598
SWIDTH 994 0
DWIDTH 14 0
BBX 14 26 0 -6
BITMAP
0000
0000
0000
0000
00C0
00C0
00C0
00C0
00C0
00C0
3FC0
3FC0
C0C0
C0C0
C0C0
C0C0
C0C0
C0C0
C0C0
C0C0
3FC0
3FC0
003C
003C
0000
0000
ENDCHAR
STARTCHAR uni0257
ENCODING 599
SWIDTH 994 0
DWIDTH 14 0
BBX 14 26 0 -6
BITMAP
0000
0000
0000
0000
0030
0030
00CC
00CC
00CC
00CC
3FC0
3FC0
C0C0
C0C0
C0C0
C0C0
C0C0
C0C0
C0C0
C0C0
3FC0
3FC0
0000
0000
0000
0000
ENDCHAR
STARTCHAR uni0258
ENCODING 600
SWIDTH 994 0
DWIDTH 14 0
BBX 14 26 0 -6
BITMAP
0000
0000
0000
0000
0000
0000
0000
0000
0000
0000
3FC0
3FC0
C030
C030
FFF0
FFF0
0030
0030
C030
C030
3FC0
3FC0
0000
0000
0000
0000
ENDCHAR
STARTCHAR uni0259
ENCODING 601
SWIDTH 994 0
DWIDTH 14 0
BBX 14 26 0 -6
BITMAP
0000
0000
0000
0000
0000
0000
0000
0000
0000
0000
3FC0
3FC0
C030
C030
0030
0030
FFF0
FFF0
C030
C030
3FC0
3FC0
0000
0000
0000
0000
ENDCHAR
STARTCHAR uni025A
ENCODING 602
SWIDTH 994 0
DWIDTH 14 0
BBX 14 26 0 -6
BITMAP
0000
0000
0000
0000
0000
0000
0000
0000
0000
0000
3F00
3F00
C0C0
C0C0
00F0
00F0
FFCC
FFCC
C0C0
C0C0
3F00
3F00
0000
0000
0000
0000
ENDCHAR
STARTCHAR uni025B
ENCODING 603
SWIDTH 994 0
DWIDTH 14 0
BBX 14 26 0 -6
BITMAP
0000
0000
0000
0000
0000
0000
0000
0000
0000
0000
3F00
3F00
C0C0
C0C0
3C00
3C00
C000
C000
C0C0
C0C0
3F00
3F00
0000
0000
0000
0000
ENDCHAR
STARTCHAR uni025C
ENCODING 604
SWIDTH 994 0
DWIDTH 14 0
BBX 14 26 0 -6
BITMAP
0000
0000
0000
0000
0000
0000
0000
0000
0000
0000
3F00
3F00
C0C0
C0C0
0F00
0F00
00C0
00C0
C0C0
C0C0
3F00
3F00
0000
0000
0000
0000
ENDCHAR
STARTCHAR uni025D
ENCODING 605
SWIDTH 994 0
DWIDTH 14 0
BBX 14 26 0 -6
BITMAP
0000
0000
0000
0000
0000
0000
0000
0000
0000
0000
3F00
3F00
C0F0
C0F0
0F0C
0F0C
00C0
00C0
C0C0
C0C0
3F00
3F00
0000
0000
0000
0000
ENDCHAR
STARTCHAR uni025E
ENCODING 606
SWIDTH 994 0
DWIDTH 14 0
BBX 14 26 0 -6
BITMAP
0000
0000
0000
0000
0000
0000
0000
0000
0000
0000
3F00
3F00
C0C0
C0C0
CF00
CF00
C0C0
C0C0
C0C0
C0C0
3F00
3F00
0000
0000
0000
0000
ENDCHAR
STARTCHAR uni025F
ENCODING 607
SWIDTH 994 0
DWIDTH 14 0
BBX 14 26 0 -6
BITMAP
0000
0000
0000
0000
0000
0000
0000
0000
00C0
00C0
00C0
00C0
00C0
00C0
00C0
00C0
0FF0
0FF0
00C0
00C0
00C0
00C0
C0C0
C0C0
3F00
3F00
ENDCHAR
STARTCHAR uni0260
ENCODING 608
SWIDTH 994 0
DWIDTH 14 0
BBX 14 26 0 -6
BITMAP
0000
0000
0000
0000
0000
0000
0000
0000
000C
000C
3F30
3F30
C0C0
C0C0
C0C0
C0C0
3F00
3F00
C000
C000
3FC0
3FC0
C030
C030
3FC0
3FC0
ENDCHAR
STARTCHAR uni0261
ENCODING 609
SWIDTH 994 0
DWIDTH 14 0
BBX 14 26 0 -6
BITMAP
0000
0000
0000
0000
0000
0000
0000
0000
0000
0000
3F30
3F30
C0F0
C0F0
C030
C030
C0F0
C0F0
3F30
3F30
0030
0030
C030
C030
3FC0
3FC0
ENDCHAR
STARTCHAR uni0262
ENCODING 610
SWIDTH 994 0
DWIDTH 14 0
BBX 14 26 0 -6
BITMAP
0000
0000
0000
0000
0000
0000
0000
0000
0000
0000
3FC0
3FC0
C030
C030
C000
C000
C3F0
C3F0
C030
C030
3FC0
3FC0
0000
0000
0000
0000
ENDCHAR
STARTCHAR uni0263
ENCODING 611
SWIDTH 994 0
DWIDTH 14 0
BBX 14 26 0 -6
BITMAP
0000
0000
0000
0000
0000
0000
0000
0000
0000
0000
3030
3030
3030
3030
3030
3030
0CC0
0CC0
0CC0
0CC0
0300
0300
0CC0
0CC0
0300
0300
ENDCHAR
STARTCHAR uni0264
ENCODING 612
SWIDTH 994 0
DWIDTH 14 0
BBX 14 26 0 -6
BITMAP
0000
0000
0000
0000
0000
0000
0000
0000
0000
0000
3030
3030
3030
3030
0CC0
0CC0
0300
0300
0CC0
0CC0
0300
0300
0000
0000
0000
0000
ENDCHAR
STARTCHAR uni0265
ENCODING 613
SWIDTH 994 0
DWIDTH 14 0
BBX 14 26 0 -6
BITMAP
0000
0000
0000
0000
0000
0000
0000
0000
C030
C030
C030
C030
C030
C030
C030
C030
C0F0
C0F0
3F30
3F30
0030
0030
0030
0030
0030
0030
ENDCHAR
STARTCHAR uni0266
ENCODING 614
SWIDTH 994 0
DWIDTH 14 0
BBX 14 26 0 -6
BITMAP
0000
0000
3FC0
3FC0
C000
C000
C000
C000
C000
C000
CFC0
CFC0
F030
F030
C030
C030
C030
C030
C030
C030
C030
C030
0000
0000
0000
0000
ENDCHAR
STARTCHAR uni0267
ENCODING 615
SWIDTH 994 0
DWIDTH 14 0
BBX 14 26 0 -6
BITMAP
0000
0000
3FC0
3FC0
C000
C000
C000
C000
C000
C000
CFC0
CFC0
F030
F030
C030
C030
C030
C030
C030
C030
C030
C030
0030
0030
0FC0
0FC0
ENDCHAR
STARTCHAR uni0268
ENCODING 616
SWIDTH 994 0
DWIDTH 14 0
BBX 14 26 0 -6
BITMAP
0000
0000
0000
0000
0000
0000
0300
0300
0000
0000
0F00
0F00
0300
0300
3FF0
3FF0
0300
0300
0300
0300
3FF0
3FF0
0000
0000
0000
0000
ENDCHAR
STARTCHAR uni0269
ENCODING 617
SWIDTH 994 0
DWIDTH 14 0
BBX 14 26 0 -6
BITMAP
0000
0000
0000
0000
0000
0000
0000
0000
0000
0000
3000
3000
3000
3000
3000
3000
3000
3000
30C0
30C0
0F00
0F00
0000
0000
0000
0000
ENDCHAR
STARTCHAR uni026A
ENCODING 618
SWIDTH 994 0
DWIDTH 14 0
BBX 14 26 0 -6
BITMAP
0000
0000
0000
0000
0000
0000
0000
0000
0000
0000
3F00
3F00
0C00
0C00
0C00
0C00
0C00
0C00
0C00
0C00
3F00
3F00
0000
0000
0000
0000
ENDCHAR
STARTCHAR uni026B
ENCODING 619
SWIDTH 994 0
DWIDTH 14 0
BBX 14 26 0 -6
BITMAP
0000
0000
0000
0000
0F00
0F00
0300
0300
0300
0300
0F30
0F30
33C0
33C0
0300
0300
0300
0300
0300
0300
3FF0
3FF0
0000
0000
0000
0000
ENDCHAR
STARTCHAR uni026C
ENCODING 620
SWIDTH 994 0
DWIDTH 14 0
BBX 14 26 0 -6
BITMAP
0000
0000
0000
0000
0F00
0F00
0300
0300
0300
0300
0F00
0F00
3300
3300
0FF0
0FF0
0300
0300
0300
0300
3FF0
3FF0
0000
0000
0000
0000
ENDCHAR
STARTCHAR uni026D
ENCODING 621
SWIDTH 994 0
DWIDTH 14 0
BBX 14 26 0 -6
BITMAP
0000
0000
0000
0000
3C00
3C00
0C00
0C00
0C00
0C00
0C00
0C00
0C00
0C00
0C00
0C00
0C00
0C00
0C00
0C00
0C00
0C00
0CC0
0CC0
0300
0300
ENDCHAR
STARTCHAR uni026E
ENCODING 622
SWIDTH 994 0
DWIDTH 14 0
BBX 14 26 0 -6
BITMAP
0000
0000
0000
0000
C000
C000
C000
C000
C000
C000
CFC0
CFC0
F030
F030
C030
C030
C030
C030
C0C0
C0C0
0000
0000
C300
C300
3C00
3C00
ENDCHAR
STARTCHAR uni026F
ENCODING 623
SWIDTH 994 0
DWIDTH 14 0
BBX 14 26 0 -6
BITMAP
0000
0000
0000
0000
0000
0000
0000
0000
0000
0000
3030
3030
3330
3330
3330
3330
3330
3330
3330
3330
0CF0
0CF0
0000
0000
0000
0000
ENDCHAR
STARTCHAR uni0270
ENCODING 624
SWIDTH 994 0
DWIDTH 14 0
BBX 14 26 0 -6
BITMAP
0000
0000
0000
0000
0000
0000
0000
0000
0000
0000
3030
3030
3330
3330
3330
3330
3330
3330
3330
3330
0CF0
0CF0
0030
0030
0030
0030
ENDCHAR
STARTCHAR uni0271
ENCODING 625
SWIDTH 994 0
DWIDTH 14 0
BBX 14 26 0 -6
BITMAP
0000
0000
0000
0000
0000
0000
0000
0000
0000
0000
3CC0
3CC0
3330
3330
3330
3330
3330
3330
3330
3330
3030
3030
0030
0030
0FC0
0FC0
ENDCHAR
STARTCHAR uni0272
ENCODING 626
SWIDTH 994 0
DWIDTH 14 0
BBX 14 26 0 -6
BITMAP
0000
0000
0000
0000
0000
0000
0000
0000
0000
0000
33C0
33C0
3C30
3C30
3030
3030
3030
3030
3030
3030
3030
3030
C000
C000
0000
0000
ENDCHAR
STARTCHAR uni0273
ENCODING 627
SWIDTH 994 0
DWIDTH 14 0
BBX 14 26 0 -6
BITMAP
0000
0000
0000
0000
0000
0000
0000
0000
0000
0000
CF00
CF00
F0C0
F0C0
C0C0
C0C0
C0C0
C0C0
C0C0
C0C0
C0C0
C0C0
0030
0030
0000
0000
ENDCHAR
STARTCHAR uni0274
ENCODING 628
SWIDTH 994 0
DWIDTH 14 0
BBX 14 26 0 -6
BITMAP
0000
0000
0000
0000
0000
0000
0000
0000
0000
0000
C030
C030
F030
F030
CC30
CC30
C330
C330
C0F0
C0F0
C030
C030
0000
0000
0000
0000
ENDCHAR
STARTCHAR uni0275
ENCODING 629
SWIDTH 994 0
DWIDTH 14 0
BBX 14 26 0 -6
BITMAP
0000
0000
0000
0000
0000
0000
0000
0000
0000
0000
3FC0
3FC0
C030
C030
FFF0
FFF0
C030
C030
C030
C030
3FC0
3FC0
0000
0000
0000
0000
ENDCHAR
STARTCHAR uni0276
ENCODING 630
SWIDTH 994 0
DWIDTH 14 0
BBX 14 26 0 -6
BITMAP
0000
0000
0000
0000
0000
0000
0000
0000
0000
0000
3FF0
3FF0
C300
C300
C3F0
C3F0
C300
C300
C300
C300
3FF0
3FF0
0000
0000
0000
0000
ENDCHAR
STARTCHAR uni0277
ENCODING 631
SWIDTH 994 0
DWIDTH 14 0
BBX 14 26 0 -6
BITMAP
0000
0000
0000
0000
0000
0000
0000
0000
0000
0000
3F00
3F00
C0C0
C0C0
CCC0
CCC0
CCC0
CCC0
CCC0
CCC0
3300
3300
0000
0000
0000
0000
ENDCHAR
STARTCHAR uni0278
ENCODING 632
SWIDTH 994 0
DWIDTH 14 0
BBX 14 26 0 -6
BITMAP
0000
0000
0000
0000
0000
0000
0C00
0C00
0C00
0C00
3F00
3F00
CCC0
CCC0
CCC0
CCC0
CCC0
CCC0
CCC0
CCC0
3F00
3F00
0C00
0C00
0C00
0C00
ENDCHAR
STARTCHAR uni0279
ENCODING 633
SWIDTH 994 0
DWIDTH 14 0
BBX 14 26 0 -6
BITMAP
0000
0000
0000
0000
0000
0000
0000
0000
0000
0000
00C0
00C0
00C0
00C0
00C0
00C0
00C0
00C0
C0C0
C0C0
3F30
3F30
0000
0000
0000
0000
ENDCHAR
STARTCHAR uni027A
ENCODING 634
SWIDTH 994 0
DWIDTH 14 0
BBX 14 26 0 -6
BITMAP
0000
0000
0000
0000
00C0
00C0
00C0
00C0
00C0
00C0
00C0
00C0
00C0
00C0
00C0
00C0
00C0
00C0
C0C0
C0C0
3F30
3F30
0000
0000
0000
0000
ENDCHAR
STARTCHAR uni027B
ENCODING 635
SWIDTH 994 0
DWIDTH 14 0
BBX 14 26 0 -6
BITMAP
0000
0000
0000
0000
0000
0000
00C0
00C0
00C0
00C0
00C0
00C0
00C0
00C0
C3C0
C3C0
3CC0
3CC0
00C0
00C0
0030
0030
0000
0000
0000
0000
ENDCHAR
STARTCHAR uni027C
ENCODING 636
SWIDTH 994 0
DWIDTH 14 0
BBX 14 26 0 -6
BITMAP
0000
0000
0000
0000
0000
0000
0000
0000
0000
0000
CFC0
CFC0
3030
3030
3000
3000
3000
3000
3000
3000
3000
3000
3000
3000
3000
3000
ENDCHAR
STARTCHAR uni027D
ENCODING 637
SWIDTH 994 0
DWIDTH 14 0
BBX 14 26 0 -6
BITMAP
0000
0000
0000
0000
0000
0000
0000
0000
0000
0000
CFC0
CFC0
3030
3030
3000
3000
3000
3000
3000
3000
3000
3000
30C0
30C0
0F00
0F00
ENDCHAR
STARTCHAR uni027E
ENCODING 638
SWIDTH 994 0
DWIDTH 14 0
BBX 14 26 0 -6
BITMAP
0000
0000
0000
0000
0000
0000
0000
0000
0000
0000
0FC0
0FC0
3030
3030
3000
3000
3000
3000
3000
3000
3000
3000
0000
0000
0000
0000
ENDCHAR
STARTCHAR uni027F
ENCODING 639
SWIDTH 994 0
DWIDTH 14 0
BBX 14 26 0 -6
BITMAP
0000
0000
0000
0000
0000
0000
0000
0000
0000
0000
0FC0
0FC0
3030
3030
0030
0030
0030
0030
0030
0030
0030
0030
0000
0000
0000
0000
ENDCHAR
STARTCHAR uni0280
ENCODING 640
SWIDTH 994 0
DWIDTH 14 0
BBX 14 26 0 -6
BITMAP
0000
0000
0000
0000
0000
0000
0000
0000
0000
0000
FF00
FF00
C0C0
C0C0
C0C0
C0C0
FF00
FF00
C300
C300
C0C0
C0C0
0000
0000
0000
0000
ENDCHAR
STARTCHAR uni0281
ENCODING 641
SWIDTH 994 0
DWIDTH 14 0
BBX 14 26 0 -6
BITMAP
0000
0000
0000
0000
0000
0000
0000
0000
0000
0000
C0C0
C0C0
C300
C300
FF00
FF00
C0C0
C0C0
C0C0
C0C0
FF00
FF00
0000
0000
0000
0000
ENDCHAR
STARTCHAR uni0282
ENCODING 642
SWIDTH 994 0
DWIDTH 14 0
BBX 14 26 0 -6
BITMAP
0000
0000
0000
0000
0000
0000
0000
0000
0000
0000
3FC0
3FC0
C030
C030
3C00
3C00
03C0
03C0
C030
C030
FFC0
FFC0
C000
C000
3C00
3C00
ENDCHAR
STARTCHAR uni0283
ENCODING 643
SWIDTH 994 0
DWIDTH 14 0
BBX 14 26 0 -6
BITMAP
0000
0000
0000
0000
00C0
00C0
0330
0330
0300
0300
0300
0300
0300
0300
0300
0300
0300
0300
0300
0300
0300
0300
3300
3300
0C00
0C00
ENDCHAR
STARTCHAR uni0284
ENCODING 644
SWIDTH 994 0
DWIDTH 14 0
BBX 14 26 0 -6
BITMAP
0000
0000
0000
0000
0030
0030
00C0
00C0
00C0
00C0
00C0
00C0
00C0
00C0
00C0
00C0
0FF0
0FF0
00C0
00C0
00C0
00C0
C0C0
C0C0
3F00
3F00
ENDCHAR
STARTCHAR uni0285
ENCODING 645
SWIDTH 994 0
DWIDTH 14 0
BBX 14 26 0 -6
BITMAP
0000
0000
0000
0000
0C00
0C00
3300
3300
0300
0300
0300
0300
0300
0300
0300
0300
0300
0300
0300
0300
0300
0300
0330
0330
00C0
00C0
ENDCHAR
STARTCHAR uni0286
ENCODING 646
SWIDTH 994 0
DWIDTH 14 0
BBX 14 26 0 -6
BITMAP
0000
0000
0000
0000
00C0
00C0
0330
0330
0300
0300
0300
0300
0300
0300
0300
0300
0300
0300
0FC0
0FC0
3330
3330
3300
3300
0C00
0C00
ENDCHAR
STARTCHAR uni0287
ENCODING 647
SWIDTH 994 0
DWIDTH 14 0
BBX 14 26 0 -6
BITMAP
0000
0000
0000
0000
0000
0000
3F00
3F00
C0C0
C0C0
00C0
00C0
00C0
00C0
00C0
00C0
0FF0
0FF0
00C0
00C0
00C0
00C0
0000
0000
0000
0000
ENDCHAR
STARTCHAR uni0288
ENCODING 648
SWIDTH 994 0
DWIDTH 14 0
BBX 14 26 0 -6
BITMAP
0000
0000
0000
0000
0000
0000
3000
3000
3000
3000
FF00
FF00
3000
3000
3000
3000
3000
3000
3000
3000
3000
3000
3030
3030
0FC0
0FC0
ENDCHAR
STARTCHAR uni0289
ENCODING 649
SWIDTH 994 0
DWIDTH 14 0
BBX 14 26 0 -6
BITMAP
0000
0000
0000
0000
0000
0000
0000
0000
0000
0000
3030
3030
3030
3030
FFFC
FFFC
3030
3030
30F0
30F0
0F30
0F30
0000
0000
0000
0000
ENDCHAR
STARTCHAR uni028A
ENCODING 650
SWIDTH 994 0
DWIDTH 14 0
BBX 14 26 0 -6
BITMAP
0000
0000
0000
0000
0000
0000
0000
0000
0000
0000
F0F0
F0F0
30C0
30C0
C030
C030
C030
C030
30C0
30C0
0F00
0F00
0000
0000
0000
0000
ENDCHAR
STARTCHAR uni028B
ENCODING 651
SWIDTH 994 0
DWIDTH 14 0
BBX 14 26 0 -6
BITMAP
0000
0000
0000
0000
0000
0000
0000
0000
0000
0000
C0C0
C0C0
C030
C030
C030
C030
C030
C030
C0C0
C0C0
3F00
3F00
0000
0000
0000
0000
ENDCHAR
STARTCHAR uni028C
ENCODING 652
SWIDTH 994 0
DWIDTH 14 0
BBX 14 26 0 -6
BITMAP
0000
0000
0000
0000
0000
0000
0000
0000
0000
0000
0300
0300
0CC0
0CC0
0CC0
0CC0
3030
3030
3030
3030
3030
3030
0000
0000
0000
0000
ENDCHAR
STARTCHAR uni028D
ENCODING 653
SWIDTH 994 0
DWIDTH 14 0
BBX 14 26 0 -6
BITMAP
0000
0000
0000
0000
0000
0000
0000
0000
0000
0000
0CC0
0CC0
3330
3330
3330
3330
3330
3330
3030
3030
3030
3030
0000
0000
0000
0000
ENDCHAR
STARTCHAR uni028E
ENCODING 654
SWIDTH 994 0
DWIDTH 14 0
BBX 14 26 0 -6
BITMAP
0000
0000
0000
0000
00C0
00C0
0330
0330
0300
0300
0C00
0C00
0C00
0C00
3F00
3F00
30C0
30C0
C0C0
C0C0
C030
C030
0000
0000
0000
0000
ENDCHAR
STARTCHAR uni028F
ENCODING 655
SWIDTH 994 0
DWIDTH 14 0
BBX 14 26 0 -6
BITMAP
0000
0000
0000
0000
0000
0000
0000
0000
0000
0000
3030
3030
0CC0
0CC0
0300
0300
0300
0300
0300
0300
0300
0300
0000
0000
0000
0000
ENDCHAR
STARTCHAR uni0290
ENCODING 656
SWIDTH 994 0
DWIDTH 14 0
BBX 14 26 0 -6
BITMAP
0000
0000
0000
0000
0000
0000
0000
0000
0000
0000
FFF0
FFF0
00C0
00C0
0300
0300
0C00
0C00
3000
3000
FFC0
FFC0
00C0
00C0
003C
003C
ENDCHAR
STARTCHAR uni0291
ENCODING 657
SWIDTH 994 0
DWIDTH 14 0
BBX 14 26 0 -6
BITMAP
0000
0000
0000
0000
0000
0000
0000
0000
0000
0000
FFF0
FFF0
00C0
00C0
0300
0300
0C30
0C30
30CC
30CC
FFF0
FFF0
0300
0300
0000
0000
ENDCHAR
STARTCHAR uni0292
ENCODING 658
SWIDTH 994 0
DWIDTH 14 0
BBX 14 26 0 -6
BITMAP
0000
0000
0000
0000
0000
0000
0000
0000
0000
0000
FFF0
FFF0
00C0
00C0
0300
0300
0FC0
0FC0
0030
0030
0030
0030
C030
C030
3FC0
3FC0
ENDCHAR
STARTCHAR uni0293
ENCODING 659
SWIDTH 994 0
DWIDTH 14 0
BBX 14 26 0 -6
BITMAP
0000
0000
0000
0000
0000
0000
0000
0000
0000
0000
FFF0
FFF0
00C0
00C0
0300
0300
0FC0
0FC0
0030
0030
3FFC
3FFC
C030
C030
3FC0
3FC0
ENDCHAR
STARTCHAR uni0294
ENCODING 660
SWIDTH 994 0
DWIDTH 14 0
BBX 14 26 0 -6
BITMAP
0000
0000
0000
0000
0FC0
0FC0
3030
3030
0030
0030
0030
0030
03C0
03C0
0300
0300
0300
0300
0300
0300
0300
0300
0000
0000
0000
0000
ENDCHAR
STARTCHAR uni0295
ENCODING 661
SWIDTH 994 0
DWIDTH 14 0
BBX 14 26 0 -6
BITMAP
0000
0000
0000
0000
0FC0
0FC0
3030
3030
3000
3000
3000
3000
0F00
0F00
0300
0300
0300
0300
0300
0300
0300
0300
0000
0000
0000
0000
ENDCHAR
STARTCHAR uni0296
ENCODING 662
SWIDTH 994 0
DWIDTH 14 0
BBX 14 26 0 -6
BITMAP
0000
0000
0000
0000
0300
0300
0300
0300
0300
0300
0300
0300
03C0
03C0
0030
0030
0030
0030
3030
3030
0FC0
0FC0
0000
0000
0000
0000
ENDCHAR
STARTCHAR uni0297
ENCODING 663
SWIDTH 994 0
DWIDTH 14 0
BBX 14 26 0 -6
BITMAP
0000
0000
0000
0000
0F00
0F00
30C0
30C0
3000
3000
3000
3000
3000
3000
3000
3000
3000
3000
30C0
30C0
0F00
0F00
0000
0000
0000
0000
ENDCHAR
STARTCHAR uni0298
ENCODING 664
SWIDTH 994 0
DWIDTH 14 0
BBX 14 26 0 -6
BITMAP
0000
0000
0000
0000
0000
0000
0000
0000
0000
0000
3FC0
3FC0
C030
C030
CF30
CF30
CF30
CF30
C030
C030
3FC0
3FC0
0000
0000
0000
0000
ENDCHAR
STARTCHAR uni0299
ENCODING 665
SWIDTH 994 0
DWIDTH 14 0
BBX 14 26 0 -6
BITMAP
0000
0000
0000
0000
0000
0000
0000
0000
0000
0000
FF00
FF00
C0C0
C0C0
FF00
FF00
C0C0
C0C0
C0C0
C0C0
FF00
FF00
0000
0000
0000
0000
ENDCHAR
STARTCHAR uni029A
ENCODING 666
SWIDTH 994 0
DWIDTH 14 0
BBX 14 26 0 -6
BITMAP
0000
0000
0000
0000
0000
0000
0000
0000
0000
0000
3F00
3F00
C0C0
C0C0
3CC0
3CC0
C0C0
C0C0
C0C0
C0C0
3F00
3F00
0000
0000
0000
0000
ENDCHAR
STARTCHAR uni029B
ENCODING 667
SWIDTH 994 0
DWIDTH 14 0
BBX 14 26 0 -6
BITMAP
0000
0000
0000
0000
0000
0000
0000
0000
003C
003C
3FC0
3FC0
C030
C030
C000
C000
C3F0
C3F0
C030
C030
3FC0
3FC0
0000
0000
0000
0000
ENDCHAR
STARTCHAR uni029C
ENCODING 668
SWIDTH 994 0
DWIDTH 14 0
BBX 14 26 0 -6
BITMAP
0000
0000
0000
0000
0000
0000
0000
0000
0000
0000
C0C0
C0C0
C0C0
C0C0
FFC0
FFC0
C0C0
C0C0
C0C0
C0C0
C0C0
C0C0
0000
0000
0000
0000
ENDCHAR
STARTCHAR uni029D
ENCODING 669
SWIDTH 994 0
DWIDTH 14 0
BBX 14 26 0 -6
BITMAP
0000
0000
0000
0000
0000
0000
00C0
00C0
0000
0000
03C0
03C0
00C0
00C0
00C0
00C0
00C0
00C0
3FF0
3FF0
C0C0
C0C0
C0C0
C0C0
3F00
3F00
ENDCHAR
STARTCHAR uni029E
ENCODING 670
SWIDTH 994 0
DWIDTH 14 0
BBX 14 26 0 -6
BITMAP
0000
0000
0000
0000
0000
0000
0000
0000
C030
C030
3030
3030
0C30
0C30
03F0
03F0
0C30
0C30
3030
3030
0030
0030
0030
0030
0030
0030
ENDCHAR
STARTCHAR uni029F
ENCODING 671
SWIDTH 994 0
DWIDTH 14 0
BBX 14 26 0 -6
BITMAP
0000
0000
0000
0000
0000
0000
0000
0000
0000
0000
C000
C000
C000
C000
C000
C000
C000
C000
C000
C000
FFC0
FFC0
0000
0000
0000
0000
ENDCHAR
STARTCHAR uni02A0
ENCODING 672
SWIDTH 994 0
DWIDTH 14 0
BBX 14 26 0 -6
BITMAP
0000
0000
0000
0000
0000
0000
0000
0000
003C
003C
3CC0
3CC0
C3C0
C3C0
C0C0
C0C0
C3C0
C3C0
3CC0
3CC0
00C0
00C0
00C0
00C0
00C0
00C0
ENDCHAR
STARTCHAR uni02A1
ENCODING 673
SWIDTH 994 0
DWIDTH 14 0
BBX 14 26 0 -6
BITMAP
0000
0000
0000
0000
0FC0
0FC0
3030
3030
0030
0030
0030
0030
03C0
03C0
0300
0300
3FF0
3FF0
0300
0300
0300
0300
0000
0000
0000
0000
ENDCHAR
STARTCHAR uni02A2
ENCODING 674
SWIDTH 994 0
DWIDTH 14 0
BBX 14 26 0 -6
BITMAP
0000
0000
0000
0000
0FC0
0FC0
3030
3030
3000
3000
3000
3000
0F00
0F00
0300
0300
3FF0
3FF0
0300
0300
0300
0300
0000
0000
0000
0000
ENDCHAR
STARTCHAR uni02A3
ENCODING 675
SWIDTH 994 0
DWIDTH 14 0
BBX 14 26 0 -6
BITMAP
0000
0000
0000
0000
0C00
0C00
0C00
0C00
0C00
0C00
3FF0
3FF0
CC30
CC30
CCC0
CCC0
CCC0
CCC0
CF00
CF00
3FF0
3FF0
0000
0000
0000
0000
ENDCHAR
STARTCHAR uni02A4
ENCODING 676
SWIDTH 994 0
DWIDTH 14 0
BBX 14 26 0 -6
BITMAP
0000
0000
0000
0000
0C00
0C00
0C00
0C00
0C00
0C00
3FF0
3FF0
CC30
CC30
CCC0
CCC0
CFF0
CFF0
CC0C
CC0C
3C0C
3C0C
0030
0030
03C0
03C0
ENDCHAR
STARTCHAR uni02A5
ENCODING 677
SWIDTH 994 0
DWIDTH 14 0
BBX 14 26 0 -6
BITMAP
0000
0000
0000
0000
0C00
0C00
0C00
0C00
0C00
0C00
3FF0
3FF0
CC30
CC30
CCC0
CCC0
CCC0
CCC0
CFF0
CFF0
3FF0
3FF0
00C0
00C0
0300
0300
ENDCHAR
STARTCHAR uni02A6
ENCODING 678
SWIDTH 994 0
DWIDTH 14 0
BBX 14 26 0 -6
BITMAP
0000
0000
0000
0000
0000
0000
3000
3000
3000
3000
FFC0
FFC0
3330
3330
3300
3300
30C0
30C0
3030
3030
0FC0
0FC0
0000
0000
0000
0000
ENDCHAR
STARTCHAR uni02A7
ENCODING 679
SWIDTH 994 0
DWIDTH 14 0
BBX 14 26 0 -6
BITMAP
0000
0000
0000
0000
0030
0030
30CC
30CC
30C0
30C0
FFC0
FFC0
30C0
30C0
30C0
30C0
30C0
30C0
30C0
30C0
30C0
30C0
0CC0
0CC0
0300
0300
ENDCHAR
STARTCHAR uni02A8
ENCODING 680
SWIDTH 994 0
DWIDTH 14 0
BBX 14 26 0 -6
BITMAP
0000
0000
0000
0000
0000
0000
3000
3000
3000
3000
FFC0
FFC0
3330
3330
3300
3300
3300
3300
3330
3330
0FC0
0FC0
0000
0000
0000
0000
ENDCHAR
STARTCHAR uni02A9
ENCODING 681
SWIDTH 994 0
DWIDTH 14 0
BBX 14 26 0 -6
BITMAP
0000
0000
0000
0000
0F00
0F00
30C0
30C0
3000
3000
3000
3000
FFC0
FFC0
3330
3330
3330
3330
3330
3330
3330
3330
0030
0030
03C0
03C0
ENDCHAR
STARTCHAR uni02AA
ENCODING 682
SWIDTH 994 0
DWIDTH 14 0
BBX 14 26 0 -6
BITMAP
0000
0000
0000
0000
F000
F000
3000
3000
3000
3000
33C0
33C0
3C30
3C30
3300
3300
30C0
30C0
3C30
3C30
FFC0
FFC0
0000
0000
0000
0000
ENDCHAR
STARTCHAR uni02AB
ENCODING 683
SWIDTH 994 0
DWIDTH 14 0
BBX 14 26 0 -6
BITMAP
0000
0000
0000
0000
F000
F000
3000
3000
3000
3000
3FF0
3FF0
3030
3030
30C0
30C0
3300
3300
3C00
3C00
FFF0
FFF0
0000
0000
0000
0000
ENDCHAR
STARTCHAR uni02AC
ENCODING 684
SWIDTH 994 0
DWIDTH 14 0
BBX 14 26 0 -6
BITMAP
0000
0000
0000
0000
0000
0000
0000
0000
3330
3330
3330
3330
0CC0
0CC0
0000
0000
3330
3330
3330
3330
0CC0
0CC0
0000
0000
0000
0000
ENDCHAR
STARTCHAR uni02AD
ENCODING 685
SWIDTH 994 0
DWIDTH 14 0
BBX 14 26 0 -6
BITMAP
0000
0000
0000
0000
0000
0000
0000
0000
3FF0
3FF0
3030
3030
0000
0000
3FF0
3FF0
3030
3030
0000
0000
0000
0000
0000
0000
0000
0000
ENDCHAR
STARTCHAR uni02B0
ENCODING 688
SWIDTH 994 0
DWIDTH 14 0
BBX 14 26 0 -6
BITMAP
0000
0000
3000
3000
3000
3000
3C00
3C00
3300
3300
3300
3300
3300
3300
0000
0000
0000
0000
0000
0000
0000
0000
0000
0000
0000
0000
ENDCHAR
STARTCHAR uni02B1
ENCODING 689
SWIDTH 994 0
DWIDTH 14 0
BBX 14 26 0 -6
BITMAP
0000
0000
0C00
0C00
3000
3000
3C00
3C00
3300
3300
3300
3300
3300
3300
0000
0000
0000
0000
0000
0000
0000
0000
0000
0000
0000
0000
ENDCHAR
STARTCHAR uni02B2
ENCODING 690
SWIDTH 994 0
DWIDTH 14 0
BBX 14 26 0 -6
BITMAP
0000
0000
0000
0000
0C00
0C00
0000
0000
0C00
0C00
0C00
0C00
0C00
0C00
0C00
0C00
3000
3000
0000
0000
0000
0000
0000
0000
0000
0000
ENDCHAR
STARTCHAR uni02B3
ENCODING 691
SWIDTH 994 0
DWIDTH 14 0
BBX 14 26 0 -6
BITMAP
0000
0000
0000
0000
0000
0000
3300
3300
3C00
3C00
3000
3000
3000
3000
0000
0000
0000
0000
0000
0000
0000
0000
0000
0000
0000
0000
ENDCHAR
STARTCHAR uni02B4
ENCODING 692
SWIDTH 994 0
DWIDTH 14 0
BBX 14 26 0 -6
BITMAP
0000
0000
0000
0000
0000
0000
0300
0300
0300
0300
0F00
0F00
3300
3300
0000
0000
0000
0000
0000
0000
0000
0000
0000
0000
0000
0000
ENDCHAR
STARTCHAR uni02B5
ENCODING 693
SWIDTH 994 0
DWIDTH 14 0
BBX 14 26 0 -6
BITMAP
0000
0000
0000
0000
0000
0000
0300
0300
0300
0300
0F00
0F00
3300
3300
0300
0300
00C0
00C0
0000
0000
0000
0000
0000
0000
0000
0000
ENDCHAR
STARTCHAR uni02B6
ENCODING 694
SWIDTH 994 0
DWIDTH 14 0
BBX 14 26 0 -6
BITMAP
0000
0000
0000
0000
30C0
30C0
3300
3300
3F00
3F00
30C0
30C0
30C0
30C0
3F00
3F00
0000
0000
0000
0000
0000
0000
0000
0000
0000
0000
ENDCHAR
STARTCHAR uni02B7
ENCODING 695
SWIDTH 994 0
DWIDTH 14 0
BBX 14 26 0 -6
BITMAP
0000
0000
0000
0000
0000
0000
C0C0
C0C0
C0C0
C0C0
CCC0
CCC0
3300
3300
0000
0000
0000
0000
0000
0000
0000
0000
0000
0000
0000
0000
ENDCHAR
STARTCHAR uni02B8
ENCODING 696
SWIDTH 994 0
DWIDTH 14 0
BBX 14 26 0 -6
BITMAP
0000
0000
0000
0000
0000
0000
3300
3300
3300
3300
3300
3300
0F00
0F00
0300
0300
3C00
3C00
0000
0000
0000
0000
0000
0000
0000
0000
ENDCHAR
STARTCHAR uni02B9
ENCODING 697
SWIDTH 994 0
DWIDTH 14 0
BBX 14 26 0 -6
BITMAP
0000
0000
0000
0000
0300
0300
0300
0300
0C00
0C00
0C00
0C00
0000
0000
0000
0000
0000
0000
0000
0000
0000
0000
0000
0000
0000
0000
ENDCHAR
STARTCHAR uni02BA
ENCODING 698
SWIDTH 994 0
DWIDTH 14 0
BBX 14 26 0 -6
BITMAP
0000
0000
0000
0000
0C30
0C30
0C30
0C30
30C0
30C0
30C0
30C0
0000
0000
0000
0000
0000
0000
0000
0000
0000
0000
0000
0000
0000
0000
ENDCHAR
STARTCHAR uni02BB
ENCODING 699
SWIDTH 994 0
DWIDTH 14 0
BBX 14 26 0 -6
BITMAP
0000
0000
0000
0000
3330
3330
3330
3330
CCC0
CCC0
CCC0
CCC0
0000
0000
0000
0000
0000
0000
0000
0000
0000
0000
0000
0000
0000
0000
ENDCHAR
STARTCHAR afii57929
ENCODING 700
SWIDTH 994 0
DWIDTH 14 0
BBX 14 26 0 -6
BITMAP
0000
0000
0000
0000
0F00
0F00
0300
0300
0C00
0C00
0000
0000
0000
0000
0000
0000
0000
0000
0000
0000
0000
0000
0000
0000
0000
0000
ENDCHAR
STARTCHAR afii64937
ENCODING 701
SWIDTH 994 0
DWIDTH 14 0
BBX 14 26 0 -6
BITMAP
0000
0000
0000
0000
0F00
0F00
0C00
0C00
0300
0300
0000
0000
0000
0000
0000
0000
0000
0000
0000
0000
0000
0000
0000
0000
0000
0000
ENDCHAR
STARTCHAR uni02BE
ENCODING 702
SWIDTH 994 0
DWIDTH 14 0
BBX 14 26 0 -6
BITMAP
0000
0000
0000
0000
0F00
0F00
00C0
00C0
00C0
00C0
0F00
0F00
0000
0000
0000
0000
0000
0000
0000
0000
0000
0000
0000
0000
0000
0000
ENDCHAR
STARTCHAR uni02BF
ENCODING 703
SWIDTH 994 0
DWIDTH 14 0
BBX 14 26 0 -6
BITMAP
0000
0000
0000
0000
0F00
0F00
3000
3000
3000
3000
0F00
0F00
0000
0000
0000
0000
0000
0000
0000
0000
0000
0000
0000
0000
0000
0000
ENDCHAR
STARTCHAR uni02C0
ENCODING 704
SWIDTH 994 0
DWIDTH 14 0
BBX 14 26 0 -6
BITMAP
0000
0000
0000
0000
0300
0300
0CC0
0CC0
00C0
00C0
0300
0300
0300
0300
0000
0000
0000
0000
0000
0000
0000
0000
0000
0000
0000
0000
ENDCHAR
STARTCHAR uni02C1
ENCODING 705
SWIDTH 994 0
DWIDTH 14 0
BBX 14 26 0 -6
BITMAP
0000
0000
0000
0000
0300
0300
0CC0
0CC0
0C00
0C00
0300
0300
0300
0300
0000
0000
0000
0000
0000
0000
0000
0000
0000
0000
0000
0000
ENDCHAR
STARTCHAR uni02C2
ENCODING 706
SWIDTH 994 0
DWIDTH 14 0
BBX 14 26 0 -6
BITMAP
0000
0000
0000
0000
00C0
00C0
0300
0300
0C00
0C00
0300
0300
00C0
00C0
0000
0000
0000
0000
0000
0000
0000
0000
0000
0000
0000
0000
ENDCHAR
STARTCHAR uni02C3
ENCODING 707
SWIDTH 994 0
DWIDTH 14 0
BBX 14 26 0 -6
BITMAP
0000
0000
0000
0000
0C00
0C00
0300
0300
00C0
00C0
0300
0300
0C00
0C00
0000
0000
0000
0000
0000
0000
0000
0000
0000
0000
0000
0000
ENDCHAR
STARTCHAR uni02C4
ENCODING 708
SWIDTH 994 0
DWIDTH 14 0
BBX 14 26 0 -6
BITMAP
0000
0000
0000
0000
0300
0300
0CC0
0CC0
3030
3030
0000
0000
0000
0000
0000
0000
0000
0000
0000
0000
0000
0000
0000
0000
0000
0000
ENDCHAR
STARTCHAR uni02C5
ENCODING 709
SWIDTH 994 0
DWIDTH 14 0
BBX 14 26 0 -6
BITMAP
0000
0000
0000
0000
3030
3030
0CC0
0CC0
0300
0300
0000
0000
0000
0000
0000
0000
0000
0000
0000
0000
0000
0000
0000
0000
0000
0000
ENDCHAR
STARTCHAR circumflex
ENCODING 710
SWIDTH 994 0
DWIDTH 14 0
BBX 14 26 0 -6
BITMAP
0000
0000
0F00
0F00
30C0
30C0
0000
0000
0000
0000
0000
0000
0000
0000
0000
0000
0000
0000
0000
0000
0000
0000
0000
0000
0000
0000
ENDCHAR
STARTCHAR caron
ENCODING 711
SWIDTH 994 0
DWIDTH 14 0
BBX 14 26 0 -6
BITMAP
0000
0000
30C0
30C0
0F00
0F00
0000
0000
0000
0000
0000
0000
0000
0000
0000
0000
0000
0000
0000
0000
0000
0000
0000
0000
0000
0000
ENDCHAR
STARTCHAR uni02C8
ENCODING 712
SWIDTH 994 0
DWIDTH 14 0
BBX 14 26 0 -6
BITMAP
0000
0000
0300
0300
0300
0300
0300
0300
0000
0000
0000
0000
0000
0000
0000
0000
0000
0000
0000
0000
0000
0000
0000
0000
0000
0000
ENDCHAR
STARTCHAR macron
ENCODING 713
SWIDTH 994 0
DWIDTH 14 0
BBX 14 26 0 -6
BITMAP
0000
0000
3FF0
3FF0
0000
0000
0000
0000
0000
0000
0000
0000
0000
0000
0000
0000
0000
0000
0000
0000
0000
0000
0000
0000
0000
0000
ENDCHAR
STARTCHAR uni02CA
ENCODING 714
SWIDTH 994 0
DWIDTH 14 0
BBX 14 26 0 -6
BITMAP
0000
0000
0000
0000
00C0
00C0
0300
0300
0C00
0C00
0000
0000
0000
0000
0000
0000
0000
0000
0000
0000
0000
0000
0000
0000
0000
0000
ENDCHAR
STARTCHAR uni02CB
ENCODING 715
SWIDTH 994 0
DWIDTH 14 0
BBX 14 26 0 -6
BITMAP
0000
0000
0000
0000
0C00
0C00
0300
0300
00C0
00C0
0000
0000
0000
0000
0000
0000
0000
0000
0000
0000
0000
0000
0000
0000
0000
0000
ENDCHAR
STARTCHAR uni02CC
ENCODING 716
SWIDTH 994 0
DWIDTH 14 0
BBX 14 26 0 -6
BITMAP
0000
0000
0000
0000
0000
0000
0000
0000
0000
0000
0000
0000
0000
0000
0000
0000
0000
0000
0300
0300
0300
0300
0300
0300
0000
0000
ENDCHAR
STARTCHAR uni02CD
ENCODING 717
SWIDTH 994 0
DWIDTH 14 0
BBX 14 26 0 -6
BITMAP
0000
0000
0000
0000
0000
0000
0000
0000
0000
0000
0000
0000
0000
0000
0000
0000
0000
0000
0000
0000
0000
0000
0FC0
0FC0
0000
0000
ENDCHAR
STARTCHAR uni02CE
ENCODING 718
SWIDTH 994 0
DWIDTH 14 0
BBX 14 26 0 -6
BITMAP
0000
0000
0000
0000
0000
0000
0000
0000
0000
0000
0000
0000
0000
0000
0000
0000
0000
0000
0000
0000
0C00
0C00
0300
0300
00C0
00C0
ENDCHAR
STARTCHAR uni02CF
ENCODING 719
SWIDTH 994 0
DWIDTH 14 0
BBX 14 26 0 -6
BITMAP
0000
0000
0000
0000
0000
0000
0000
0000
0000
0000
0000
0000
0000
0000
0000
0000
0000
0000
0000
0000
00C0
00C0
0300
0300
0C00
0C00
ENDCHAR
STARTCHAR uni02D0
ENCODING 720
SWIDTH 994 0
DWIDTH 14 0
BBX 14 26 0 -6
BITMAP
0000
0000
0000
0000
0000
0000
0000
0000
0000
0000
0FC0
0FC0
0300
0300
0000
0000
0000
0000
0300
0300
0FC0
0FC0
0000
0000
0000
0000
ENDCHAR
STARTCHAR uni02D1
ENCODING 721
SWIDTH 994 0
DWIDTH 14 0
BBX 14 26 0 -6
BITMAP
0000
0000
0000
0000
0000
0000
0000
0000
0000
0000
0FC0
0FC0
0300
0300
0000
0000
0000
0000
0000
0000
0000
0000
0000
0000
0000
0000
ENDCHAR
STARTCHAR uni02D2
ENCODING 722
SWIDTH 994 0
DWIDTH 14 0
BBX 14 26 0 -6
BITMAP
0000
0000
0000
0000
0000
0000
0000
0000
0000
0000
0000
0000
0F00
0F00
00C0
00C0
00C0
00C0
0F00
0F00
0000
0000
0000
0000
0000
0000
ENDCHAR
STARTCHAR uni02D3
ENCODING 723
SWIDTH 994 0
DWIDTH 14 0
BBX 14 26 0 -6
BITMAP
0000
0000
0000
0000
0000
0000
0000
0000
0000
0000
0000
0000
0F00
0F00
3000
3000
3000
3000
0F00
0F00
0000
0000
0000
0000
0000
0000
ENDCHAR
STARTCHAR uni02D4
ENCODING 724
SWIDTH 994 0
DWIDTH 14 0
BBX 14 26 0 -6
BITMAP
0000
0000
0000
0000
0000
0000
0000
0000
0300
0300
0300
0300
3FF0
3FF0
0000
0000
0000
0000
0000
0000
0000
0000
0000
0000
0000
0000
ENDCHAR
STARTCHAR uni02D5
ENCODING 725
SWIDTH 994 0
DWIDTH 14 0
BBX 14 26 0 -6
BITMAP
0000
0000
0000
0000
0000
0000
0000
0000
0000
0000
0000
0000
3FF0
3FF0
0300
0300
0300
0300
0000
0000
0000
0000
0000
0000
0000
0000
ENDCHAR
STARTCHAR uni02D6
ENCODING 726
SWIDTH 994 0
DWIDTH 14 0
BBX 14 26 0 -6
BITMAP
0000
0000
0000
0000
0000
0000
0000
0000
0300
0300
0300
0300
3FF0
3FF0
0300
0300
0300
0300
0000
0000
0000
0000
0000
0000
0000
0000
ENDCHAR
STARTCHAR uni02D7
ENCODING 727
SWIDTH 994 0
DWIDTH 14 0
BBX 14 26 0 -6
BITMAP
0000
0000
0000
0000
0000
0000
0000
0000
0000
0000
3030
3030
3FF0
3FF0
3030
3030
0000
0000
0000
0000
0000
0000
0000
0000
0000
0000
ENDCHAR
STARTCHAR breve
ENCODING 728
SWIDTH 994 0
DWIDTH 14 0
BBX 14 26 0 -6
BITMAP
0000
0000
C030
C030
3FC0
3FC0
0000
0000
0000
0000
0000
0000
0000
0000
0000
0000
0000
0000
0000
0000
0000
0000
0000
0000
0000
0000
ENDCHAR
STARTCHAR dotaccent
ENCODING 729
SWIDTH 994 0
DWIDTH 14 0
BBX 14 26 0 -6
BITMAP
0300
0300
0300
0300
0000
0000
0000
0000
0000
0000
0000
0000
0000
0000
0000
0000
0000
0000
0000
0000
0000
0000
0000
0000
0000
0000
ENDCHAR
STARTCHAR ring
ENCODING 730
SWIDTH 994 0
DWIDTH 14 0
BBX 14 26 0 -6
BITMAP
0000
0000
0F00
0F00
30C0
30C0
0F00
0F00
0000
0000
0000
0000
0000
0000
0000
0000
0000
0000
0000
0000
0000
0000
0000
0000
0000
0000
ENDCHAR
STARTCHAR ogonek
ENCODING 731
SWIDTH 994 0
DWIDTH 14 0
BBX 14 26 0 -6
BITMAP
0000
0000
0000
0000
0000
0000
0000
0000
0000
0000
0000
0000
0000
0000
0000
0000
0000
0000
0000
0000
0000
0000
0C00
0C00
0300
0300
ENDCHAR
STARTCHAR tilde
ENCODING 732
SWIDTH 994 0
DWIDTH 14 0
BBX 14 26 0 -6
BITMAP
0000
0000
3C30
3C30
C3C0
C3C0
0000
0000
0000
0000
0000
0000
0000
0000
0000
0000
0000
0000
0000
0000
0000
0000
0000
0000
0000
0000
ENDCHAR
STARTCHAR hungarumlaut
ENCODING 733
SWIDTH 994 0
DWIDTH 14 0
BBX 14 26 0 -6
BITMAP
0000
0000
0C30
0C30
30C0
30C0
0000
0000
0000
0000
0000
0000
0000
0000
0000
0000
0000
0000
0000
0000
0000
0000
0000
0000
0000
0000
ENDCHAR
STARTCHAR uni02DE
ENCODING 734
SWIDTH 994 0
DWIDTH 14 0
BBX 14 26 0 -6
BITMAP
0000
0000
0000
0000
0000
0000
0000
0000
0000
0000
0F00
0F00
3330
3330
03C0
03C0
0000
0000
0000
0000
0000
0000
0000
0000
0000
0000
ENDCHAR
STARTCHAR uni02DF
ENCODING 735
SWIDTH 994 0
DWIDTH 14 0
BBX 14 26 0 -6
BITMAP
0000
0000
0CC0
0CC0
0300
0300
0CC0
0CC0
0000
0000
0000
0000
0000
0000
0000
0000
0000
0000
0000
0000
0000
0000
0000
0000
0000
0000
ENDCHAR
STARTCHAR uni02E0
ENCODING 736
SWIDTH 994 0
DWIDTH 14 0
BBX 14 26 0 -6
BITMAP
0000
0000
0000
0000
0CC0
0CC0
0CC0
0CC0
0300
0300
0CC0
0CC0
0300
0300
0000
0000
0000
0000
0000
0000
0000
0000
0000
0000
0000
0000
ENDCHAR
STARTCHAR uni02E1
ENCODING 737
SWIDTH 994 0
DWIDTH 14 0
BBX 14 26 0 -6
BITMAP
0000
0000
0000
0000
3C00
3C00
0C00
0C00
0C00
0C00
0C00
0C00
3F00
3F00
0000
0000
0000
0000
0000
0000
0000
0000
0000
0000
0000
0000
ENDCHAR
STARTCHAR uni02E2
ENCODING 738
SWIDTH 994 0
DWIDTH 14 0
BBX 14 26 0 -6
BITMAP
0000
0000
0000
0000
0000
0000
0300
0300
0C00
0C00
0300
0300
0C00
0C00
0000
0000
0000
0000
0000
0000
0000
0000
0000
0000
0000
0000
ENDCHAR
STARTCHAR uni02E3
ENCODING 739
SWIDTH 994 0
DWIDTH 14 0
BBX 14 26 0 -6
BITMAP
0000
0000
0000
0000
3300
3300
3300
3300
0C00
0C00
3300
3300
3300
3300
0000
0000
0000
0000
0000
0000
0000
0000
0000
0000
0000
0000
ENDCHAR
STARTCHAR uni02E4
ENCODING 740
SWIDTH 994 0
DWIDTH 14 0
BBX 14 26 0 -6
BITMAP
0000
0000
0F00
0F00
30C0
30C0
3000
3000
0F00
0F00
0300
0300
0300
0300
0000
0000
0000
0000
0000
0000
0000
0000
0000
0000
0000
0000
ENDCHAR
STARTCHAR uni02E5
ENCODING 741
SWIDTH 994 0
DWIDTH 14 0
BBX 14 26 0 -6
BITMAP
0000
0000
0000
0000
3F00
3F00
0300
0300
0300
0300
0300
0300
0300
0300
0300
0300
0300
0300
0300
0300
0300
0300
0000
0000
0000
0000
ENDCHAR
STARTCHAR uni02E6
ENCODING 742
SWIDTH 994 0
DWIDTH 14 0
BBX 14 26 0 -6
BITMAP
0000
0000
0000
0000
0300
0300
0300
0300
3F00
3F00
0300
0300
0300
0300
0300
0300
0300
0300
0300
0300
0300
0300
0000
0000
0000
0000
ENDCHAR
STARTCHAR uni02E7
ENCODING 743
SWIDTH 994 0
DWIDTH 14 0
BBX 14 26 0 -6
BITMAP
0000
0000
0000
0000
0300
0300
0300
0300
0300
0300
0300
0300
3F00
3F00
0300
0300
0300
0300
0300
0300
0300
0300
0000
0000
0000
0000
ENDCHAR
STARTCHAR uni02E8
ENCODING 744
SWIDTH 994 0
DWIDTH 14 0
BBX 14 26 0 -6
BITMAP
0000
0000
0000
0000
0300
0300
0300
0300
0300
0300
0300
0300
0300
0300
0300
0300
3F00
3F00
0300
0300
0300
0300
0000
0000
0000
0000
ENDCHAR
STARTCHAR uni02E9
ENCODING 745
SWIDTH 994 0
DWIDTH 14 0
BBX 14 26 0 -6
BITMAP
0000
0000
0000
0000
0300
0300
0300
0300
0300
0300
0300
0300
0300
0300
0300
0300
0300
0300
0300
0300
3F00
3F00
0000
0000
0000
0000
ENDCHAR
STARTCHAR uni02EA
ENCODING 746
SWIDTH 994 0
DWIDTH 14 0
BBX 14 26 0 -6
BITMAP
0000
0000
0000
0000
0000
0000
0000
0000
0000
0000
0000
0000
0000
0000
0000
0000
0000
0000
3F00
3F00
0300
0300
0300
0300
0000
0000
ENDCHAR
STARTCHAR uni02EB
ENCODING 747
SWIDTH 994 0
DWIDTH 14 0
BBX 14 26 0 -6
BITMAP
0000
0000
0000
0000
0000
0000
0000
0000
0000
0000
0000
0000
0000
0000
0C00
0C00
0C00
0C00
0FC0
0FC0
0C00
0C00
0C00
0C00
0000
0000
ENDCHAR
STARTCHAR uni02EC
ENCODING 748
SWIDTH 994 0
DWIDTH 14 0
BBX 14 26 0 -6
BITMAP
0000
0000
0000
0000
0000
0000
0000
0000
0000
0000
0000
0000
0000
0000
0000
0000
0000
0000
3030
3030
0CC0
0CC0
0300
0300
0000
0000
ENDCHAR
STARTCHAR uni02ED
ENCODING 749
SWIDTH 994 0
DWIDTH 14 0
BBX 14 26 0 -6
BITMAP
0000
0000
0000
0000
0000
0000
0000
0000
0000
0000
0FC0
0FC0
0000
0000
0FC0
0FC0
0000
0000
0000
0000
0000
0000
0000
0000
0000
0000
ENDCHAR
STARTCHAR uni02EE
ENCODING 750
SWIDTH 994 0
DWIDTH 14 0
BBX 14 26 0 -6
BITMAP
0000
0000
0000
0000
3CF0
3CF0
3CF0
3CF0
0C30
0C30
30C0
30C0
0000
0000
0000
0000
0000
0000
0000
0000
0000
0000
0000
0000
0000
0000
ENDCHAR
STARTCHAR gravecomb
ENCODING 768
SWIDTH 994 0
DWIDTH 14 0
BBX 14 26 0 -6
BITMAP
0C00
0C00
0300
0300
0000
0000
0000
0000
0000
0000
0000
0000
0000
0000
0000
0000
0000
0000
0000
0000
0000
0000
0000
0000
0000
0000
ENDCHAR
STARTCHAR acutecomb
ENCODING 769
SWIDTH 994 0
DWIDTH 14 0
BBX 14 26 0 -6
BITMAP
0300
0300
0C00
0C00
0000
0000
0000
0000
0000
0000
0000
0000
0000
0000
0000
0000
0000
0000
0000
0000
0000
0000
0000
0000
0000
0000
ENDCHAR
STARTCHAR uni0302
ENCODING 770
SWIDTH 994 0
DWIDTH 14 0
BBX 14 26 0 -6
BITMAP
0300
0300
0CC0
0CC0
0000
0000
0000
0000
0000
0000
0000
0000
0000
0000
0000
0000
0000
0000
0000
0000
0000
0000
0000
0000
0000
0000
ENDCHAR
STARTCHAR tildecomb
ENCODING 771
SWIDTH 994 0
DWIDTH 14 0
BBX 14 26 0 -6
BITMAP
0CC0
0CC0
3300
3300
0000
0000
0000
0000
0000
0000
0000
0000
0000
0000
0000
0000
0000
0000
0000
0000
0000
0000
0000
0000
0000
0000
ENDCHAR
STARTCHAR uni0304
ENCODING 772
SWIDTH 994 0
DWIDTH 14 0
BBX 14 26 0 -6
BITMAP
0000
0000
3FC0
3FC0
0000
0000
0000
0000
0000
0000
0000
0000
0000
0000
0000
0000
0000
0000
0000
0000
0000
0000
0000
0000
0000
0000
ENDCHAR
STARTCHAR uni0305
ENCODING 773
SWIDTH 994 0
DWIDTH 14 0
BBX 14 26 0 -6
BITMAP
0000
0000
FFF0
FFF0
0000
0000
0000
0000
0000
0000
0000
0000
0000
0000
0000
0000
0000
0000
0000
0000
0000
0000
0000
0000
0000
0000
ENDCHAR
STARTCHAR uni0306
ENCODING 774
SWIDTH 994 0
DWIDTH 14 0
BBX 14 26 0 -6
BITMAP
3030
3030
0FC0
0FC0
0000
0000
0000
0000
0000
0000
0000
0000
0000
0000
0000
0000
0000
0000
0000
0000
0000
0000
0000
0000
0000
0000
ENDCHAR
STARTCHAR uni0307
ENCODING 775
SWIDTH 994 0
DWIDTH 14 0
BBX 14 26 0 -6
BITMAP
0300
0300
0300
0300
0000
0000
0000
0000
0000
0000
0000
0000
0000
0000
0000
0000
0000
0000
0000
0000
0000
0000
0000
0000
0000
0000
ENDCHAR
STARTCHAR uni0308
ENCODING 776
SWIDTH 994 0
DWIDTH 14 0
BBX 14 26 0 -6
BITMAP
0CC0
0CC0
0CC0
0CC0
0000
0000
0000
0000
0000
0000
0000
0000
0000
0000
0000
0000
0000
0000
0000
0000
0000
0000
0000
0000
0000
0000
ENDCHAR
STARTCHAR hookabovecomb
ENCODING 777
SWIDTH 994 0
DWIDTH 14 0
BBX 14 26 0 -6
BITMAP
0F00
0F00
00C0
00C0
0300
0300
0000
0000
0000
0000
0000
0000
0000
0000
0000
0000
0000
0000
0000
0000
0000
0000
0000
0000
0000
0000
ENDCHAR
STARTCHAR uni030A
ENCODING 778
SWIDTH 994 0
DWIDTH 14 0
BBX 14 26 0 -6
BITMAP
0300
0300
0CC0
0CC0
0300
0300
0000
0000
0000
0000
0000
0000
0000
0000
0000
0000
0000
0000
0000
0000
0000
0000
0000
0000
0000
0000
ENDCHAR
STARTCHAR uni030B
ENCODING 779
SWIDTH 994 0
DWIDTH 14 0
BBX 14 26 0 -6
BITMAP
0C30
0C30
30C0
30C0
0000
0000
0000
0000
0000
0000
0000
0000
0000
0000
0000
0000
0000
0000
0000
0000
0000
0000
0000
0000
0000
0000
ENDCHAR
STARTCHAR uni030C
ENCODING 780
SWIDTH 994 0
DWIDTH 14 0
BBX 14 26 0 -6
BITMAP
0CC0
0CC0
0300
0300
0000
0000
0000
0000
0000
0000
0000
0000
0000
0000
0000
0000
0000
0000
0000
0000
0000
0000
0000
0000
0000
0000
ENDCHAR
STARTCHAR uni030D
ENCODING 781
SWIDTH 994 0
DWIDTH 14 0
BBX 14 26 0 -6
BITMAP
0300
0300
0300
0300
0300
0300
0000
0000
0000
0000
0000
0000
0000
0000
0000
0000
0000
0000
0000
0000
0000
0000
0000
0000
0000
0000
ENDCHAR
STARTCHAR uni030E
ENCODING 782
SWIDTH 994 0
DWIDTH 14 0
BBX 14 26 0 -6
BITMAP
0CC0
0CC0
0CC0
0CC0
0CC0
0CC0
0000
0000
0000
0000
0000
0000
0000
0000
0000
0000
0000
0000
0000
0000
0000
0000
0000
0000
0000
0000
ENDCHAR
STARTCHAR uni030F
ENCODING 783
SWIDTH 994 0
DWIDTH 14 0
BBX 14 26 0 -6
BITMAP
30C0
30C0
0C30
0C30
0000
0000
0000
0000
0000
0000
0000
0000
0000
0000
0000
0000
0000
0000
0000
0000
0000
0000
0000
0000
0000
0000
ENDCHAR
STARTCHAR uni0310
ENCODING 784
SWIDTH 994 0
DWIDTH 14 0
BBX 14 26 0 -6
BITMAP
0300
0300
3030
3030
0FC0
0FC0
0000
0000
0000
0000
0000
0000
0000
0000
0000
0000
0000
0000
0000
0000
0000
0000
0000
0000
0000
0000
ENDCHAR
STARTCHAR uni0311
ENCODING 785
SWIDTH 994 0
DWIDTH 14 0
BBX 14 26 0 -6
BITMAP
0FC0
0FC0
3030
3030
0000
0000
0000
0000
0000
0000
0000
0000
0000
0000
0000
0000
0000
0000
0000
0000
0000
0000
0000
0000
0000
0000
ENDCHAR
STARTCHAR dotbelowcomb
ENCODING 803
SWIDTH 994 0
DWIDTH 14 0
BBX 14 26 0 -6
BITMAP
0000
0000
0000
0000
0000
0000
0000
0000
0000
0000
0000
0000
0000
0000
0000
0000
0000
0000
0000
0000
0000
0000
0000
0000
0300
0300
ENDCHAR
STARTCHAR uni0324
ENCODING 804
SWIDTH 994 0
DWIDTH 14 0
BBX 14 26 0 -6
BITMAP
0000
0000
0000
0000
0000
0000
0000
0000
0000
0000
0000
0000
0000
0000
0000
0000
0000
0000
0000
0000
0000
0000
0000
0000
0CC0
0CC0
ENDCHAR
STARTCHAR uni0325
ENCODING 805
SWIDTH 994 0
DWIDTH 14 0
BBX 14 26 0 -6
BITMAP
0000
0000
0000
0000
0000
0000
0000
0000
0000
0000
0000
0000
0000
0000
0000
0000
0000
0000
0000
0000
0300
0300
0CC0
0CC0
0300
0300
ENDCHAR
STARTCHAR uni0326
ENCODING 806
SWIDTH 994 0
DWIDTH 14 0
BBX 14 26 0 -6
BITMAP
0000
0000
0000
0000
0000
0000
0000
0000
0000
0000
0000
0000
0000
0000
0000
0000
0000
0000
0000
0000
0000
0000
0300
0300
0C00
0C00
ENDCHAR
STARTCHAR uni0327
ENCODING 807
SWIDTH 994 0
DWIDTH 14 0
BBX 14 26 0 -6
BITMAP
0000
0000
0000
0000
0000
0000
0000
0000
0000
0000
0000
0000
0000
0000
0000
0000
0000
0000
0000
0000
0000
0000
0300
0300
0C00
0C00
ENDCHAR
STARTCHAR uni0328
ENCODING 808
SWIDTH 994 0
DWIDTH 14 0
BBX 14 26 0 -6
BITMAP
0000
0000
0000
0000
0000
0000
0000
0000
0000
0000
0000
0000
0000
0000
0000
0000
0000
0000
0000
0000
0000
0000
0300
0300
00C0
00C0
ENDCHAR
STARTCHAR uni0329
ENCODING 809
SWIDTH 994 0
DWIDTH 14 0
BBX 14 26 0 -6
BITMAP
0000
0000
0000
0000
0000
0000
0000
0000
0000
0000
0000
0000
0000
0000
0000
0000
0000
0000
0000
0000
0000
0000
0300
0300
0300
0300
ENDCHAR
STARTCHAR uni032A
ENCODING 810
SWIDTH 994 0
DWIDTH 14 0
BBX 14 26 0 -6
BITMAP
0000
0000
0000
0000
0000
0000
0000
0000
0000
0000
0000
0000
0000
0000
0000
0000
0000
0000
0000
0000
0000
0000
3FF0
3FF0
3030
3030
ENDCHAR
STARTCHAR uni032B
ENCODING 811
SWIDTH 994 0
DWIDTH 14 0
BBX 14 26 0 -6
BITMAP
0000
0000
0000
0000
0000
0000
0000
0000
0000
0000
0000
0000
0000
0000
0000
0000
0000
0000
0000
0000
0000
0000
3330
3330
0CC0
0CC0
ENDCHAR
STARTCHAR uni032C
ENCODING 812
SWIDTH 994 0
DWIDTH 14 0
BBX 14 26 0 -6
BITMAP
0000
0000
0000
0000
0000
0000
0000
0000
0000
0000
0000
0000
0000
0000
0000
0000
0000
0000
0000
0000
0000
0000
0CC0
0CC0
0300
0300
ENDCHAR
STARTCHAR uni032D
ENCODING 813
SWIDTH 994 0
DWIDTH 14 0
BBX 14 26 0 -6
BITMAP
0000
0000
0000
0000
0000
0000
0000
0000
0000
0000
0000
0000
0000
0000
0000
0000
0000
0000
0000
0000
0000
0000
0300
0300
0CC0
0CC0
ENDCHAR
STARTCHAR uni032E
ENCODING 814
SWIDTH 994 0
DWIDTH 14 0
BBX 14 26 0 -6
BITMAP
0000
0000
0000
0000
0000
0000
0000
0000
0000
0000
0000
0000
0000
0000
0000
0000
0000
0000
0000
0000
0000
0000
3030
3030
0FC0
0FC0
ENDCHAR
STARTCHAR uni032F
ENCODING 815
SWIDTH 994 0
DWIDTH 14 0
BBX 14 26 0 -6
BITMAP
0000
0000
0000
0000
0000
0000
0000
0000
0000
0000
0000
0000
0000
0000
0000
0000
0000
0000
0000
0000
0000
0000
0FC0
0FC0
3030
3030
ENDCHAR
STARTCHAR uni0330
ENCODING 816
SWIDTH 994 0
DWIDTH 14 0
BBX 14 26 0 -6
BITMAP
0000
0000
0000
0000
0000
0000
0000
0000
0000
0000
0000
0000
0000
0000
0000
0000
0000
0000
0000
0000
0000
0000
3C30
3C30
C3C0
C3C0
ENDCHAR
STARTCHAR uni0331
ENCODING 817
SWIDTH 994 0
DWIDTH 14 0
BBX 14 26 0 -6
BITMAP
0000
0000
0000
0000
0000
0000
0000
0000
0000
0000
0000
0000
0000
0000
0000
0000
0000
0000
0000
0000
0000
0000
0000
0000
FFF0
FFF0
ENDCHAR
STARTCHAR uni0332
ENCODING 818
SWIDTH 994 0
DWIDTH 14 0
BBX 14 26 0 -6
BITMAP
0000
0000
0000
0000
0000
0000
0000
0000
0000
0000
0000
0000
0000
0000
0000
0000
0000
0000
0000
0000
0000
0000
0000
0000
FFFC
FFFC
ENDCHAR
STARTCHAR uni0333
ENCODING 819
SWIDTH 994 0
DWIDTH 14 0
BBX 14 26 0 -6
BITMAP
0000
0000
0000
0000
0000
0000
0000
0000
0000
0000
0000
0000
0000
0000
0000
0000
0000
0000
0000
0000
FFFC
FFFC
0000
0000
FFFC
FFFC
ENDCHAR
STARTCHAR uni0338
ENCODING 824
SWIDTH 994 0
DWIDTH 14 0
BBX 14 26 0 -6
BITMAP
0000
0000
0000
0000
0030
0030
0030
0030
00C0
00C0
00C0
00C0
0300
0300
0C00
0C00
0C00
0C00
3000
3000
3000
3000
0000
0000
0000
0000
ENDCHAR
STARTCHAR uni0340
ENCODING 832
SWIDTH 994 0
DWIDTH 14 0
BBX 14 26 0 -6
BITMAP
0C00
0C00
0300
0300
0000
0000
0000
0000
0000
0000
0000
0000
0000
0000
0000
0000
0000
0000
0000
0000
0000
0000
0000
0000
0000
0000
ENDCHAR
STARTCHAR uni0341
ENCODING 833
SWIDTH 994 0
DWIDTH 14 0
BBX 14 26 0 -6
BITMAP
0300
0300
0C00
0C00
0000
0000
0000
0000
0000
0000
0000
0000
0000
0000
0000
0000
0000
0000
0000
0000
0000
0000
0000
0000
0000
0000
ENDCHAR
STARTCHAR uni0360
ENCODING 864
SWIDTH 994 0
DWIDTH 14 0
BBX 14 26 0 -6
BITMAP
0000
0000
0F0C
0F0C
30F0
30F0
0000
0000
0000
0000
0000
0000
0000
0000
0000
0000
0000
0000
0000
0000
0000
0000
0000
0000
0000
0000
ENDCHAR
STARTCHAR uni0361
ENCODING 865
SWIDTH 994 0
DWIDTH 14 0
BBX 14 26 0 -6
BITMAP
0000
0000
0FF0
0FF0
300C
300C
0000
0000
0000
0000
0000
0000
0000
0000
0000
0000
0000
0000
0000
0000
0000
0000
0000
0000
0000
0000
ENDCHAR
STARTCHAR uni0374
ENCODING 884
SWIDTH 994 0
DWIDTH 14 0
BBX 14 26 0 -6
BITMAP
0000
0000
0000
0000
0300
0300
0C00
0C00
0000
0000
0000
0000
0000
0000
0000
0000
0000
0000
0000
0000
0000
0000
0000
0000
0000
0000
ENDCHAR
STARTCHAR uni0375
ENCODING 885
SWIDTH 994 0
DWIDTH 14 0
BBX 14 26 0 -6
BITMAP
0000
0000
0000
0000
0000
0000
0000
0000
0000
0000
0000
0000
0000
0000
0000
0000
0000
0000
0000
0000
0000
0000
0300
0300
0C00
0C00
ENDCHAR
STARTCHAR uni037A
ENCODING 890
SWIDTH 994 0
DWIDTH 14 0
BBX 14 26 0 -6
BITMAP
0000
0000
0000
0000
0000
0000
0000
0000
0000
0000
0000
0000
0000
0000
0000
0000
0000
0000
0000
0000
0000
0000
0C00
0C00
0F00
0F00
ENDCHAR
STARTCHAR uni037E
ENCODING 894
SWIDTH 994 0
DWIDTH 14 0
BBX 14 26 0 -6
BITMAP
0000
0000
0000
0000
0000
0000
0000
0000
0300
0300
0FC0
0FC0
0300
0300
0000
0000
0000
0000
0FC0
0FC0
0F00
0F00
3000
3000
0000
0000
ENDCHAR
STARTCHAR tonos
ENCODING 900
SWIDTH 994 0
DWIDTH 14 0
BBX 14 26 0 -6
BITMAP
0000
0000
0000
0000
0300
0300
0C00
0C00
0000
0000
0000
0000
0000
0000
0000
0000
0000
0000
0000
0000
0000
0000
0000
0000
0000
0000
ENDCHAR
STARTCHAR dieresistonos
ENCODING 901
SWIDTH 994 0
DWIDTH 14 0
BBX 14 26 0 -6
BITMAP
0000
0000
00C0
00C0
3330
3330
3030
3030
0000
0000
0000
0000
0000
0000
0000
0000
0000
0000
0000
0000
0000
0000
0000
0000
0000
0000
ENDCHAR
STARTCHAR Alphatonos
ENCODING 902
SWIDTH 994 0
DWIDTH 14 0
BBX 14 26 0 -6
BITMAP
0000
0000
0000
0000
33C0
33C0
CC30
CC30
0C30
0C30
0C30
0C30
0C30
0C30
0FF0
0FF0
0C30
0C30
0C30
0C30
0C30
0C30
0000
0000
0000
0000
ENDCHAR
STARTCHAR anoteleia
ENCODING 903
SWIDTH 994 0
DWIDTH 14 0
BBX 14 26 0 -6
BITMAP
0000
0000
0000
0000
0000
0000
0000
0000
0000
0000
0F00
0F00
0000
0000
0000
0000
0000
0000
0000
0000
0000
0000
0000
0000
0000
0000
ENDCHAR
STARTCHAR Epsilontonos
ENCODING 904
SWIDTH 994 0
DWIDTH 14 0
BBX 14 26 0 -6
BITMAP
0000
0000
0000
0000
3FF0
3FF0
CC00
CC00
0C00
0C00
0C00
0C00
0FC0
0FC0
0C00
0C00
0C00
0C00
0C00
0C00
0FF0
0FF0
0000
0000
0000
0000
ENDCHAR
STARTCHAR Etatonos
ENCODING 905
SWIDTH 994 0
DWIDTH 14 0
BBX 14 26 0 -6
BITMAP
0000
0000
0000
0000
3C30
3C30
CC30
CC30
0C30
0C30
0C30
0C30
0FF0
0FF0
0C30
0C30
0C30
0C30
0C30
0C30
0C30
0C30
0000
0000
0000
0000
ENDCHAR
STARTCHAR Iotatonos
ENCODING 906
SWIDTH 994 0
DWIDTH 14 0
BBX 14 26 0 -6
BITMAP
0000
0000
0000
0000
33F0
33F0
C0C0
C0C0
00C0
00C0
00C0
00C0
00C0
00C0
00C0
00C0
00C0
00C0
00C0
00C0
03F0
03F0
0000
0000
0000
0000
ENDCHAR
STARTCHAR Omicrontonos
ENCODING 908
SWIDTH 994 0
DWIDTH 14 0
BBX 14 26 0 -6
BITMAP
0000
0000
0000
0000
33C0
33C0
CC30
CC30
0C30
0C30
0C30
0C30
0C30
0C30
0C30
0C30
0C30
0C30
0C30
0C30
03C0
03C0
0000
0000
0000
0000
ENDCHAR
STARTCHAR Upsilontonos
ENCODING 910
SWIDTH 994 0
DWIDTH 14 0
BBX 14 26 0 -6
BITMAP
0000
0000
0000
0000
3330
3330
C330
C330
0330
0330
00C0
00C0
00C0
00C0
00C0
00C0
00C0
00C0
00C0
00C0
00C0
00C0
0000
0000
0000
0000
ENDCHAR
STARTCHAR Omegatonos
ENCODING 911
SWIDTH 994 0
DWIDTH 14 0
BBX 14 26 0 -6
BITMAP
0000
0000
0000
0000
33C0
33C0
CC30
CC30
0C30
0C30
0C30
0C30
0C30
0C30
0C30
0C30
03C0
03C0
03C0
03C0
0C30
0C30
0000
0000
0000
0000
ENDCHAR
STARTCHAR iotadieresistonos
ENCODING 912
SWIDTH 994 0
DWIDTH 14 0
BBX 14 26 0 -6
BITMAP
0000
0000
0300
0300
CC30
CC30
C030
C030
0000
0000
0C00
0C00
0C00
0C00
0C00
0C00
0C00
0C00
0C30
0C30
03C0
03C0
0000
0000
0000
0000
ENDCHAR
STARTCHAR Alpha
ENCODING 913
SWIDTH 994 0
DWIDTH 14 0
BBX 14 26 0 -6
BITMAP
0000
0000
0000
0000
0F00
0F00
30C0
30C0
C030
C030
C030
C030
C030
C030
FFF0
FFF0
C030
C030
C030
C030
C030
C030
0000
0000
0000
0000
ENDCHAR
STARTCHAR Beta
ENCODING 914
SWIDTH 994 0
DWIDTH 14 0
BBX 14 26 0 -6
BITMAP
0000
0000
0000
0000
FFC0
FFC0
C030
C030
C030
C030
C030
C030
FFC0
FFC0
C030
C030
C030
C030
C030
C030
FFC0
FFC0
0000
0000
0000
0000
ENDCHAR
STARTCHAR Gamma
ENCODING 915
SWIDTH 994 0
DWIDTH 14 0
BBX 14 26 0 -6
BITMAP
0000
0000
0000
0000
FFF0
FFF0
C000
C000
C000
C000
C000
C000
C000
C000
C000
C000
C000
C000
C000
C000
C000
C000
0000
0000
0000
0000
ENDCHAR
STARTCHAR Delta
ENCODING 916
SWIDTH 994 0
DWIDTH 14 0
BBX 14 26 0 -6
BITMAP
0000
0000
0000
0000
0F00
0F00
0F00
0F00
0F00
0F00
30C0
30C0
30C0
30C0
30C0
30C0
C030
C030
C030
C030
FFF0
FFF0
0000
0000
0000
0000
ENDCHAR
STARTCHAR Epsilon
ENCODING 917
SWIDTH 994 0
DWIDTH 14 0
BBX 14 26 0 -6
BITMAP
0000
0000
0000
0000
FFF0
FFF0
C000
C000
C000
C000
C000
C000
FF00
FF00
C000
C000
C000
C000
C000
C000
FFF0
FFF0
0000
0000
0000
0000
ENDCHAR
STARTCHAR Zeta
ENCODING 918
SWIDTH 994 0
DWIDTH 14 0
BBX 14 26 0 -6
BITMAP
0000
0000
0000
0000
FFF0
FFF0
0030
0030
00C0
00C0
0300
0300
0F00
0F00
0C00
0C00
3000
3000
C000
C000
FFF0
FFF0
0000
0000
0000
0000
ENDCHAR
STARTCHAR Eta
ENCODING 919
SWIDTH 994 0
DWIDTH 14 0
BBX 14 26 0 -6
BITMAP
0000
0000
0000
0000
C030
C030
C030
C030
C030
C030
C030
C030
FFF0
FFF0
C030
C030
C030
C030
C030
C030
C030
C030
0000
0000
0000
0000
ENDCHAR
STARTCHAR Theta
ENCODING 920
SWIDTH 994 0
DWIDTH 14 0
BBX 14 26 0 -6
BITMAP
0000
0000
0000
0000
3FC0
3FC0
C030
C030
C030
C030
C030
C030
FFF0
FFF0
C030
C030
C030
C030
C030
C030
3FC0
3FC0
0000
0000
0000
0000
ENDCHAR
STARTCHAR Iota
ENCODING 921
SWIDTH 994 0
DWIDTH 14 0
BBX 14 26 0 -6
BITMAP
0000
0000
0000
0000
FFC0
FFC0
0C00
0C00
0C00
0C00
0C00
0C00
0C00
0C00
0C00
0C00
0C00
0C00
0C00
0C00
FFC0
FFC0
0000
0000
0000
0000
ENDCHAR
STARTCHAR Kappa
ENCODING 922
SWIDTH 994 0
DWIDTH 14 0
BBX 14 26 0 -6
BITMAP
0000
0000
0000
0000
C030
C030
C0C0
C0C0
C300
C300
CC00
CC00
F000
F000
CC00
CC00
C300
C300
C0C0
C0C0
C030
C030
0000
0000
0000
0000
ENDCHAR
STARTCHAR Lambda
ENCODING 923
SWIDTH 994 0
DWIDTH 14 0
BBX 14 26 0 -6
BITMAP
0000
0000
0000
0000
0F00
0F00
0F00
0F00
0F00
0F00
30C0
30C0
30C0
30C0
30C0
30C0
C030
C030
C030
C030
C030
C030
0000
0000
0000
0000
ENDCHAR
STARTCHAR Mu
ENCODING 924
SWIDTH 994 0
DWIDTH 14 0
BBX 14 26 0 -6
BITMAP
0000
0000
0000
0000
C030
C030
F0F0
F0F0
F0F0
F0F0
CF30
CF30
CF30
CF30
C030
C030
C030
C030
C030
C030
C030
C030
0000
0000
0000
0000
ENDCHAR
STARTCHAR Nu
ENCODING 925
SWIDTH 994 0
DWIDTH 14 0
BBX 14 26 0 -6
BITMAP
0000
0000
0000
0000
C030
C030
C030
C030
F030
F030
CC30
CC30
C330
C330
C0F0
C0F0
C030
C030
C030
C030
C030
C030
0000
0000
0000
0000
ENDCHAR
STARTCHAR Xi
ENCODING 926
SWIDTH 994 0
DWIDTH 14 0
BBX 14 26 0 -6
BITMAP
0000
0000
0000
0000
FFF0
FFF0
0000
0000
0000
0000
0000
0000
3FC0
3FC0
0000
0000
0000
0000
0000
0000
FFF0
FFF0
0000
0000
0000
0000
ENDCHAR
STARTCHAR Omicron
ENCODING 927
SWIDTH 994 0
DWIDTH 14 0
BBX 14 26 0 -6
BITMAP
0000
0000
0000
0000
3FC0
3FC0
C030
C030
C030
C030
C030
C030
C030
C030
C030
C030
C030
C030
C030
C030
3FC0
3FC0
0000
0000
0000
0000
ENDCHAR
STARTCHAR Pi
ENCODING 928
SWIDTH 994 0
DWIDTH 14 0
BBX 14 26 0 -6
BITMAP
0000
0000
0000
0000
FFF0
FFF0
30C0
30C0
30C0
30C0
30C0
30C0
30C0
30C0
30C0
30C0
30C0
30C0
30C0
30C0
30C0
30C0
0000
0000
0000
0000
ENDCHAR
STARTCHAR Rho
ENCODING 929
SWIDTH 994 0
DWIDTH 14 0
BBX 14 26 0 -6
BITMAP
0000
0000
0000
0000
FFC0
FFC0
C030
C030
C030
C030
C030
C030
FFC0
FFC0
C000
C000
C000
C000
C000
C000
C000
C000
0000
0000
0000
0000
ENDCHAR
STARTCHAR Sigma
ENCODING 931
SWIDTH 994 0
DWIDTH 14 0
BBX 14 26 0 -6
BITMAP
0000
0000
0000
0000
FFF0
FFF0
C000
C000
3000
3000
0C00
0C00
0300
0300
0C00
0C00
3000
3000
C000
C000
FFF0
FFF0
0000
0000
0000
0000
ENDCHAR
STARTCHAR Tau
ENCODING 932
SWIDTH 994 0
DWIDTH 14 0
BBX 14 26 0 -6
BITMAP
0000
0000
0000
0000
3FF0
3FF0
0300
0300
0300
0300
0300
0300
0300
0300
0300
0300
0300
0300
0300
0300
0300
0300
0000
0000
0000
0000
ENDCHAR
STARTCHAR Upsilon
ENCODING 933
SWIDTH 994 0
DWIDTH 14 0
BBX 14 26 0 -6
BITMAP
0000
0000
0000
0000
3030
3030
3030
3030
0CC0
0CC0
0CC0
0CC0
0300
0300
0300
0300
0300
0300
0300
0300
0300
0300
0000
0000
0000
0000
ENDCHAR
STARTCHAR Phi
ENCODING 934
SWIDTH 994 0
DWIDTH 14 0
BBX 14 26 0 -6
BITMAP
0000
0000
0000
0000
0300
0300
0FC0
0FC0
3330
3330
3330
3330
3330
3330
3330
3330
3330
3330
0FC0
0FC0
0300
0300
0000
0000
0000
0000
ENDCHAR
STARTCHAR Chi
ENCODING 935
SWIDTH 994 0
DWIDTH 14 0
BBX 14 26 0 -6
BITMAP
0000
0000
0000
0000
C030
C030
C030
C030
30C0
30C0
30C0
30C0
0F00
0F00
30C0
30C0
30C0
30C0
C030
C030
C030
C030
0000
0000
0000
0000
ENDCHAR
STARTCHAR Psi
ENCODING 936
SWIDTH 994 0
DWIDTH 14 0
BBX 14 26 0 -6
BITMAP
0000
0000
0000
0000
3330
3330
3330
3330
3330
3330
3330
3330
3330
3330
3330
3330
0FC0
0FC0
0300
0300
0300
0300
0000
0000
0000
0000
ENDCHAR
STARTCHAR Omega
ENCODING 937
SWIDTH 994 0
DWIDTH 14 0
BBX 14 26 0 -6
BITMAP
0000
0000
0000
0000
3FC0
3FC0
C030
C030
C030
C030
C030
C030
C030
C030
C030
C030
30C0
30C0
30C0
30C0
F0F0
F0F0
0000
0000
0000
0000
ENDCHAR
STARTCHAR Iotadieresis
ENCODING 938
SWIDTH 994 0
DWIDTH 14 0
BBX 14 26 0 -6
BITMAP
0000
0000
3030
3030
3030
3030
0000
0000
3FF0
3FF0
0300
0300
0300
0300
0300
0300
0300
0300
0300
0300
3FF0
3FF0
0000
0000
0000
0000
ENDCHAR
STARTCHAR Upsilondieresis
ENCODING 939
SWIDTH 994 0
DWIDTH 14 0
BBX 14 26 0 -6
BITMAP
0000
0000
3030
3030
3030
3030
0000
0000
3030
3030
3030
3030
0CC0
0CC0
0300
0300
0300
0300
0300
0300
0300
0300
0000
0000
0000
0000
ENDCHAR
STARTCHAR alphatonos
ENCODING 940
SWIDTH 994 0
DWIDTH 14 0
BBX 14 26 0 -6
BITMAP
0000
0000
0000
0000
00C0
00C0
0300
0300
0000
0000
3F30
3F30
C0F0
C0F0
C030
C030
C0F0
C0F0
C330
C330
3C30
3C30
0000
0000
0000
0000
ENDCHAR
STARTCHAR epsilontonos
ENCODING 941
SWIDTH 994 0
DWIDTH 14 0
BBX 14 26 0 -6
BITMAP
0000
0000
0000
0000
00C0
00C0
0300
0300
0000
0000
3FC0
3FC0
C030
C030
3F00
3F00
C000
C000
C030
C030
3FC0
3FC0
0000
0000
0000
0000
ENDCHAR
STARTCHAR etatonos
ENCODING 942
SWIDTH 994 0
DWIDTH 14 0
BBX 14 26 0 -6
BITMAP
0000
0000
0000
0000
00C0
00C0
0300
0300
0000
0000
CFC0
CFC0
F030
F030
C030
C030
C030
C030
C030
C030
C030
C030
0030
0030
0030
0030
ENDCHAR
STARTCHAR iotatonos
ENCODING 943
SWIDTH 994 0
DWIDTH 14 0
BBX 14 26 0 -6
BITMAP
0000
0000
0000
0000
0C00
0C00
3000
3000
0000
0000
3000
3000
3000
3000
3000
3000
3000
3000
30C0
30C0
0F00
0F00
0000
0000
0000
0000
ENDCHAR
STARTCHAR upsilondieresistonos
ENCODING 944
SWIDTH 994 0
DWIDTH 14 0
BBX 14 26 0 -6
BITMAP
0000
0000
0300
0300
CC30
CC30
C030
C030
0000
0000
C030
C030
C030
C030
C030
C030
C030
C030
C030
C030
3FC0
3FC0
0000
0000
0000
0000
ENDCHAR
STARTCHAR alpha
ENCODING 945
SWIDTH 994 0
DWIDTH 14 0
BBX 14 26 0 -6
BITMAP
0000
0000
0000
0000
0000
0000
0000
0000
0000
0000
3F30
3F30
C0F0
C0F0
C030
C030
C0F0
C0F0
C330
C330
3C30
3C30
0000
0000
0000
0000
ENDCHAR
STARTCHAR beta
ENCODING 946
SWIDTH 994 0
DWIDTH 14 0
BBX 14 26 0 -6
BITMAP
0000
0000
0000
0000
3F00
3F00
C0C0
C0C0
C0C0
C0C0
FFC0
FFC0
C030
C030
C030
C030
C030
C030
F030
F030
CFC0
CFC0
C000
C000
C000
C000
ENDCHAR
STARTCHAR gamma
ENCODING 947
SWIDTH 994 0
DWIDTH 14 0
BBX 14 26 0 -6
BITMAP
0000
0000
0000
0000
0000
0000
0000
0000
0000
0000
3030
3030
3030
3030
0CC0
0CC0
0CC0
0CC0
0300
0300
0300
0300
0300
0300
0300
0300
ENDCHAR
STARTCHAR delta
ENCODING 948
SWIDTH 994 0
DWIDTH 14 0
BBX 14 26 0 -6
BITMAP
0000
0000
0000
0000
3FC0
3FC0
C030
C030
3000
3000
3FC0
3FC0
C030
C030
C030
C030
C030
C030
C030
C030
3FC0
3FC0
0000
0000
0000
0000
ENDCHAR
STARTCHAR epsilon
ENCODING 949
SWIDTH 994 0
DWIDTH 14 0
BBX 14 26 0 -6
BITMAP
0000
0000
0000
0000
0000
0000
0000
0000
0000
0000
3FC0
3FC0
C030
C030
3F00
3F00
C000
C000
C030
C030
3FC0
3FC0
0000
0000
0000
0000
ENDCHAR
STARTCHAR zeta
ENCODING 950
SWIDTH 994 0
DWIDTH 14 0
BBX 14 26 0 -6
BITMAP
0000
0000
0000
0000
FFF0
FFF0
0C00
0C00
3000
3000
3000
3000
C000
C000
C000
C000
C000
C000
C000
C000
3FC0
3FC0
0030
0030
03C0
03C0
ENDCHAR
STARTCHAR eta
ENCODING 951
SWIDTH 994 0
DWIDTH 14 0
BBX 14 26 0 -6
BITMAP
0000
0000
0000
0000
0000
0000
0000
0000
0000
0000
CFC0
CFC0
F030
F030
C030
C030
C030
C030
C030
C030
C030
C030
0030
0030
0030
0030
ENDCHAR
STARTCHAR theta
ENCODING 952
SWIDTH 994 0
DWIDTH 14 0
BBX 14 26 0 -6
BITMAP
0000
0000
0000
0000
0FC0
0FC0
3030
3030
3030
3030
3030
3030
3FF0
3FF0
3030
3030
3030
3030
3030
3030
0FC0
0FC0
0000
0000
0000
0000
ENDCHAR
STARTCHAR iota
ENCODING 953
SWIDTH 994 0
DWIDTH 14 0
BBX 14 26 0 -6
BITMAP
0000
0000
0000
0000
0000
0000
0000
0000
0000
0000
3000
3000
3000
3000
3000
3000
3000
3000
30C0
30C0
0F00
0F00
0000
0000
0000
0000
ENDCHAR
STARTCHAR kappa
ENCODING 954
SWIDTH 994 0
DWIDTH 14 0
BBX 14 26 0 -6
BITMAP
0000
0000
0000
0000
0000
0000
0000
0000
0000
0000
3030
3030
30C0
30C0
3300
3300
3F00
3F00
30C0
30C0
3030
3030
0000
0000
0000
0000
ENDCHAR
STARTCHAR lambda
ENCODING 955
SWIDTH 994 0
DWIDTH 14 0
BBX 14 26 0 -6
BITMAP
0000
0000
0000
0000
3FC0
3FC0
C030
C030
0030
0030
3F30
3F30
C0F0
C0F0
C030
C030
C030
C030
C030
C030
C030
C030
0000
0000
0000
0000
ENDCHAR
STARTCHAR mu
ENCODING 956
SWIDTH 994 0
DWIDTH 14 0
BBX 14 26 0 -6
BITMAP
0000
0000
0000
0000
0000
0000
0000
0000
0000
0000
C030
C030
C030
C030
C030
C030
C030
C030
F0F0
F0F0
CF30
CF30
C000
C000
C000
C000
ENDCHAR
STARTCHAR nu
ENCODING 957
SWIDTH 994 0
DWIDTH 14 0
BBX 14 26 0 -6
BITMAP
0000
0000
0000
0000
0000
0000
0000
0000
0000
0000
3030
3030
3030
3030
3030
3030
0CC0
0CC0
0CC0
0CC0
0300
0300
0000
0000
0000
0000
ENDCHAR
STARTCHAR xi
ENCODING 958
SWIDTH 994 0
DWIDTH 14 0
BBX 14 26 0 -6
BITMAP
0000
0000
0000
0000
FFF0
FFF0
0C00
0C00
3000
3000
3000
3000
0FC0
0FC0
3000
3000
C000
C000
C000
C000
3FC0
3FC0
0030
0030
03C0
03C0
ENDCHAR
STARTCHAR omicron
ENCODING 959
SWIDTH 994 0
DWIDTH 14 0
BBX 14 26 0 -6
BITMAP
0000
0000
0000
0000
0000
0000
0000
0000
0000
0000
3FC0
3FC0
C030
C030
C030
C030
C030
C030
C030
C030
3FC0
3FC0
0000
0000
0000
0000
ENDCHAR
STARTCHAR pi
ENCODING 960
SWIDTH 994 0
DWIDTH 14 0
BBX 14 26 0 -6
BITMAP
0000
0000
0000
0000
0000
0000
0000
0000
0000
0000
FFF0
FFF0
30C0
30C0
30C0
30C0
30C0
30C0
30C0
30C0
30C0
30C0
0000
0000
0000
0000
ENDCHAR
STARTCHAR rho
ENCODING 961
SWIDTH 994 0
DWIDTH 14 0
BBX 14 26 0 -6
BITMAP
0000
0000
0000
0000
0000
0000
0000
0000
0000
0000
3FC0
3FC0
C030
C030
C030
C030
C030
C030
F030
F030
CFC0
CFC0
C000
C000
C000
C000
ENDCHAR
STARTCHAR sigma1
ENCODING 962
SWIDTH 994 0
DWIDTH 14 0
BBX 14 26 0 -6
BITMAP
0000
0000
0000
0000
0000
0000
0000
0000
0000
0000
3FC0
3FC0
C030
C030
C000
C000
C000
C000
C000
C000
3FC0
3FC0
0030
0030
03C0
03C0
ENDCHAR
STARTCHAR sigma
ENCODING 963
SWIDTH 994 0
DWIDTH 14 0
BBX 14 26 0 -6
BITMAP
0000
0000
0000
0000
0000
0000
0000
0000
0000
0000
3FF0
3FF0
C300
C300
C0C0
C0C0
C030
C030
C030
C030
3FC0
3FC0
0000
0000
0000
0000
ENDCHAR
STARTCHAR tau
ENCODING 964
SWIDTH 994 0
DWIDTH 14 0
BBX 14 26 0 -6
BITMAP
0000
0000
0000
0000
0000
0000
0000
0000
0000
0000
FFC0
FFC0
0C00
0C00
0C00
0C00
0C00
0C00
0CC0
0CC0
0300
0300
0000
0000
0000
0000
ENDCHAR
STARTCHAR upsilon
ENCODING 965
SWIDTH 994 0
DWIDTH 14 0
BBX 14 26 0 -6
BITMAP
0000
0000
0000
0000
0000
0000
0000
0000
0000
0000
C030
C030
C030
C030
C030
C030
C030
C030
C030
C030
3FC0
3FC0
0000
0000
0000
0000
ENDCHAR
STARTCHAR phi
ENCODING 966
SWIDTH 994 0
DWIDTH 14 0
BBX 14 26 0 -6
BITMAP
0000
0000
0000
0000
0000
0000
0000
0000
0000
0000
0CC0
0CC0
3330
3330
3330
3330
3330
3330
3330
3330
0FC0
0FC0
0300
0300
0300
0300
ENDCHAR
STARTCHAR chi
ENCODING 967
SWIDTH 994 0
DWIDTH 14 0
BBX 14 26 0 -6
BITMAP
0000
0000
0000
0000
0000
0000
0000
0000
0000
0000
3030
3030
0CC0
0CC0
0CC0
0CC0
0300
0300
0300
0300
0CC0
0CC0
0CC0
0CC0
3030
3030
ENDCHAR
STARTCHAR psi
ENCODING 968
SWIDTH 994 0
DWIDTH 14 0
BBX 14 26 0 -6
BITMAP
0000
0000
0000
0000
0000
0000
0000
0000
0000
0000
3330
3330
3330
3330
3330
3330
3330
3330
3330
3330
0FC0
0FC0
0300
0300
0300
0300
ENDCHAR
STARTCHAR omega
ENCODING 969
SWIDTH 994 0
DWIDTH 14 0
BBX 14 26 0 -6
BITMAP
0000
0000
0000
0000
0000
0000
0000
0000
0000
0000
3030
3030
3330
3330
3330
3330
3330
3330
3330
3330
0CC0
0CC0
0000
0000
0000
0000
ENDCHAR
STARTCHAR iotadieresis
ENCODING 970
SWIDTH 994 0
DWIDTH 14 0
BBX 14 26 0 -6
BITMAP
0000
0000
0000
0000
C030
C030
C030
C030
0000
0000
0C00
0C00
0C00
0C00
0C00
0C00
0C00
0C00
0C30
0C30
03C0
03C0
0000
0000
0000
0000
ENDCHAR
STARTCHAR upsilondieresis
ENCODING 971
SWIDTH 994 0
DWIDTH 14 0
BBX 14 26 0 -6
BITMAP
0000
0000
0000
0000
C030
C030
C030
C030
0000
0000
C030
C030
C030
C030
C030
C030
C030
C030
C030
C030
3FC0
3FC0
0000
0000
0000
0000
ENDCHAR
STARTCHAR omicrontonos
ENCODING 972
SWIDTH 994 0
DWIDTH 14 0
BBX 14 26 0 -6
BITMAP
0000
0000
0000
0000
00C0
00C0
0300
0300
0000
0000
3FC0
3FC0
C030
C030
C030
C030
C030
C030
C030
C030
3FC0
3FC0
0000
0000
0000
0000
ENDCHAR
STARTCHAR upsilontonos
ENCODING 973
SWIDTH 994 0
DWIDTH 14 0
BBX 14 26 0 -6
BITMAP
0000
0000
0000
0000
00C0
00C0
0300
0300
0000
0000
C030
C030
C030
C030
C030
C030
C030
C030
C030
C030
3FC0
3FC0
0000
0000
0000
0000
ENDCHAR
STARTCHAR omegatonos
ENCODING 974
SWIDTH 994 0
DWIDTH 14 0
BBX 14 26 0 -6
BITMAP
0000
0000
0000
0000
00C0
00C0
0300
0300
0000
0000
3030
3030
3330
3330
3330
3330
3330
3330
3330
3330
0CC0
0CC0
0000
0000
0000
0000
ENDCHAR
STARTCHAR uni03D0
ENCODING 976
SWIDTH 994 0
DWIDTH 14 0
BBX 14 26 0 -6
BITMAP
0000
0000
0000
0000
0F00
0F00
30C0
30C0
C0C0
C0C0
CF00
CF00
F0C0
F0C0
C030
C030
C030
C030
30C0
30C0
0F00
0F00
0000
0000
0000
0000
ENDCHAR
STARTCHAR theta1
ENCODING 977
SWIDTH 994 0
DWIDTH 14 0
BBX 14 26 0 -6
BITMAP
0000
0000
0000
0000
3F00
3F00
C0C0
C0C0
C0C0
C0C0
3FF0
3FF0
00C0
00C0
C0C0
C0C0
C0C0
C0C0
C0C0
C0C0
3F00
3F00
0000
0000
0000
0000
ENDCHAR
STARTCHAR Upsilon1
ENCODING 978
SWIDTH 994 0
DWIDTH 14 0
BBX 14 26 0 -6
BITMAP
0000
0000
0000
0000
0CC0
0CC0
3330
3330
0300
0300
0300
0300
0300
0300
0300
0300
0300
0300
0300
0300
0300
0300
0000
0000
0000
0000
ENDCHAR
STARTCHAR uni03D3
ENCODING 979
SWIDTH 994 0
DWIDTH 14 0
BBX 14 26 0 -6
BITMAP
0000
0000
0000
0000
0CC0
0CC0
3330
3330
0300
0300
3300
3300
3300
3300
0300
0300
0300
0300
0300
0300
0300
0300
0000
0000
0000
0000
ENDCHAR
STARTCHAR uni03D4
ENCODING 980
SWIDTH 994 0
DWIDTH 14 0
BBX 14 26 0 -6
BITMAP
0000
0000
3030
3030
3030
3030
0000
0000
0CC0
0CC0
3330
3330
0300
0300
0300
0300
0300
0300
0300
0300
0300
0300
0000
0000
0000
0000
ENDCHAR
STARTCHAR phi1
ENCODING 981
SWIDTH 994 0
DWIDTH 14 0
BBX 14 26 0 -6
BITMAP
0000
0000
0000
0000
0000
0000
0300
0300
0300
0300
0FC0
0FC0
3330
3330
3330
3330
3330
3330
3330
3330
0FC0
0FC0
0300
0300
0300
0300
ENDCHAR
STARTCHAR omega1
ENCODING 982
SWIDTH 994 0
DWIDTH 14 0
BBX 14 26 0 -6
BITMAP
0000
0000
0000
0000
0000
0000
0000
0000
0000
0000
3FF0
3FF0
3030
3030
3330
3330
3330
3330
3330
3330
0CC0
0CC0
0000
0000
0000
0000
ENDCHAR
STARTCHAR uni03D7
ENCODING 983
SWIDTH 994 0
DWIDTH 14 0
BBX 14 26 0 -6
BITMAP
0000
0000
0000
0000
00C0
00C0
0300
0300
0000
0000
C030
C030
30C0
30C0
3300
3300
3F00
3F00
30C0
30C0
C030
C030
0030
0030
0FC0
0FC0
ENDCHAR
STARTCHAR uni03DA
ENCODING 986
SWIDTH 994 0
DWIDTH 14 0
BBX 14 26 0 -6
BITMAP
0000
0000
0000
0000
0FC0
0FC0
3030
3030
C000
C000
C000
C000
C000
C000
C000
C000
C000
C000
3FC0
3FC0
0030
0030
00C0
00C0
0000
0000
ENDCHAR
STARTCHAR uni03DB
ENCODING 987
SWIDTH 994 0
DWIDTH 14 0
BBX 14 26 0 -6
BITMAP
0000
0000
0000
0000
0000
0000
0000
0000
0030
0030
3FC0
3FC0
C000
C000
C000
C000
C000
C000
C000
C000
3FC0
3FC0
0030
0030
03C0
03C0
ENDCHAR
STARTCHAR uni03DC
ENCODING 988
SWIDTH 994 0
DWIDTH 14 0
BBX 14 26 0 -6
BITMAP
0000
0000
0000
0000
FFF0
FFF0
C000
C000
C000
C000
C000
C000
FF00
FF00
C000
C000
C000
C000
C000
C000
C000
C000
0000
0000
0000
0000
ENDCHAR
STARTCHAR uni03DD
ENCODING 989
SWIDTH 994 0
DWIDTH 14 0
BBX 14 26 0 -6
BITMAP
0000
0000
0000
0000
0000
0000
0000
0000
0000
0000
FFC0
FFC0
C000
C000
C000
C000
FF00
FF00
C000
C000
C000
C000
C000
C000
C000
C000
ENDCHAR
STARTCHAR uni03DE
ENCODING 990
SWIDTH 994 0
DWIDTH 14 0
BBX 14 26 0 -6
BITMAP
0000
0000
0000
0000
C000
C000
C030
C030
C0F0
C0F0
C330
C330
CC30
CC30
CC30
CC30
F030
F030
C030
C030
0030
0030
0000
0000
0000
0000
ENDCHAR
STARTCHAR uni03DF
ENCODING 991
SWIDTH 994 0
DWIDTH 14 0
BBX 14 26 0 -6
BITMAP
0000
0000
0000
0000
0C00
0C00
0C00
0C00
3000
3000
3000
3000
C000
C000
FFF0
FFF0
0030
0030
00C0
00C0
00C0
00C0
0300
0300
0300
0300
ENDCHAR
STARTCHAR uni03E0
ENCODING 992
SWIDTH 994 0
DWIDTH 14 0
BBX 14 26 0 -6
BITMAP
0000
0000
0000
0000
0F00
0F00
0F00
0F00
0F00
0F00
30C0
30C0
30C0
30C0
30C0
30C0
C330
C330
C330
C330
CC30
CC30
0000
0000
0000
0000
ENDCHAR
STARTCHAR uni03E1
ENCODING 993
SWIDTH 994 0
DWIDTH 14 0
BBX 14 26 0 -6
BITMAP
0000
0000
0000
0000
3C00
3C00
0300
0300
00C0
00C0
03C0
03C0
0C30
0C30
30F0
30F0
0330
0330
0C30
0C30
0030
0030
0030
0030
0030
0030
ENDCHAR
STARTCHAR uni03E2
ENCODING 994
SWIDTH 994 0
DWIDTH 14 0
BBX 14 26 0 -6
BITMAP
0000
0000
0000
0000
3330
3330
3330
3330
3330
3330
3330
3330
3330
3330
3330
3330
0CF0
0CF0
0030
0030
3FC0
3FC0
0000
0000
0000
0000
ENDCHAR
STARTCHAR uni03E3
ENCODING 995
SWIDTH 994 0
DWIDTH 14 0
BBX 14 26 0 -6
BITMAP
0000
0000
0000
0000
0000
0000
0000
0000
0000
0000
3330
3330
3330
3330
3330
3330
0CF0
0CF0
0030
0030
3FC0
3FC0
0000
0000
0000
0000
ENDCHAR
STARTCHAR uni03E4
ENCODING 996
SWIDTH 994 0
DWIDTH 14 0
BBX 14 26 0 -6
BITMAP
0000
0000
0000
0000
3030
3030
C030
C030
C030
C030
C030
C030
C030
C030
C030
C030
3FF0
3FF0
0030
0030
0030
0030
0000
0000
0000
0000
ENDCHAR
STARTCHAR uni03E5
ENCODING 997
SWIDTH 994 0
DWIDTH 14 0
BBX 14 26 0 -6
BITMAP
0000
0000
0000
0000
0C30
0C30
3030
3030
3030
3030
3030
3030
3030
3030
3030
3030
0FF0
0FF0
0030
0030
0030
0030
0000
0000
0000
0000
ENDCHAR
STARTCHAR uni03E6
ENCODING 998
SWIDTH 994 0
DWIDTH 14 0
BBX 14 26 0 -6
BITMAP
0000
0000
0000
0000
FC00
FC00
3000
3000
3000
3000
3000
3000
3FC0
3FC0
3030
3030
3030
3030
3030
3030
FC30
FC30
00C0
00C0
0300
0300
ENDCHAR
STARTCHAR uni03E7
ENCODING 999
SWIDTH 994 0
DWIDTH 14 0
BBX 14 26 0 -6
BITMAP
0000
0000
0000
0000
0000
0000
0C00
0C00
0C00
0C00
3FC0
3FC0
CC30
CC30
3030
3030
0030
0030
C030
C030
3FC0
3FC0
0000
0000
0000
0000
ENDCHAR
STARTCHAR uni03E8
ENCODING 1000
SWIDTH 994 0
DWIDTH 14 0
BBX 14 26 0 -6
BITMAP
0000
0000
0000
0000
3FC0
3FC0
C030
C030
3030
3030
0030
0030
3FC0
3FC0
C000
C000
C030
C030
C030
C030
3FC0
3FC0
0000
0000
0000
0000
ENDCHAR
STARTCHAR uni03E9
ENCODING 1001
SWIDTH 994 0
DWIDTH 14 0
BBX 14 26 0 -6
BITMAP
0000
0000
0000
0000
3FC0
3FC0
C030
C030
C0C0
C0C0
3300
3300
0C00
0C00
3000
3000
C000
C000
C000
C000
3FF0
3FF0
0000
0000
0000
0000
ENDCHAR
STARTCHAR uni03EA
ENCODING 1002
SWIDTH 994 0
DWIDTH 14 0
BBX 14 26 0 -6
BITMAP
0000
0000
0000
0000
3CF0
3CF0
0300
0300
0300
0300
0CC0
0CC0
0CC0
0CC0
0CC0
0CC0
3030
3030
3030
3030
3FF0
3FF0
0000
0000
0000
0000
ENDCHAR
STARTCHAR uni03EB
ENCODING 1003
SWIDTH 994 0
DWIDTH 14 0
BBX 14 26 0 -6
BITMAP
0000
0000
0000
0000
0000
0000
0000
0000
0000
0000
3CF0
3CF0
0300
0300
0300
0300
0CC0
0CC0
0CC0
0CC0
0FC0
0FC0
0000
0000
0000
0000
ENDCHAR
STARTCHAR uni03EC
ENCODING 1004
SWIDTH 994 0
DWIDTH 14 0
BBX 14 26 0 -6
BITMAP
0000
0000
0000
0000
0FC0
0FC0
3000
3000
3FC0
3FC0
3030
3030
3030
3030
3030
3030
3030
3030
3030
3030
0FC0
0FC0
0000
0000
0000
0000
ENDCHAR
STARTCHAR uni03ED
ENCODING 1005
SWIDTH 994 0
DWIDTH 14 0
BBX 14 26 0 -6
BITMAP
0000
0000
0000
0000
0000
0000
0000
0000
3FC0
3FC0
C000
C000
CFC0
CFC0
C030
C030
C030
C030
C030
C030
3FC0
3FC0
0000
0000
0000
0000
ENDCHAR
STARTCHAR uni03EE
ENCODING 1006
SWIDTH 994 0
DWIDTH 14 0
BBX 14 26 0 -6
BITMAP
0000
0000
0000
0000
0FC0
0FC0
0300
0300
3FF0
3FF0
3330
3330
0300
0300
0300
0300
0300
0300
0300
0300
0300
0300
0000
0000
0000
0000
ENDCHAR
STARTCHAR uni03EF
ENCODING 1007
SWIDTH 994 0
DWIDTH 14 0
BBX 14 26 0 -6
BITMAP
0000
0000
0000
0000
0000
0000
0000
0000
0300
0300
0300
0300
0330
0330
3FF0
3FF0
3300
3300
0300
0300
0300
0300
0000
0000
0000
0000
ENDCHAR
STARTCHAR uni03F0
ENCODING 1008
SWIDTH 994 0
DWIDTH 14 0
BBX 14 26 0 -6
BITMAP
0000
0000
0000
0000
0000
0000
0000
0000
0000
0000
C030
C030
30C0
30C0
3300
3300
3F00
3F00
30C0
30C0
C030
C030
0000
0000
0000
0000
ENDCHAR
STARTCHAR uni03F1
ENCODING 1009
SWIDTH 994 0
DWIDTH 14 0
BBX 14 26 0 -6
BITMAP
0000
0000
0000
0000
0000
0000
0000
0000
0000
0000
3FC0
3FC0
C030
C030
C030
C030
C030
C030
F030
F030
CFC0
CFC0
C000
C000
3FC0
3FC0
ENDCHAR
STARTCHAR uni03F2
ENCODING 1010
SWIDTH 994 0
DWIDTH 14 0
BBX 14 26 0 -6
BITMAP
0000
0000
0000
0000
0000
0000
0000
0000
0000
0000
3FC0
3FC0
C030
C030
C000
C000
C000
C000
C030
C030
3FC0
3FC0
0000
0000
0000
0000
ENDCHAR
STARTCHAR uni03F3
ENCODING 1011
SWIDTH 994 0
DWIDTH 14 0
BBX 14 26 0 -6
BITMAP
0000
0000
0000
0000
0000
0000
0030
0030
0000
0000
00F0
00F0
0030
0030
0030
0030
0030
0030
0030
0030
3030
3030
3030
3030
0FC0
0FC0
ENDCHAR
STARTCHAR uni03F4
ENCODING 1012
SWIDTH 994 0
DWIDTH 14 0
BBX 14 26 0 -6
BITMAP
0000
0000
0000
0000
3FC0
3FC0
C030
C030
C030
C030
C030
C030
FFF0
FFF0
C030
C030
C030
C030
C030
C030
3FC0
3FC0
0000
0000
0000
0000
ENDCHAR
STARTCHAR uni03F5
ENCODING 1013
SWIDTH 994 0
DWIDTH 14 0
BBX 14 26 0 -6
BITMAP
0000
0000
0000
0000
0000
0000
0000
0000
0000
0000
0FF0
0FF0
3000
3000
3FC0
3FC0
3000
3000
3000
3000
0FF0
0FF0
0000
0000
0000
0000
ENDCHAR
STARTCHAR uni0400
ENCODING 1024
SWIDTH 994 0
DWIDTH 14 0
BBX 14 26 0 -6
BITMAP
0000
0000
0C00
0C00
0300
0300
0000
0000
FFF0
FFF0
C000
C000
C000
C000
FF00
FF00
C000
C000
C000
C000
FFF0
FFF0
0000
0000
0000
0000
ENDCHAR
STARTCHAR afii10023
ENCODING 1025
SWIDTH 994 0
DWIDTH 14 0
BBX 14 26 0 -6
BITMAP
0000
0000
30C0
30C0
30C0
30C0
0000
0000
FFF0
FFF0
C000
C000
C000
C000
FF00
FF00
C000
C000
C000
C000
FFF0
FFF0
0000
0000
0000
0000
ENDCHAR
STARTCHAR afii10051
ENCODING 1026
SWIDTH 994 0
DWIDTH 14 0
BBX 14 26 0 -6
BITMAP
0000
0000
0000
0000
FFC0
FFC0
0C00
0C00
0C00
0C00
0C00
0C00
0FC0
0FC0
0C30
0C30
0C30
0C30
0C30
0C30
0C30
0C30
0030
0030
03C0
03C0
ENDCHAR
STARTCHAR afii10052
ENCODING 1027
SWIDTH 994 0
DWIDTH 14 0
BBX 14 26 0 -6
BITMAP
0300
0300
0C00
0C00
0000
0000
FFF0
FFF0
C000
C000
C000
C000
C000
C000
C000
C000
C000
C000
C000
C000
C000
C000
0000
0000
0000
0000
ENDCHAR
STARTCHAR afii10053
ENCODING 1028
SWIDTH 994 0
DWIDTH 14 0
BBX 14 26 0 -6
BITMAP
0000
0000
0000
0000
0FC0
0FC0
3030
3030
C000
C000
C000
C000
FF00
FF00
C000
C000
C000
C000
3030
3030
0FC0
0FC0
0000
0000
0000
0000
ENDCHAR
STARTCHAR afii10054
ENCODING 1029
SWIDTH 994 0
DWIDTH 14 0
BBX 14 26 0 -6
BITMAP
0000
0000
0000
0000
3FC0
3FC0
C030
C030
C000
C000
C000
C000
3FC0
3FC0
0030
0030
0030
0030
C030
C030
3FC0
3FC0
0000
0000
0000
0000
ENDCHAR
STARTCHAR afii10055
ENCODING 1030
SWIDTH 994 0
DWIDTH 14 0
BBX 14 26 0 -6
BITMAP
0000
0000
0000
0000
3FF0
3FF0
0300
0300
0300
0300
0300
0300
0300
0300
0300
0300
0300
0300
0300
0300
3FF0
3FF0
0000
0000
0000
0000
ENDCHAR
STARTCHAR afii10056
ENCODING 1031
SWIDTH 994 0
DWIDTH 14 0
BBX 14 26 0 -6
BITMAP
0000
0000
3030
3030
3030
3030
0000
0000
3FF0
3FF0
0300
0300
0300
0300
0300
0300
0300
0300
0300
0300
3FF0
3FF0
0000
0000
0000
0000
ENDCHAR
STARTCHAR afii10057
ENCODING 1032
SWIDTH 994 0
DWIDTH 14 0
BBX 14 26 0 -6
BITMAP
0000
0000
0000
0000
03F0
03F0
00C0
00C0
00C0
00C0
00C0
00C0
00C0
00C0
00C0
00C0
00C0
00C0
C0C0
C0C0
3F00
3F00
0000
0000
0000
0000
ENDCHAR
STARTCHAR afii10058
ENCODING 1033
SWIDTH 994 0
DWIDTH 14 0
BBX 14 26 0 -6
BITMAP
0000
0000
0000
0000
3F00
3F00
3300
3300
3300
3300
3300
3300
33C0
33C0
3330
3330
3330
3330
3330
3330
C3C0
C3C0
0000
0000
0000
0000
ENDCHAR
STARTCHAR afii10059
ENCODING 1034
SWIDTH 994 0
DWIDTH 14 0
BBX 14 26 0 -6
BITMAP
0000
0000
0000
0000
C300
C300
C300
C300
C300
C300
C300
C300
FFC0
FFC0
C330
C330
C330
C330
C330
C330
C3C0
C3C0
0000
0000
0000
0000
ENDCHAR
STARTCHAR afii10060
ENCODING 1035
SWIDTH 994 0
DWIDTH 14 0
BBX 14 26 0 -6
BITMAP
0000
0000
0000
0000
FFC0
FFC0
0C00
0C00
0C00
0C00
0C00
0C00
0FC0
0FC0
0C30
0C30
0C30
0C30
0C30
0C30
0C30
0C30
0000
0000
0000
0000
ENDCHAR
STARTCHAR afii10061
ENCODING 1036
SWIDTH 994 0
DWIDTH 14 0
BBX 14 26 0 -6
BITMAP
0300
0300
0C00
0C00
C030
C030
C0C0
C0C0
C300
C300
CC00
CC00
F000
F000
CC00
CC00
C300
C300
C0C0
C0C0
C030
C030
0000
0000
0000
0000
ENDCHAR
STARTCHAR uni040D
ENCODING 1037
SWIDTH 994 0
DWIDTH 14 0
BBX 14 26 0 -6
BITMAP
0C00
0C00
0300
0300
C030
C030
C030
C030
C0F0
C0F0
C330
C330
CC30
CC30
F030
F030
C030
C030
C030
C030
C030
C030
0000
0000
0000
0000
ENDCHAR
STARTCHAR afii10062
ENCODING 1038
SWIDTH 994 0
DWIDTH 14 0
BBX 14 26 0 -6
BITMAP
30C0
30C0
0F00
0F00
0000
0000
C030
C030
C030
C030
C030
C030
3FF0
3FF0
0030
0030
0030
0030
C030
C030
3FC0
3FC0
0000
0000
0000
0000
ENDCHAR
STARTCHAR afii10145
ENCODING 1039
SWIDTH 994 0
DWIDTH 14 0
BBX 14 26 0 -6
BITMAP
0000
0000
0000
0000
C0C0
C0C0
C0C0
C0C0
C0C0
C0C0
C0C0
C0C0
C0C0
C0C0
C0C0
C0C0
C0C0
C0C0
C0C0
C0C0
FFC0
FFC0
0C00
0C00
0C00
0C00
ENDCHAR
STARTCHAR afii10017
ENCODING 1040
SWIDTH 994 0
DWIDTH 14 0
BBX 14 26 0 -6
BITMAP
0000
0000
0000
0000
0F00
0F00
30C0
30C0
C030
C030
C030
C030
C030
C030
FFF0
FFF0
C030
C030
C030
C030
C030
C030
0000
0000
0000
0000
ENDCHAR
STARTCHAR afii10018
ENCODING 1041
SWIDTH 994 0
DWIDTH 14 0
BBX 14 26 0 -6
BITMAP
0000
0000
0000
0000
FFC0
FFC0
C000
C000
C000
C000
C000
C000
FFC0
FFC0
C030
C030
C030
C030
C030
C030
FFC0
FFC0
0000
0000
0000
0000
ENDCHAR
STARTCHAR afii10019
ENCODING 1042
SWIDTH 994 0
DWIDTH 14 0
BBX 14 26 0 -6
BITMAP
0000
0000
0000
0000
FFC0
FFC0
C030
C030
C030
C030
C030
C030
FFC0
FFC0
C030
C030
C030
C030
C030
C030
FFC0
FFC0
0000
0000
0000
0000
ENDCHAR
STARTCHAR afii10020
ENCODING 1043
SWIDTH 994 0
DWIDTH 14 0
BBX 14 26 0 -6
BITMAP
0000
0000
0000
0000
FFF0
FFF0
C000
C000
C000
C000
C000
C000
C000
C000
C000
C000
C000
C000
C000
C000
C000
C000
0000
0000
0000
0000
ENDCHAR
STARTCHAR afii10021
ENCODING 1044
SWIDTH 994 0
DWIDTH 14 0
BBX 14 26 0 -6
BITMAP
0000
0000
0000
0000
0FC0
0FC0
0CC0
0CC0
0CC0
0CC0
0CC0
0CC0
30C0
30C0
30C0
30C0
30C0
30C0
30C0
30C0
FFF0
FFF0
C030
C030
0000
0000
ENDCHAR
STARTCHAR afii10022
ENCODING 1045
SWIDTH 994 0
DWIDTH 14 0
BBX 14 26 0 -6
BITMAP
0000
0000
0000
0000
FFF0
FFF0
C000
C000
C000
C000
C000
C000
FF00
FF00
C000
C000
C000
C000
C000
C000
FFF0
FFF0
0000
0000
0000
0000
ENDCHAR
STARTCHAR afii10024
ENCODING 1046
SWIDTH 994 0
DWIDTH 14 0
BBX 14 26 0 -6
BITMAP
0000
0000
0000
0000
3330
3330
3330
3330
3330
3330
3330
3330
0FC0
0FC0
3330
3330
3330
3330
3330
3330
3330
3330
0000
0000
0000
0000
ENDCHAR
STARTCHAR afii10025
ENCODING 1047
SWIDTH 994 0
DWIDTH 14 0
BBX 14 26 0 -6
BITMAP
0000
0000
0000
0000
3FC0
3FC0
C030
C030
0030
0030
0030
0030
0FC0
0FC0
0030
0030
0030
0030
C030
C030
3FC0
3FC0
0000
0000
0000
0000
ENDCHAR
STARTCHAR afii10026
ENCODING 1048
SWIDTH 994 0
DWIDTH 14 0
BBX 14 26 0 -6
BITMAP
0000
0000
0000
0000
C030
C030
C030
C030
C0F0
C0F0
C330
C330
CC30
CC30
F030
F030
C030
C030
C030
C030
C030
C030
0000
0000
0000
0000
ENDCHAR
STARTCHAR afii10027
ENCODING 1049
SWIDTH 994 0
DWIDTH 14 0
BBX 14 26 0 -6
BITMAP
30C0
30C0
0F00
0F00
C030
C030
C030
C030
C0F0
C0F0
C330
C330
CC30
CC30
F030
F030
C030
C030
C030
C030
C030
C030
0000
0000
0000
0000
ENDCHAR
STARTCHAR afii10028
ENCODING 1050
SWIDTH 994 0
DWIDTH 14 0
BBX 14 26 0 -6
BITMAP
0000
0000
0000
0000
C030
C030
C0C0
C0C0
C300
C300
CC00
CC00
F000
F000
CC00
CC00
C300
C300
C0C0
C0C0
C030
C030
0000
0000
0000
0000
ENDCHAR
STARTCHAR afii10029
ENCODING 1051
SWIDTH 994 0
DWIDTH 14 0
BBX 14 26 0 -6
BITMAP
0000
0000
0000
0000
3FF0
3FF0
3030
3030
3030
3030
3030
3030
3030
3030
3030
3030
3030
3030
3030
3030
C030
C030
0000
0000
0000
0000
ENDCHAR
STARTCHAR afii10030
ENCODING 1052
SWIDTH 994 0
DWIDTH 14 0
BBX 14 26 0 -6
BITMAP
0000
0000
0000
0000
C030
C030
F0F0
F0F0
F0F0
F0F0
CF30
CF30
CF30
CF30
C030
C030
C030
C030
C030
C030
C030
C030
0000
0000
0000
0000
ENDCHAR
STARTCHAR afii10031
ENCODING 1053
SWIDTH 994 0
DWIDTH 14 0
BBX 14 26 0 -6
BITMAP
0000
0000
0000
0000
C030
C030
C030
C030
C030
C030
C030
C030
FFF0
FFF0
C030
C030
C030
C030
C030
C030
C030
C030
0000
0000
0000
0000
ENDCHAR
STARTCHAR afii10032
ENCODING 1054
SWIDTH 994 0
DWIDTH 14 0
BBX 14 26 0 -6
BITMAP
0000
0000
0000
0000
3FC0
3FC0
C030
C030
C030
C030
C030
C030
C030
C030
C030
C030
C030
C030
C030
C030
3FC0
3FC0
0000
0000
0000
0000
ENDCHAR
STARTCHAR afii10033
ENCODING 1055
SWIDTH 994 0
DWIDTH 14 0
BBX 14 26 0 -6
BITMAP
0000
0000
0000
0000
FFF0
FFF0
C030
C030
C030
C030
C030
C030
C030
C030
C030
C030
C030
C030
C030
C030
C030
C030
0000
0000
0000
0000
ENDCHAR
STARTCHAR afii10034
ENCODING 1056
SWIDTH 994 0
DWIDTH 14 0
BBX 14 26 0 -6
BITMAP
0000
0000
0000
0000
FFC0
FFC0
C030
C030
C030
C030
C030
C030
FFC0
FFC0
C000
C000
C000
C000
C000
C000
C000
C000
0000
0000
0000
0000
ENDCHAR
STARTCHAR afii10035
ENCODING 1057
SWIDTH 994 0
DWIDTH 14 0
BBX 14 26 0 -6
BITMAP
0000
0000
0000
0000
3FC0
3FC0
C030
C030
C000
C000
C000
C000
C000
C000
C000
C000
C000
C000
C030
C030
3FC0
3FC0
0000
0000
0000
0000
ENDCHAR
STARTCHAR afii10036
ENCODING 1058
SWIDTH 994 0
DWIDTH 14 0
BBX 14 26 0 -6
BITMAP
0000
0000
0000
0000
3FF0
3FF0
0300
0300
0300
0300
0300
0300
0300
0300
0300
0300
0300
0300
0300
0300
0300
0300
0000
0000
0000
0000
ENDCHAR
STARTCHAR afii10037
ENCODING 1059
SWIDTH 994 0
DWIDTH 14 0
BBX 14 26 0 -6
BITMAP
0000
0000
0000
0000
C030
C030
C030
C030
C030
C030
C030
C030
3FF0
3FF0
0030
0030
0030
0030
C030
C030
3FC0
3FC0
0000
0000
0000
0000
ENDCHAR
STARTCHAR afii10038
ENCODING 1060
SWIDTH 994 0
DWIDTH 14 0
BBX 14 26 0 -6
BITMAP
0000
0000
0300
0300
0FC0
0FC0
3330
3330
3330
3330
3330
3330
3330
3330
3330
3330
3330
3330
3330
3330
0FC0
0FC0
0300
0300
0000
0000
ENDCHAR
STARTCHAR afii10039
ENCODING 1061
SWIDTH 994 0
DWIDTH 14 0
BBX 14 26 0 -6
BITMAP
0000
0000
0000
0000
C030
C030
C030
C030
30C0
30C0
30C0
30C0
0F00
0F00
30C0
30C0
30C0
30C0
C030
C030
C030
C030
0000
0000
0000
0000
ENDCHAR
STARTCHAR afii10040
ENCODING 1062
SWIDTH 994 0
DWIDTH 14 0
BBX 14 26 0 -6
BITMAP
0000
0000
0000
0000
C0C0
C0C0
C0C0
C0C0
C0C0
C0C0
C0C0
C0C0
C0C0
C0C0
C0C0
C0C0
C0C0
C0C0
C0C0
C0C0
FFF0
FFF0
0030
0030
0030
0030
ENDCHAR
STARTCHAR afii10041
ENCODING 1063
SWIDTH 994 0
DWIDTH 14 0
BBX 14 26 0 -6
BITMAP
0000
0000
0000
0000
C030
C030
C030
C030
C030
C030
C030
C030
3FF0
3FF0
0030
0030
0030
0030
0030
0030
0030
0030
0000
0000
0000
0000
ENDCHAR
STARTCHAR afii10042
ENCODING 1064
SWIDTH 994 0
DWIDTH 14 0
BBX 14 26 0 -6
BITMAP
0000
0000
0000
0000
3330
3330
3330
3330
3330
3330
3330
3330
3330
3330
3330
3330
3330
3330
3330
3330
3FF0
3FF0
0000
0000
0000
0000
ENDCHAR
STARTCHAR afii10043
ENCODING 1065
SWIDTH 994 0
DWIDTH 14 0
BBX 14 26 0 -6
BITMAP
0000
0000
0000
0000
CCC0
CCC0
CCC0
CCC0
CCC0
CCC0
CCC0
CCC0
CCC0
CCC0
CCC0
CCC0
CCC0
CCC0
CCC0
CCC0
FFF0
FFF0
0030
0030
0030
0030
ENDCHAR
STARTCHAR afii10044
ENCODING 1066
SWIDTH 994 0
DWIDTH 14 0
BBX 14 26 0 -6
BITMAP
0000
0000
0000
0000
FC00
FC00
0C00
0C00
0C00
0C00
0C00
0C00
0FC0
0FC0
0C30
0C30
0C30
0C30
0C30
0C30
0FC0
0FC0
0000
0000
0000
0000
ENDCHAR
STARTCHAR afii10045
ENCODING 1067
SWIDTH 994 0
DWIDTH 14 0
BBX 14 26 0 -6
BITMAP
0000
0000
0000
0000
C030
C030
C030
C030
C030
C030
C030
C030
FC30
FC30
C330
C330
C330
C330
C330
C330
FC30
FC30
0000
0000
0000
0000
ENDCHAR
STARTCHAR afii10046
ENCODING 1068
SWIDTH 994 0
DWIDTH 14 0
BBX 14 26 0 -6
BITMAP
0000
0000
0000
0000
3000
3000
3000
3000
3000
3000
3000
3000
3FC0
3FC0
3030
3030
3030
3030
3030
3030
3FC0
3FC0
0000
0000
0000
0000
ENDCHAR
STARTCHAR afii10047
ENCODING 1069
SWIDTH 994 0
DWIDTH 14 0
BBX 14 26 0 -6
BITMAP
0000
0000
0000
0000
3F00
3F00
C0C0
C0C0
0030
0030
0030
0030
0FF0
0FF0
0030
0030
0030
0030
C0C0
C0C0
3F00
3F00
0000
0000
0000
0000
ENDCHAR
STARTCHAR afii10048
ENCODING 1070
SWIDTH 994 0
DWIDTH 14 0
BBX 14 26 0 -6
BITMAP
0000
0000
0000
0000
C3C0
C3C0
CC30
CC30
CC30
CC30
CC30
CC30
FC30
FC30
CC30
CC30
CC30
CC30
CC30
CC30
C3C0
C3C0
0000
0000
0000
0000
ENDCHAR
STARTCHAR afii10049
ENCODING 1071
SWIDTH 994 0
DWIDTH 14 0
BBX 14 26 0 -6
BITMAP
0000
0000
0000
0000
3FF0
3FF0
C030
C030
C030
C030
C030
C030
3FF0
3FF0
0330
0330
0C30
0C30
3030
3030
C030
C030
0000
0000
0000
0000
ENDCHAR
STARTCHAR afii10065
ENCODING 1072
SWIDTH 994 0
DWIDTH 14 0
BBX 14 26 0 -6
BITMAP
0000
0000
0000
0000
0000
0000
0000
0000
0000
0000
3FC0
3FC0
0030
0030
3FF0
3FF0
C030
C030
C0F0
C0F0
3F30
3F30
0000
0000
0000
0000
ENDCHAR
STARTCHAR afii10066
ENCODING 1073
SWIDTH 994 0
DWIDTH 14 0
BBX 14 26 0 -6
BITMAP
0000
0000
0000
0000
0030
0030
3FC0
3FC0
C000
C000
CFC0
CFC0
F030
F030
C030
C030
C030
C030
C030
C030
3FC0
3FC0
0000
0000
0000
0000
ENDCHAR
ENDFONT
